<svg width="172" height="31" viewBox="0 0 172 31" fill="none" xmlns="http://www.w3.org/2000/svg">
<path d="M1.188 29.1199V29.1759C1.076 29.1012 1.00133 28.9799 0.964 28.8119C0.908 28.6626 0.889333 28.5039 0.908 28.3359C0.945333 28.2052 1.02933 28.0092 1.16 27.7479C1.272 27.4679 1.412 27.1972 1.58 26.9359C1.636 26.8426 1.68267 26.7586 1.72 26.6839C1.75733 26.5906 1.776 26.5346 1.776 26.5159C1.776 26.4972 1.776 26.4692 1.776 26.4319C1.75733 26.3946 1.72933 26.3572 1.692 26.3199C1.59867 26.0959 1.552 25.8439 1.552 25.5639C1.552 25.2839 1.59867 25.0132 1.692 24.7519C2.04667 23.8746 2.93333 22.9786 4.352 22.0639C4.52 21.9519 4.64133 21.8679 4.716 21.8119C4.80933 21.7559 4.884 21.6719 4.94 21.5599C4.94 21.5412 4.94933 21.5226 4.968 21.5039C5.00533 21.4292 5.04267 21.3452 5.08 21.2519C5.11733 21.1586 5.14533 21.0186 5.164 20.8319C5.23867 20.4586 5.28533 20.1226 5.304 19.8239C5.34133 19.5252 5.36933 19.1986 5.388 18.8439C5.40667 18.1906 5.36 17.5466 5.248 16.9119C5.136 16.2772 4.93067 15.5026 4.632 14.5879C4.632 14.5692 4.62267 14.5506 4.604 14.5319C4.268 13.4866 4.05333 12.7492 3.96 12.3199C3.624 10.7146 3.792 9.25857 4.464 7.95191C5.43467 6.10391 7.012 4.61057 9.196 3.47191C11.0067 2.51991 13.0413 2.02524 15.3 1.98791C17.1853 1.95057 19.1267 2.23057 21.124 2.82791C23.1213 3.40657 24.8013 4.19057 26.164 5.17991C27.844 6.41191 28.8333 7.98924 29.132 9.91191C29.1693 10.2106 29.188 10.5746 29.188 11.0039C29.188 11.4332 29.1693 11.8159 29.132 12.1519C28.8147 14.2799 27.9187 16.3239 26.444 18.2839C25.5853 19.3292 24.6333 20.3186 23.588 21.2519C20.8067 23.5479 17.6147 25.3026 14.012 26.5159C10.82 27.5052 8.11333 27.9999 5.892 27.9999C5.46267 27.9999 5.024 27.9719 4.576 27.9159C4.14667 27.8599 3.80133 27.7852 3.54 27.6919L3.316 27.6359L3.036 27.9999C2.68133 28.4852 2.38267 28.7932 2.14 28.9239C2.084 28.9612 2.03733 28.9892 2 29.0079C1.944 29.0266 1.89733 29.0452 1.86 29.0639C1.748 29.1199 1.67333 29.1572 1.636 29.1759C1.58 29.1946 1.524 29.2039 1.468 29.2039C1.412 29.2039 1.36533 29.1946 1.328 29.1759C1.272 29.1572 1.22533 29.1386 1.188 29.1199ZM5.164 23.5199V23.7159C5.03333 24.1826 4.86533 24.6866 4.66 25.2279C4.47333 25.7506 4.268 26.2266 4.044 26.6559C4.00667 26.7679 3.96933 26.8706 3.932 26.9639C3.85733 27.1132 3.82 27.1972 3.82 27.2159C3.82 27.2346 3.904 27.2626 4.072 27.2999C4.25867 27.3372 4.47333 27.3746 4.716 27.4119C4.996 27.4306 5.416 27.4399 5.976 27.4399C6.55467 27.4212 7.04 27.3932 7.432 27.3559C12.1547 26.7212 16.644 25.1066 20.9 22.5119C23.3267 20.9812 25.24 19.2639 26.64 17.3599C28.0773 15.2506 28.796 13.2719 28.796 11.4239C28.796 9.70657 28.236 8.27857 27.116 7.13991C25.6787 5.64657 23.4387 4.47057 20.396 3.61191C18.7907 3.14524 17.1853 2.91191 15.58 2.91191C14.404 2.91191 13.3867 3.01457 12.528 3.21991C10.4747 3.66791 8.71067 4.48924 7.236 5.68391C5.78 6.87857 4.86533 8.25991 4.492 9.82791C4.45467 9.97724 4.42667 10.1266 4.408 10.2759C4.38933 10.4066 4.38 10.6306 4.38 10.9479C4.38 11.4892 4.436 12.0212 4.548 12.5439C4.66 13.0479 4.89333 13.8692 5.248 15.0079C5.49067 15.7359 5.65867 16.3706 5.752 16.9119C5.864 17.4346 5.92933 17.9852 5.948 18.5639C5.948 18.7506 5.948 18.9559 5.948 19.1799C5.948 19.3852 5.948 19.5626 5.948 19.7119C5.92933 19.7866 5.92 19.8612 5.92 19.9359C5.92 19.9919 5.91067 20.0479 5.892 20.1039C5.892 20.1412 5.892 20.1599 5.892 20.1599C5.91067 20.1599 6.16267 19.7772 6.648 19.0119C7.13333 18.2279 7.684 17.3319 8.3 16.3239C8.43067 16.0999 8.56133 15.8852 8.692 15.6799C10.1293 13.3652 11.548 11.1252 12.948 8.95991C14.1987 7.03724 14.9827 5.67457 15.3 4.87191C15.3373 4.77857 15.3653 4.70391 15.384 4.64791C15.4027 4.57324 15.412 4.51724 15.412 4.47991C15.412 4.44257 15.4027 4.40524 15.384 4.36791C15.2907 4.01324 15.356 3.72391 15.58 3.49991C15.692 3.36924 15.8227 3.30391 15.972 3.30391C16.1213 3.28524 16.252 3.33191 16.364 3.44391C16.5133 3.57457 16.588 3.75191 16.588 3.97591C16.588 4.08791 16.4013 4.46124 16.028 5.09591C15.6733 5.73057 15.048 6.76657 14.152 8.20391C10.848 13.5052 8.56133 17.3039 7.292 19.5999C7.19867 19.8052 7.096 19.9919 6.984 20.1599C6.89067 20.3279 6.816 20.4586 6.76 20.5519C6.74133 20.5892 6.72267 20.6172 6.704 20.6359C6.66667 20.7106 6.62933 20.7759 6.592 20.8319C6.55467 20.8692 6.536 20.8879 6.536 20.8879C6.536 20.8879 6.592 20.8692 6.704 20.8319C6.816 20.7759 6.956 20.7106 7.124 20.6359C7.64667 20.4119 8.23467 20.1879 8.888 19.9639C9.54133 19.7399 10.4093 19.4599 11.492 19.1239C11.5293 19.1052 11.5573 19.0959 11.576 19.0959C12.7147 18.7412 13.5827 18.4612 14.18 18.2559C14.7773 18.0319 15.244 17.8359 15.58 17.6679C15.692 17.5932 15.7853 17.5466 15.86 17.5279C15.9347 17.5092 16.028 17.4999 16.14 17.4999C16.2707 17.4999 16.364 17.5092 16.42 17.5279C16.476 17.5279 16.532 17.5559 16.588 17.6119C16.6253 17.6492 16.6627 17.6959 16.7 17.7519C16.756 17.8079 16.7933 17.8639 16.812 17.9199C16.924 18.1066 16.952 18.3212 16.896 18.5639C16.84 18.7879 16.7093 18.9652 16.504 19.0959C16.4667 19.1146 16.4293 19.1332 16.392 19.1519C16.3547 19.1706 16.308 19.1892 16.252 19.2079C16.196 19.2079 16.112 19.2172 16 19.2359C15.888 19.2359 15.7387 19.2359 15.552 19.2359C12.5653 19.3852 9.59733 20.1226 6.648 21.4479L6.06 21.7279L5.668 22.4279C5.51867 22.7079 5.40667 22.9319 5.332 23.0999C5.25733 23.2492 5.20133 23.3892 5.164 23.5199ZM2.14 25.5359L2.084 25.5079C2.084 25.5826 2.084 25.6572 2.084 25.7319C2.084 25.8066 2.09333 25.8626 2.112 25.8999C2.112 25.9186 2.112 25.9279 2.112 25.9279C2.13067 25.9652 2.14 25.9932 2.14 26.0119C2.15867 26.0119 2.17733 26.0026 2.196 25.9839C2.21467 25.9839 2.28933 25.8719 2.42 25.6479C2.56933 25.4239 2.73733 25.1626 2.924 24.8639C3.12933 24.5466 3.316 24.2572 3.484 23.9959C3.652 23.7346 3.764 23.5572 3.82 23.4639C4.02533 23.1652 3.99733 23.1372 3.736 23.3799C2.76533 24.1452 2.23333 24.8639 2.14 25.5359ZM37.8337 20.3559C37.6283 20.4119 37.4417 20.4586 37.2737 20.4959C36.639 20.6079 36.1723 20.4959 35.8737 20.1599C35.5937 19.8426 35.5097 19.3946 35.6217 18.8159C35.659 18.6292 35.7057 18.4146 35.7617 18.1719C35.8363 17.9292 35.9203 17.7146 36.0137 17.5279C36.0323 17.4719 36.051 17.4252 36.0697 17.3879V17.3319H36.0417V17.3599L35.9857 17.4159C35.911 17.4719 35.827 17.5372 35.7337 17.6119C34.595 18.5826 33.979 19.1052 33.8857 19.1799C33.7923 19.2546 33.671 19.3479 33.5217 19.4599C32.9243 19.9266 32.439 20.2999 32.0657 20.5799C31.6923 20.8599 31.347 21.0839 31.0297 21.2519C29.9283 21.8679 29.219 21.8212 28.9017 21.1119C28.435 20.2346 28.379 19.2359 28.7337 18.1159C28.9577 17.6306 29.191 17.4439 29.4337 17.5559C29.6763 17.6679 29.7883 17.8172 29.7697 18.0039C29.751 18.1906 29.7137 18.3212 29.6577 18.3959C29.135 19.9079 29.3217 20.6919 30.2177 20.7479C30.759 20.5612 31.179 20.3466 31.4777 20.1039C32.1497 19.6746 33.0457 18.9652 34.1657 17.9759C35.2857 16.9679 35.9483 16.3706 36.1537 16.1839C36.359 15.9786 36.555 15.7919 36.7417 15.6239C36.9283 15.4559 37.0497 15.3346 37.1057 15.2599C37.2923 15.0172 37.479 14.8959 37.6657 14.8959C37.9457 14.8959 37.9923 15.0826 37.8057 15.4559C37.787 15.5306 37.7497 15.6146 37.6937 15.7079C37.6563 15.7826 37.6003 15.8852 37.5257 16.0159C37.3763 16.2399 37.227 16.5479 37.0777 16.9399C36.9283 17.3319 36.7977 17.6679 36.6857 17.9479C36.5923 18.1719 36.5363 18.4239 36.5177 18.7039C36.499 18.9652 36.471 19.1706 36.4337 19.3199C36.415 19.6746 36.6763 19.8332 37.2177 19.7959C37.7777 19.7586 38.6643 19.2359 39.8777 18.2279C41.1097 17.0519 41.8283 16.3706 42.0337 16.1839C42.239 15.9786 42.435 15.7919 42.6217 15.6239C42.8083 15.4559 42.9297 15.3346 42.9857 15.2599C43.1723 15.0172 43.359 14.8959 43.5457 14.8959C43.6763 14.8959 43.723 15.0826 43.6857 15.4559C43.667 15.5306 43.6297 15.6146 43.5737 15.7079C43.5363 15.7826 43.4803 15.8852 43.4057 16.0159C43.2563 16.2772 43.107 16.5572 42.9577 16.8559C42.827 17.1359 42.6777 17.5372 42.5097 18.0599C42.3603 18.5639 42.295 18.9839 42.3137 19.3199C42.295 19.6746 42.5937 19.8426 43.2097 19.8239C43.527 19.7679 43.9563 19.6652 44.4977 19.5159C45.039 19.3479 45.8323 18.9839 46.8777 18.4239C47.139 18.2746 47.3817 18.1439 47.6057 18.0319H47.6337C47.7643 17.9759 47.8763 17.9852 47.9697 18.0599C48.0817 18.1159 48.1377 18.2186 48.1377 18.3679C48.1377 18.4986 48.0537 18.6106 47.8857 18.7039C47.7923 18.7599 47.6897 18.8066 47.5777 18.8439C46.551 19.2732 45.7483 19.5999 45.1697 19.8239C44.6097 20.0479 44.1803 20.2066 43.8817 20.2999C43.6017 20.3932 43.359 20.4586 43.1537 20.4959C42.519 20.6079 42.0523 20.4959 41.7537 20.1599C41.4737 19.8426 41.3897 19.3946 41.5017 18.8159C41.539 18.6292 41.5857 18.4146 41.6417 18.1719C41.7163 17.9292 41.8003 17.7146 41.8937 17.5279C41.9123 17.4719 41.931 17.4252 41.9497 17.3879V17.3319H41.9217V17.3599L41.8657 17.4159C41.791 17.4719 41.707 17.5372 41.6137 17.6119C40.475 18.5826 39.859 19.1052 39.7657 19.1799C39.6723 19.2546 39.551 19.3479 39.4017 19.4599C38.8043 19.9266 38.3283 20.2159 37.9737 20.3279C37.9177 20.3466 37.871 20.3559 37.8337 20.3559ZM56.1533 18.7599L56.1813 18.8159C56.2373 18.7786 56.2933 18.7412 56.3493 18.7039C56.704 18.4239 56.956 18.2186 57.1053 18.0879C57.1053 18.1626 57.1053 18.2186 57.1053 18.2559C57.1053 18.2932 57.1053 18.3399 57.1053 18.3959C56.956 18.5266 56.732 18.6946 56.4333 18.8999C55.0893 19.9639 54.0813 20.7199 53.4093 21.1679C52.7373 21.6159 52.2053 21.8959 51.8133 22.0079C51.2533 22.1946 50.8613 22.0826 50.6373 21.6719C50.5813 21.5412 50.5533 21.3826 50.5533 21.1959C50.5533 20.9906 50.5813 20.7852 50.6373 20.5799C50.712 20.3746 50.824 20.1226 50.9733 19.8239C51.1413 19.5252 51.3093 19.2359 51.4773 18.9559C51.5706 18.8252 51.6453 18.7226 51.7013 18.6479C51.776 18.5546 51.804 18.5079 51.7853 18.5079C51.7293 18.5079 51.3 18.7319 50.4973 19.1799C49.5266 19.7399 48.7986 20.0946 48.3133 20.2439C47.828 20.3746 47.4826 20.3466 47.2773 20.1599C47.0346 19.9359 46.96 19.5812 47.0533 19.0959C47.072 19.0399 47.1093 18.9279 47.1653 18.7599C47.2213 18.5919 47.2866 18.4239 47.3613 18.2559C47.4546 18.0692 47.5293 17.8919 47.5853 17.7239C47.6413 17.5372 47.688 17.3972 47.7253 17.3039C47.8933 16.7999 48.1266 16.5479 48.4253 16.5479C48.7426 16.5479 48.9013 16.7532 48.9013 17.1639C48.9013 17.2199 48.892 17.2852 48.8733 17.3599C48.8546 17.4159 48.7986 17.4906 48.7053 17.5839C48.6306 17.6772 48.5186 17.8172 48.3693 18.0039C48.2573 18.1346 48.136 18.3119 48.0053 18.5359C47.8933 18.7599 47.7906 18.9839 47.6973 19.2079C47.604 19.4132 47.5573 19.5626 47.5573 19.6559C47.5573 19.8986 47.8186 19.9546 48.3413 19.8239C48.5466 19.7492 48.8453 19.6092 49.2373 19.4039C49.648 19.1799 50.068 18.9466 50.4973 18.7039C50.9453 18.4426 51.328 18.2279 51.6453 18.0599C51.9813 17.8919 52.196 17.7892 52.2893 17.7519C52.3453 17.7332 52.392 17.7332 52.4293 17.7519C52.4666 17.7519 52.4946 17.7706 52.5133 17.8079C52.6066 17.9012 52.6253 18.0226 52.5693 18.1719C52.532 18.3212 52.392 18.5732 52.1493 18.9279C51.9253 19.3199 51.7106 19.7492 51.5053 20.2159C51.3186 20.6826 51.1973 21.0466 51.1413 21.3079C51.1413 21.3826 51.1413 21.4386 51.1413 21.4759C51.16 21.5132 51.1786 21.5506 51.1973 21.5879C51.2533 21.6626 51.328 21.6999 51.4213 21.6999C51.5333 21.6999 51.6826 21.6626 51.8693 21.5879C52.5226 21.3639 53.9506 20.4212 56.1533 18.7599ZM61.3408 15.4279C61.5274 14.9612 61.6208 14.5879 61.6208 14.3079C61.6954 13.8599 61.6208 13.5426 61.3968 13.3559C61.0608 12.9826 60.2954 12.9826 59.1008 13.3559C58.2794 13.6359 57.5794 13.9999 57.0008 14.4479C56.4221 14.8959 56.0487 15.3532 55.8807 15.8199C55.8061 16.0252 55.7967 16.2399 55.8527 16.4639C55.9087 16.6692 56.0581 16.9492 56.3007 17.3039C56.3941 17.4532 56.4874 17.6026 56.5808 17.7519C56.6741 17.9012 56.7394 18.0226 56.7768 18.1159L56.9168 18.3679L57.1968 17.9199C57.3648 17.6212 57.5701 17.2946 57.8128 16.9399C58.0554 16.5666 58.2794 16.2399 58.4848 15.9599C58.7088 15.6612 58.8581 15.4746 58.9328 15.3999C59.0821 15.2692 59.2314 15.2226 59.3808 15.2599C59.5488 15.2972 59.6794 15.3999 59.7728 15.5679C59.9408 15.8852 59.8474 16.1839 59.4928 16.4639C59.2501 16.6879 58.9141 17.0892 58.4848 17.6679C58.0741 18.2466 57.7101 18.8066 57.3927 19.3479L57.1968 19.6839V20.2999C57.1781 20.4866 57.1594 20.6639 57.1408 20.8319C57.1221 20.9812 57.1034 21.1026 57.0848 21.1959C56.9728 21.6439 56.7208 22.0826 56.3287 22.5119C56.1607 22.6986 56.0394 22.7266 55.9647 22.5959C55.9461 22.5399 55.9181 22.5119 55.8807 22.5119C55.8621 22.5119 55.8434 22.5026 55.8247 22.4839C55.8061 22.4652 55.7781 22.4372 55.7407 22.3999C55.5727 22.2319 55.5167 21.9706 55.5727 21.6159C55.6287 21.3546 55.7501 20.9906 55.9367 20.5239C56.1047 20.0572 56.3007 19.5906 56.5248 19.1239C56.5621 19.0306 56.5901 18.9559 56.6088 18.8999C56.6461 18.8439 56.6648 18.7972 56.6648 18.7599C56.6648 18.7226 56.6554 18.6852 56.6368 18.6479C56.5994 18.5359 56.5248 18.3866 56.4127 18.1999C56.2821 18.0132 56.1514 17.8359 56.0207 17.6679C55.7594 17.3506 55.5821 17.0799 55.4887 16.8559C55.3767 16.6132 55.3301 16.3612 55.3487 16.0999V16.0439C55.3674 15.9506 55.3861 15.8666 55.4047 15.7919C55.4234 15.6986 55.4421 15.6239 55.4607 15.5679C55.7221 14.9519 56.2261 14.3732 56.9728 13.8319C57.1781 13.6826 57.4581 13.5239 57.8128 13.3559C58.1861 13.1692 58.5034 13.0292 58.7648 12.9359C59.0821 12.8052 59.3528 12.7212 59.5768 12.6839C59.8194 12.6466 60.0901 12.6279 60.3888 12.6279C60.5568 12.6279 60.6781 12.6372 60.7528 12.6559C60.8461 12.6559 60.9114 12.6652 60.9488 12.6839C61.0048 12.6839 61.0608 12.6932 61.1168 12.7119C61.6021 12.8799 61.9008 13.1879 62.0128 13.6359C62.0314 13.7106 62.0408 13.8039 62.0408 13.9159C62.0594 14.0092 62.0594 14.1492 62.0408 14.3359C62.0408 14.6346 61.9941 14.9612 61.9008 15.3159C61.7141 15.6892 61.5274 15.7266 61.3408 15.4279ZM56.8608 20.4399L56.8888 20.4679C56.9261 20.2626 56.8421 20.3839 56.6368 20.8319C56.4874 21.1679 56.3847 21.4292 56.3287 21.6159C56.2727 21.7839 56.2541 21.9146 56.2727 22.0079C56.2727 22.0452 56.2821 22.0732 56.3007 22.0919C56.3007 22.1106 56.3007 22.1292 56.3007 22.1479C56.3007 22.1666 56.3007 22.1759 56.3007 22.1759C56.3007 22.1759 56.3101 22.1666 56.3287 22.1479C56.3474 22.1292 56.3754 22.1012 56.4127 22.0639C56.4314 22.0266 56.4594 21.9799 56.4968 21.9239C56.5714 21.7932 56.6368 21.6532 56.6928 21.5039C56.7488 21.3546 56.7861 21.1492 56.8048 20.8879C56.8234 20.7946 56.8328 20.7012 56.8328 20.6079C56.8514 20.5146 56.8608 20.4586 56.8608 20.4399ZM66.3401 15.5119L66.2841 15.5679C67.1241 15.7732 67.5907 16.3239 67.6841 17.2199C67.7214 17.9666 67.4507 18.8066 66.8721 19.7399C65.8267 21.2519 64.6601 21.8959 63.3721 21.6719C62.8307 21.5599 62.4574 21.3172 62.2521 20.9439L62.1401 20.7479L61.8041 21.3639L61.4961 22.0079V22.3439C61.4961 23.2586 61.2347 24.2946 60.7121 25.4519C60.5441 25.8439 60.3107 26.3012 60.0121 26.8239C59.6947 27.3279 59.3681 27.8226 59.0321 28.3079C58.9387 28.4572 58.7987 28.6346 58.6121 28.8399C58.4067 29.0452 58.2201 29.2319 58.0521 29.3999C57.8654 29.5679 57.7534 29.6519 57.7161 29.6519C57.6974 29.6519 57.6694 29.6332 57.6321 29.5959C57.5947 29.5772 57.5574 29.5492 57.5201 29.5119C57.5014 29.4932 57.4921 29.4839 57.4921 29.4839C57.4361 29.4466 57.3987 29.4092 57.3801 29.3719C57.3614 29.3532 57.3614 29.3066 57.3801 29.2319C57.3801 29.2132 57.3894 29.1852 57.4081 29.1479C57.4454 29.0172 57.4921 28.8772 57.5481 28.7279C57.6041 28.5972 57.7347 28.3172 57.9401 27.8879C58.1454 27.4586 58.3787 26.9919 58.6401 26.4879C58.8827 25.9839 59.1067 25.5452 59.3121 25.1719C59.4241 24.9479 59.5827 24.6492 59.7881 24.2759C59.9934 23.8839 60.1801 23.5012 60.3481 23.1279C60.3854 23.0346 60.4321 22.9506 60.4881 22.8759C60.6747 22.5399 60.8054 22.2879 60.8801 22.1199C60.9547 21.9332 61.0014 21.7839 61.0201 21.6719C61.0201 21.5599 61.0107 21.4106 60.9921 21.2239C60.9734 21.1679 60.9641 21.1119 60.9641 21.0559C60.9267 20.7386 60.9174 20.4212 60.9361 20.1039C60.9361 19.7679 60.9641 19.5066 61.0201 19.3199C61.2254 18.5359 61.6454 17.8266 62.2801 17.1919L62.6161 16.8559C62.6161 16.8559 62.6441 16.8372 62.7001 16.7999C62.7561 16.7439 62.8214 16.6879 62.8961 16.6319C62.9894 16.5759 63.0734 16.5199 63.1481 16.4639C63.6894 16.0532 64.2681 15.7546 64.8841 15.5679C65.0894 15.5119 65.3321 15.4839 65.6121 15.4839C65.9107 15.4652 66.1534 15.4746 66.3401 15.5119ZM61.0201 23.2119L61.0761 23.0159L60.7401 23.6879C60.6467 23.8746 60.5347 24.1172 60.4041 24.4159C60.2547 24.6959 60.1241 24.9666 60.0121 25.2279C59.7134 25.8252 59.4147 26.4319 59.1161 27.0479C58.8174 27.6452 58.5841 28.0932 58.4161 28.3919C58.3414 28.5039 58.2854 28.6066 58.2481 28.6999C58.1921 28.7932 58.1641 28.8399 58.1641 28.8399C58.1641 28.8399 58.1734 28.8306 58.1921 28.8119C58.2107 28.8119 58.2387 28.7839 58.2761 28.7279C58.3134 28.6906 58.3601 28.6252 58.4161 28.5319C59.0507 27.7292 59.6387 26.7492 60.1801 25.5919C60.6841 24.5839 60.9641 23.7906 61.0201 23.2119ZM62.0841 19.8799L62.1401 19.9359C62.3081 19.5812 62.4667 19.2452 62.6161 18.9279C62.7841 18.5919 62.9054 18.3399 62.9801 18.1719C63.0921 17.8919 63.1761 17.6492 63.2321 17.4439C63.3067 17.2386 63.3347 17.1172 63.3161 17.0799C63.2974 17.0612 63.2321 17.0986 63.1201 17.1919C63.0081 17.2852 62.8774 17.4066 62.7281 17.5559C62.5787 17.7052 62.4294 17.8639 62.2801 18.0319C62.1307 18.1812 62.0187 18.3119 61.9441 18.4239C61.5334 19.0586 61.3281 19.6466 61.3281 20.1879C61.3281 20.2999 61.3374 20.4306 61.3561 20.5799C61.3561 20.7292 61.3654 20.8599 61.3841 20.9719C61.4027 21.0652 61.4214 21.1119 61.4401 21.1119C61.4587 21.1119 61.5334 20.9906 61.6641 20.7479C61.7761 20.5052 61.9161 20.2159 62.0841 19.8799ZM66.0321 19.9359V19.9639C66.4427 19.5346 66.7601 19.0772 66.9841 18.5919C67.2267 18.0879 67.3387 17.6492 67.3201 17.2759C67.2641 16.6972 66.9841 16.3146 66.4801 16.1279C65.8641 15.9412 65.1081 16.0719 64.2121 16.5199C64.0814 16.5759 63.9974 16.6226 63.9601 16.6599C63.9414 16.6786 63.9507 16.7066 63.9881 16.7439C64.0067 16.7812 64.0067 16.8372 63.9881 16.9119C63.9881 16.9679 63.9601 17.0612 63.9041 17.1919C63.8667 17.3226 63.7827 17.5186 63.6521 17.7799C63.5401 18.0226 63.3814 18.3492 63.1761 18.7599C63.1574 18.7972 63.1387 18.8439 63.1201 18.8999C62.9894 19.1612 62.8774 19.3852 62.7841 19.5719C62.7094 19.7399 62.6441 19.8799 62.5881 19.9919C62.5321 20.1039 62.4947 20.1879 62.4761 20.2439C62.4574 20.2999 62.4481 20.3466 62.4481 20.3839C62.4481 20.4026 62.4574 20.4119 62.4761 20.4119C62.4947 20.4306 62.5227 20.4586 62.5601 20.4959C62.5974 20.5332 62.6347 20.5799 62.6721 20.6359C62.8027 20.8226 62.9987 20.9439 63.2601 20.9999C63.4094 21.0372 63.5774 21.0559 63.7641 21.0559C63.9694 21.0559 64.1654 21.0372 64.3521 20.9999C64.9494 20.8319 65.5094 20.4772 66.0321 19.9359ZM75.5385 17.5839V17.6399C75.5945 17.6586 75.6318 17.6959 75.6505 17.7519C75.6692 17.8079 75.6692 17.8639 75.6505 17.9199C75.6318 17.9572 75.5945 17.9666 75.5385 17.9479C74.7545 17.9479 73.5972 18.1346 72.0665 18.5079L71.2545 18.7039L71.1145 18.9559C70.9092 19.3852 70.6105 19.8239 70.2185 20.2719C69.8265 20.7199 69.4345 21.0932 69.0425 21.3919C68.2772 21.9706 67.7918 21.9986 67.5865 21.4759C67.5492 21.4199 67.5212 21.3639 67.5025 21.3079C67.4838 21.2519 67.4745 21.1866 67.4745 21.1119C67.4745 21.0372 67.4745 20.9346 67.4745 20.8039V20.3279C67.4745 20.3279 67.4932 20.2906 67.5305 20.2159C67.5492 20.1226 67.5772 20.0292 67.6145 19.9359C67.6518 19.8239 67.6892 19.7212 67.7265 19.6279C67.7638 19.5346 67.7918 19.4692 67.8105 19.4319C67.8478 19.3572 67.8945 19.2826 67.9505 19.2079C68.0065 19.1332 68.0532 19.0772 68.0905 19.0399L68.2585 18.8999L68.1465 18.7879C67.7732 18.3212 67.9785 17.6959 68.7625 16.9119C69.4158 16.3332 70.0318 16.0906 70.6105 16.1839C71.1145 16.2959 71.4318 16.5572 71.5625 16.9679C71.5998 17.0986 71.6092 17.2666 71.5905 17.4719C71.5905 17.6586 71.5625 17.8452 71.5065 18.0319C71.4692 18.1252 71.4412 18.1999 71.4225 18.2559C71.4225 18.3119 71.4318 18.3399 71.4505 18.3399C71.4692 18.3399 71.5532 18.3212 71.7025 18.2839C71.8518 18.2466 72.0385 18.1999 72.2625 18.1439C73.2145 17.8639 73.9052 17.7052 74.3345 17.6679C74.7265 17.6119 75.1278 17.5839 75.5385 17.5839ZM70.4985 19.0119L70.5825 18.8719L70.4985 18.8999C70.4238 18.9186 70.2932 18.9372 70.1065 18.9559C69.9385 18.9932 69.7798 19.0212 69.6305 19.0399C69.4812 19.0586 69.3598 19.0772 69.2665 19.0959L68.9865 19.1239V19.2639C68.9865 19.3012 68.9678 19.3572 68.9305 19.4319C68.9118 19.4879 68.8838 19.5439 68.8465 19.5999C68.7718 19.7306 68.6878 19.9079 68.5945 20.1319C68.5012 20.3559 68.4172 20.5799 68.3425 20.8039C68.2678 21.0092 68.2305 21.1492 68.2305 21.2239C68.2305 21.2799 68.3518 21.2239 68.5945 21.0559C68.8745 20.8692 69.2105 20.5612 69.6025 20.1319C69.9945 19.7026 70.2932 19.3292 70.4985 19.0119ZM71.0025 18.1439H70.9745C71.3852 17.3412 71.3198 16.8839 70.7785 16.7719C70.6292 16.7346 70.4518 16.7252 70.2465 16.7439C70.0412 16.7626 69.8732 16.7999 69.7425 16.8559C69.3505 17.0239 69.0145 17.2759 68.7345 17.6119C68.4545 17.9479 68.3425 18.2279 68.3985 18.4519C68.5105 18.7319 69.0612 18.7972 70.0505 18.6479C70.0878 18.6479 70.1345 18.6386 70.1905 18.6199C70.3958 18.6012 70.5452 18.5826 70.6385 18.5639C70.7318 18.5266 70.7972 18.4799 70.8345 18.4239C70.8905 18.3679 70.9465 18.2839 71.0025 18.1719C71.0025 18.1532 71.0025 18.1439 71.0025 18.1439ZM101.604 5.20791L101.492 5.26391C100.839 6.68257 100.092 8.19457 99.2521 9.79991C98.4121 11.3866 97.1988 13.5799 95.6121 16.3799C95.4441 16.6599 95.3041 16.9026 95.1921 17.1079C95.0988 17.3132 95.0521 17.4252 95.0521 17.4439C95.0521 17.4626 95.0708 17.5092 95.1081 17.5839C95.1641 17.6399 95.2201 17.7052 95.2761 17.7799C95.3508 17.8546 95.4068 17.9199 95.4441 17.9759C95.5001 18.0319 95.5374 18.0599 95.5561 18.0599C95.6121 18.0599 95.8641 17.9479 96.3121 17.7239C96.7601 17.4999 97.2641 17.2479 97.8241 16.9679C98.3841 16.6692 98.8881 16.3986 99.3361 16.1559C101.445 14.9799 103.536 13.6266 105.608 12.0959C107.68 10.5652 109.444 9.09057 110.9 7.67191C112.711 5.84257 113.924 4.16257 114.54 2.63191C114.615 2.44524 114.671 2.27724 114.708 2.12791C114.764 1.95991 114.82 1.76391 114.876 1.53991C114.913 1.31591 114.951 1.15724 114.988 1.06391C115.044 0.970574 115.109 0.90524 115.184 0.867906C115.259 0.830573 115.343 0.811907 115.436 0.811907C115.529 0.811907 115.613 0.839907 115.688 0.895907C116.08 1.25057 116.015 1.88524 115.492 2.79991C114.559 4.44257 113.112 6.23457 111.152 8.17591C106.541 12.7306 101.753 16.1372 96.7881 18.3959C96.6761 18.4519 96.5734 18.4986 96.4801 18.5359C96.2374 18.6479 96.1161 18.7226 96.1161 18.7599C96.1161 18.7786 96.2094 18.9092 96.3961 19.1519C96.5828 19.3946 96.7974 19.6652 97.0401 19.9639C97.3014 20.2626 97.5534 20.5519 97.7961 20.8319C98.0761 21.1306 98.4121 21.4759 98.8041 21.8679C99.2148 22.2599 99.5601 22.5772 99.8401 22.8199C100.344 23.2492 100.969 23.7346 101.716 24.2759C102.481 24.7986 103.508 25.4799 104.796 26.3199C105.543 26.8052 106.327 27.3092 107.148 27.8319C107.988 28.3546 108.548 28.6999 108.828 28.8679C108.94 28.9426 109.043 29.0079 109.136 29.0639C109.211 29.1012 109.257 29.1292 109.276 29.1479C109.5 29.3159 109.612 29.5306 109.612 29.7919C109.631 29.8666 109.631 29.9319 109.612 29.9879C109.593 30.0439 109.565 30.1092 109.528 30.1839C109.528 30.2026 109.528 30.2119 109.528 30.2119C109.435 30.3986 109.304 30.5199 109.136 30.5759C108.968 30.6319 108.791 30.6226 108.604 30.5479C108.548 30.5106 108.473 30.4546 108.38 30.3799C108.305 30.3052 108.231 30.2212 108.156 30.1279C107.521 29.5119 105.655 28.0932 102.556 25.8719C101.529 25.1626 100.736 24.5932 100.176 24.1639C99.6161 23.7159 99.0934 23.2679 98.6081 22.8199C97.6934 21.9612 96.7694 20.9252 95.8361 19.7119L95.3041 18.9839L95.0801 19.0679C95.0241 19.1052 94.9214 19.1519 94.7721 19.2079C94.6414 19.2639 94.5014 19.3199 94.3521 19.3759L93.8201 19.5719L93.4841 20.1599C92.1401 22.5306 91.0948 24.4906 90.3481 26.0399C90.0308 26.7306 89.7788 27.2066 89.5921 27.4679C89.4054 27.7106 89.2094 27.8506 89.0041 27.8879C88.8548 27.9439 88.7148 27.9252 88.5841 27.8319C88.4534 27.7386 88.3601 27.5986 88.3041 27.4119C88.2108 27.0572 88.2948 26.5812 88.5561 25.9839C88.6681 25.6852 88.9014 25.2466 89.2561 24.6679C89.6108 24.0706 90.1988 23.1279 91.0201 21.8399C91.3374 21.3732 91.5988 20.9719 91.8041 20.6359C92.0281 20.2999 92.1401 20.1319 92.1401 20.1319C92.1401 20.1319 92.0934 20.1412 92.0001 20.1599C91.9254 20.1786 91.8414 20.2066 91.7481 20.2439C88.8921 21.0652 86.6521 21.2706 85.0281 20.8599C84.1881 20.6172 83.6468 20.1319 83.4041 19.4039C83.3481 19.1799 83.3388 18.9092 83.3761 18.5919C83.3948 18.2746 83.4694 17.9759 83.6001 17.6959C83.9921 16.7999 84.7014 15.9506 85.7281 15.1479C86.7734 14.3452 87.8654 13.7946 89.0041 13.4959C89.0041 13.4959 89.0134 13.4959 89.0321 13.4959C89.1814 13.4586 89.3121 13.4306 89.4241 13.4119C89.5548 13.3932 89.7694 13.3839 90.0681 13.3839C90.2734 13.3839 90.4228 13.3839 90.5161 13.3839C90.6281 13.3839 90.7214 13.3932 90.7961 13.4119C90.8708 13.4306 90.9454 13.4492 91.0201 13.4679C91.9348 13.7106 92.9334 14.5412 94.0161 15.9599C94.0534 15.9972 94.0814 16.0346 94.1001 16.0719C94.1934 16.2026 94.2681 16.3052 94.3241 16.3799C94.3988 16.4546 94.4454 16.4919 94.4641 16.4919C94.5014 16.4732 94.6881 16.1932 95.0241 15.6519C95.3601 15.0919 95.7614 14.4106 96.2281 13.6079C96.7134 12.7866 97.1708 11.9932 97.6001 11.2279C98.7574 9.11857 99.7374 7.10257 100.54 5.17991C100.652 4.89991 100.792 4.53591 100.96 4.08791C101.128 3.63991 101.277 3.21991 101.408 2.82791C101.539 2.43591 101.623 2.18391 101.66 2.07191C101.697 1.88524 101.735 1.74524 101.772 1.65191C101.809 1.55857 101.847 1.48391 101.884 1.42791C102.108 1.20391 102.341 1.11991 102.584 1.17591C102.845 1.23191 103.023 1.39991 103.116 1.67991C103.153 1.79191 103.163 1.89457 103.144 1.98791C103.125 2.08124 103.079 2.21191 103.004 2.37991C102.929 2.54791 102.817 2.78124 102.668 3.07991C102.537 3.34124 102.369 3.66791 102.164 4.05991C101.959 4.45191 101.772 4.83457 101.604 5.20791ZM93.3721 18.2279V18.1999C93.5214 17.9572 93.6521 17.7426 93.7641 17.5559C93.9321 17.2946 94.0161 17.1546 94.0161 17.1359C94.0161 17.1359 93.9788 17.0799 93.9041 16.9679C93.8294 16.8559 93.7454 16.7252 93.6521 16.5759C92.7374 15.2692 91.9161 14.4759 91.1881 14.1959C90.4601 13.8599 89.5921 13.8599 88.5841 14.1959C88.3228 14.2892 88.0054 14.4292 87.6321 14.6159C87.2588 14.8026 86.9134 14.9986 86.5961 15.2039C85.1588 16.1746 84.2814 17.1546 83.9641 18.1439C83.9081 18.2746 83.8801 18.3866 83.8801 18.4799C83.8614 18.5546 83.8521 18.6666 83.8521 18.8159C83.8708 18.9466 83.8894 19.0586 83.9081 19.1519C83.9268 19.2266 83.9548 19.3012 83.9921 19.3759C84.4961 20.2346 85.8961 20.5612 88.1921 20.3559C89.4241 20.2252 90.7774 19.8986 92.2521 19.3759L92.7281 19.2359L93.3721 18.2279ZM94.6041 18.4799L94.5761 18.4239C94.6508 18.3866 94.7068 18.3586 94.7441 18.3399C94.8001 18.3212 94.8281 18.3026 94.8281 18.2839C94.8281 18.2652 94.8188 18.2466 94.8001 18.2279C94.7814 18.2092 94.7534 18.1812 94.7161 18.1439L94.6321 18.0039L94.4921 18.2559C94.4548 18.3119 94.4268 18.3679 94.4081 18.4239C94.3894 18.4612 94.3801 18.4892 94.3801 18.5079C94.3801 18.5266 94.3988 18.5359 94.4361 18.5359C94.4921 18.5172 94.5481 18.4986 94.6041 18.4799ZM115.726 18.0319H115.754C115.885 17.9759 115.997 17.9852 116.09 18.0599C116.202 18.1159 116.258 18.2186 116.258 18.3679C116.258 18.4986 116.174 18.6106 116.006 18.7039C115.913 18.7599 115.81 18.8066 115.698 18.8439C114.671 19.2732 113.869 19.5999 113.29 19.8239C112.73 20.0479 112.301 20.2066 112.002 20.2999C111.722 20.3932 111.479 20.4586 111.274 20.4959C110.639 20.6079 110.173 20.4959 109.874 20.1599C109.594 19.8426 109.51 19.3946 109.622 18.8159C109.659 18.6292 109.706 18.4146 109.762 18.1719C109.837 17.9292 109.921 17.7146 110.014 17.5279C110.033 17.4719 110.042 17.4252 110.042 17.3879C110.061 17.3506 110.07 17.3319 110.07 17.3319C110.07 17.3319 110.033 17.3599 109.958 17.4159C109.902 17.4719 109.827 17.5372 109.734 17.6119L109.398 17.9199V18.1439C109.286 18.8906 109.043 19.2639 108.67 19.2639C108.595 19.2639 108.521 19.2359 108.446 19.1799C108.371 19.1239 108.315 19.0492 108.278 18.9559C108.278 18.9372 108.269 18.9279 108.25 18.9279C108.25 18.9092 108.241 18.9092 108.222 18.9279C108.203 18.9466 108.166 18.9746 108.11 19.0119C108.054 19.0492 107.979 19.1052 107.886 19.1799C107.793 19.2546 107.671 19.3479 107.522 19.4599C106.925 19.9266 106.439 20.2999 106.066 20.5799C105.693 20.8599 105.347 21.0839 105.03 21.2519C103.929 21.8679 103.219 21.8212 102.902 21.1119C102.79 20.8319 102.771 20.4959 102.846 20.1039C103.163 18.8532 104.115 17.6119 105.702 16.3799C106.934 15.4652 107.914 15.2879 108.642 15.8479C108.866 16.0159 109.025 16.2492 109.118 16.5479C109.155 16.6412 109.183 16.7252 109.202 16.7999C109.239 16.8559 109.267 16.8839 109.286 16.8839C109.323 16.8839 109.426 16.8186 109.594 16.6879C109.762 16.5386 109.949 16.3706 110.154 16.1839C110.359 15.9786 110.555 15.7919 110.742 15.6239C110.929 15.4559 111.05 15.3346 111.106 15.2599C111.293 15.0172 111.479 14.8959 111.666 14.8959C111.946 14.8959 112.086 15.0826 112.086 15.4559C112.067 15.5306 112.03 15.6146 111.974 15.7079C111.937 15.7826 111.881 15.8852 111.806 16.0159C111.657 16.2772 111.489 16.5946 111.302 16.9679C111.115 17.3412 110.966 17.6679 110.854 17.9479C110.761 18.1719 110.677 18.4239 110.602 18.7039C110.527 18.9652 110.471 19.1706 110.434 19.3199C110.415 19.6746 110.714 19.7866 111.33 19.6559C111.647 19.5999 112.077 19.4786 112.618 19.2919C113.159 19.0866 113.953 18.7599 114.998 18.3119C115.259 18.2372 115.502 18.1439 115.726 18.0319ZM107.69 18.2279L107.718 18.2559C107.886 18.1252 108.017 18.0226 108.11 17.9479C108.203 17.8732 108.269 17.8172 108.306 17.7799C108.343 17.7239 108.362 17.6866 108.362 17.6679C108.381 17.6306 108.39 17.6026 108.39 17.5839C108.39 17.5279 108.381 17.4812 108.362 17.4439C108.362 17.4066 108.325 17.3599 108.25 17.3039C107.858 17.0052 107.251 17.1359 106.43 17.6959C106.169 17.8826 105.851 18.1626 105.478 18.5359C105.123 18.9092 104.834 19.2359 104.61 19.5159C104.461 19.7399 104.311 19.9639 104.162 20.1879C104.031 20.4119 103.966 20.5519 103.966 20.6079C103.966 20.6639 104.162 20.5986 104.554 20.4119C105.133 20.1319 106.178 19.4039 107.69 18.2279ZM119.879 15.5119L119.823 15.5679C120.663 15.7732 121.13 16.3239 121.223 17.2199C121.26 17.9666 120.99 18.8066 120.411 19.7399C119.366 21.2519 118.199 21.8959 116.911 21.6719C116.37 21.5599 115.996 21.3172 115.791 20.9439L115.679 20.7479L115.343 21.3639L115.035 22.0079V22.3439C115.035 23.2586 114.774 24.2946 114.251 25.4519C114.083 25.8439 113.85 26.3012 113.551 26.8239C113.234 27.3279 112.907 27.8226 112.571 28.3079C112.478 28.4572 112.338 28.6346 112.151 28.8399C111.946 29.0452 111.759 29.2319 111.591 29.3999C111.404 29.5679 111.292 29.6519 111.255 29.6519C111.236 29.6519 111.208 29.6332 111.171 29.5959C111.134 29.5772 111.096 29.5492 111.059 29.5119C111.04 29.4932 111.031 29.4839 111.031 29.4839C110.975 29.4466 110.938 29.4092 110.919 29.3719C110.9 29.3532 110.9 29.3066 110.919 29.2319C110.919 29.2132 110.928 29.1852 110.947 29.1479C110.984 29.0172 111.031 28.8772 111.087 28.7279C111.143 28.5972 111.274 28.3172 111.479 27.8879C111.684 27.4586 111.918 26.9919 112.179 26.4879C112.422 25.9839 112.646 25.5452 112.851 25.1719C112.963 24.9479 113.122 24.6492 113.327 24.2759C113.532 23.8839 113.719 23.5012 113.887 23.1279C113.924 23.0346 113.971 22.9506 114.027 22.8759C114.214 22.5399 114.344 22.2879 114.419 22.1199C114.494 21.9332 114.54 21.7839 114.559 21.6719C114.559 21.5599 114.55 21.4106 114.531 21.2239C114.512 21.1679 114.503 21.1119 114.503 21.0559C114.466 20.7386 114.456 20.4212 114.475 20.1039C114.475 19.7679 114.503 19.5066 114.559 19.3199C114.764 18.5359 115.184 17.8266 115.819 17.1919L116.155 16.8559C116.155 16.8559 116.183 16.8372 116.239 16.7999C116.295 16.7439 116.36 16.6879 116.435 16.6319C116.528 16.5759 116.612 16.5199 116.687 16.4639C117.228 16.0532 117.807 15.7546 118.423 15.5679C118.628 15.5119 118.871 15.4839 119.151 15.4839C119.45 15.4652 119.692 15.4746 119.879 15.5119ZM114.559 23.2119L114.615 23.0159L114.279 23.6879C114.186 23.8746 114.074 24.1172 113.943 24.4159C113.794 24.6959 113.663 24.9666 113.551 25.2279C113.252 25.8252 112.954 26.4319 112.655 27.0479C112.356 27.6452 112.123 28.0932 111.955 28.3919C111.88 28.5039 111.824 28.6066 111.787 28.6999C111.731 28.7932 111.703 28.8399 111.703 28.8399C111.703 28.8399 111.712 28.8306 111.731 28.8119C111.75 28.8119 111.778 28.7839 111.815 28.7279C111.852 28.6906 111.899 28.6252 111.955 28.5319C112.59 27.7292 113.178 26.7492 113.719 25.5919C114.223 24.5839 114.503 23.7906 114.559 23.2119ZM115.623 19.8799L115.679 19.9359C115.847 19.5812 116.006 19.2452 116.155 18.9279C116.323 18.5919 116.444 18.3399 116.519 18.1719C116.631 17.8919 116.715 17.6492 116.771 17.4439C116.846 17.2386 116.874 17.1172 116.855 17.0799C116.836 17.0612 116.771 17.0986 116.659 17.1919C116.547 17.2852 116.416 17.4066 116.267 17.5559C116.118 17.7052 115.968 17.8639 115.819 18.0319C115.67 18.1812 115.558 18.3119 115.483 18.4239C115.072 19.0586 114.867 19.6466 114.867 20.1879C114.867 20.2999 114.876 20.4306 114.895 20.5799C114.895 20.7292 114.904 20.8599 114.923 20.9719C114.942 21.0652 114.96 21.1119 114.979 21.1119C114.998 21.1119 115.072 20.9906 115.203 20.7479C115.315 20.5052 115.455 20.2159 115.623 19.8799ZM119.571 19.9359V19.9639C119.982 19.5346 120.299 19.0772 120.523 18.5919C120.766 18.0879 120.878 17.6492 120.859 17.2759C120.803 16.6972 120.523 16.3146 120.019 16.1279C119.403 15.9412 118.647 16.0719 117.751 16.5199C117.62 16.5759 117.536 16.6226 117.499 16.6599C117.48 16.6786 117.49 16.7066 117.527 16.7439C117.546 16.7812 117.546 16.8372 117.527 16.9119C117.527 16.9679 117.499 17.0612 117.443 17.1919C117.406 17.3226 117.322 17.5186 117.191 17.7799C117.079 18.0226 116.92 18.3492 116.715 18.7599C116.696 18.7972 116.678 18.8439 116.659 18.8999C116.528 19.1612 116.416 19.3852 116.323 19.5719C116.248 19.7399 116.183 19.8799 116.127 19.9919C116.071 20.1039 116.034 20.1879 116.015 20.2439C115.996 20.2999 115.987 20.3466 115.987 20.3839C115.987 20.4026 115.996 20.4119 116.015 20.4119C116.034 20.4306 116.062 20.4586 116.099 20.4959C116.136 20.5332 116.174 20.5799 116.211 20.6359C116.342 20.8226 116.538 20.9439 116.799 20.9999C116.948 21.0372 117.116 21.0559 117.303 21.0559C117.508 21.0559 117.704 21.0372 117.891 20.9999C118.488 20.8319 119.048 20.4772 119.571 19.9359ZM130.674 18.2559L130.646 18.1999C130.72 18.1812 130.767 18.1999 130.786 18.2559C130.823 18.2932 130.823 18.3492 130.786 18.4239C130.767 18.4986 130.72 18.5639 130.646 18.6199C130.496 18.7132 130.338 18.8159 130.17 18.9279C129.292 19.4879 128.592 19.8986 128.07 20.1599C127.566 20.4212 127.108 20.5986 126.698 20.6919C126.268 20.7666 125.904 20.7386 125.606 20.6079C125.326 20.4772 125.158 20.2532 125.102 19.9359C125.102 19.8612 125.139 19.7212 125.214 19.5159C125.307 19.2919 125.41 19.0399 125.522 18.7599C125.634 18.4986 125.736 18.2559 125.83 18.0319C125.923 17.7892 125.988 17.5932 126.026 17.4439C126.082 17.2386 126.119 17.0892 126.138 16.9959C126.156 16.9026 126.147 16.8559 126.11 16.8559C126.091 16.8559 126.044 16.8746 125.97 16.9119C125.596 17.0239 125.102 17.3506 124.486 17.8919C124.187 18.1159 123.87 18.3772 123.534 18.6759C123.198 18.9746 122.759 19.3946 122.218 19.9359C121.9 20.2532 121.639 20.5146 121.434 20.7199C121.266 20.8692 121.172 20.9626 121.154 20.9999C120.986 21.0932 120.846 21.0932 120.734 20.9999C120.622 20.9066 120.575 20.7666 120.594 20.5799C120.612 20.4306 120.687 20.1972 120.818 19.8799C120.93 19.5439 121.07 19.1799 121.238 18.7879C121.406 18.4146 121.555 18.0319 121.686 17.6399C121.816 17.2479 121.919 16.9212 121.994 16.6599C122.087 16.3799 122.134 16.2399 122.134 16.2399L122.246 15.9039C122.376 15.5492 122.526 15.3252 122.694 15.2319C122.974 15.0826 123.226 15.1479 123.45 15.4279C123.487 15.5026 123.506 15.6239 123.506 15.7919C123.524 15.9412 123.515 16.0626 123.478 16.1559C123.44 16.1932 123.394 16.2679 123.338 16.3799C123.282 16.4919 123.226 16.6226 123.17 16.7719C123.076 16.9212 122.955 17.1546 122.806 17.4719C122.656 17.7706 122.507 18.0879 122.358 18.4239C122.208 18.7412 122.078 19.0212 121.966 19.2639C121.872 19.4879 121.826 19.5999 121.826 19.5999C121.844 19.5812 121.872 19.5626 121.91 19.5439C121.947 19.5066 122.003 19.4599 122.078 19.4039C122.152 19.3479 122.236 19.2732 122.33 19.1799C122.442 19.0866 122.572 18.9746 122.722 18.8439C122.871 18.7132 123.048 18.5546 123.254 18.3679C123.72 17.9386 124.094 17.6212 124.374 17.4159C124.654 17.1919 124.915 17.0052 125.158 16.8559C125.848 16.4079 126.296 16.2772 126.502 16.4639C126.614 16.5572 126.67 16.7066 126.67 16.9119C126.67 17.0986 126.623 17.3972 126.53 17.8079C126.436 18.1439 126.315 18.4986 126.166 18.8719C126.035 19.1892 125.932 19.4692 125.858 19.7119C125.802 19.9359 125.82 20.0759 125.914 20.1319C126.25 20.2999 126.828 20.2252 127.65 19.9079C128.154 19.7212 128.91 19.3199 129.918 18.7039C130.104 18.5919 130.272 18.4892 130.422 18.3959C130.515 18.3399 130.599 18.2932 130.674 18.2559ZM141.949 18.0319H141.977C142.107 17.9759 142.219 17.9852 142.313 18.0599C142.425 18.1159 142.481 18.2186 142.481 18.3679C142.481 18.4986 142.397 18.6106 142.229 18.7039C142.135 18.7599 142.033 18.8066 141.921 18.8439C140.894 19.2732 140.091 19.5999 139.513 19.8239C138.953 20.0479 138.523 20.2066 138.225 20.2999C137.945 20.3932 137.702 20.4586 137.497 20.4959C136.862 20.6079 136.395 20.4959 136.097 20.1599C135.817 19.8426 135.733 19.3946 135.845 18.8159C135.882 18.6292 135.929 18.4146 135.985 18.1719C136.059 17.9292 136.143 17.7146 136.237 17.5279C136.255 17.4719 136.265 17.4252 136.265 17.3879C136.283 17.3506 136.293 17.3319 136.293 17.3319C136.293 17.3319 136.255 17.3599 136.181 17.4159C136.125 17.4719 136.05 17.5372 135.957 17.6119L135.621 17.9199V18.1439C135.509 18.8906 135.266 19.2639 134.893 19.2639C134.818 19.2639 134.743 19.2359 134.669 19.1799C134.594 19.1239 134.538 19.0492 134.501 18.9559C134.501 18.9372 134.491 18.9279 134.473 18.9279C134.473 18.9092 134.463 18.9092 134.445 18.9279C134.426 18.9466 134.389 18.9746 134.333 19.0119C134.277 19.0492 134.202 19.1052 134.109 19.1799C134.015 19.2546 133.894 19.3479 133.745 19.4599C133.147 19.9266 132.662 20.2999 132.289 20.5799C131.915 20.8599 131.57 21.0839 131.253 21.2519C130.151 21.8679 129.442 21.8212 129.125 21.1119C129.013 20.8319 128.994 20.4959 129.069 20.1039C129.386 18.8532 130.338 17.6119 131.925 16.3799C133.157 15.4652 134.137 15.2879 134.865 15.8479C135.089 16.0159 135.247 16.2492 135.341 16.5479C135.378 16.6412 135.406 16.7252 135.425 16.7999C135.462 16.8559 135.49 16.8839 135.509 16.8839C135.546 16.8839 135.649 16.8186 135.817 16.6879C135.985 16.5386 136.171 16.3706 136.377 16.1839C136.582 15.9786 136.778 15.7919 136.965 15.6239C137.151 15.4559 137.273 15.3346 137.329 15.2599C137.515 15.0172 137.702 14.8959 137.889 14.8959C138.169 14.8959 138.309 15.0826 138.309 15.4559C138.29 15.5306 138.253 15.6146 138.197 15.7079C138.159 15.7826 138.103 15.8852 138.029 16.0159C137.879 16.2772 137.711 16.5946 137.525 16.9679C137.338 17.3412 137.189 17.6679 137.077 17.9479C136.983 18.1719 136.899 18.4239 136.825 18.7039C136.75 18.9652 136.694 19.1706 136.657 19.3199C136.638 19.6746 136.937 19.7866 137.553 19.6559C137.87 19.5999 138.299 19.4786 138.841 19.2919C139.382 19.0866 140.175 18.7599 141.221 18.3119C141.482 18.2372 141.725 18.1439 141.949 18.0319ZM133.913 18.2279L133.941 18.2559C134.109 18.1252 134.239 18.0226 134.333 17.9479C134.426 17.8732 134.491 17.8172 134.529 17.7799C134.566 17.7239 134.585 17.6866 134.585 17.6679C134.603 17.6306 134.613 17.6026 134.613 17.5839C134.613 17.5279 134.603 17.4812 134.585 17.4439C134.585 17.4066 134.547 17.3599 134.473 17.3039C134.081 17.0052 133.474 17.1359 132.653 17.6959C132.391 17.8826 132.074 18.1626 131.701 18.5359C131.346 18.9092 131.057 19.2359 130.833 19.5159C130.683 19.7399 130.534 19.9639 130.385 20.1879C130.254 20.4119 130.189 20.5519 130.189 20.6079C130.189 20.6639 130.385 20.5986 130.777 20.4119C131.355 20.1319 132.401 19.4039 133.913 18.2279ZM145.346 17.6119C145.234 17.6679 145.131 17.7052 145.038 17.7239C144.963 17.7426 144.898 17.7612 144.842 17.7799C144.804 17.7799 144.767 17.7799 144.73 17.7799C144.692 17.7612 144.655 17.7426 144.618 17.7239C144.412 17.5746 144.31 17.3599 144.31 17.0799C144.31 17.0239 144.319 16.9399 144.338 16.8279C144.356 16.6972 144.375 16.5759 144.394 16.4639C144.431 16.2959 144.459 16.1559 144.478 16.0439C144.515 15.9319 144.534 15.8479 144.534 15.7919C144.552 15.7359 144.562 15.6892 144.562 15.6519V15.6239C144.506 15.5866 144.356 15.6612 144.114 15.8479C143.89 16.0346 143.628 16.2866 143.33 16.6039C142.546 17.3879 141.883 18.1252 141.342 18.8159C140.8 19.4879 140.418 19.8052 140.194 19.7679C140.082 19.7306 140.072 19.6466 140.166 19.5159C140.39 19.1986 140.595 18.9092 140.782 18.6479C140.95 18.3866 141.146 18.1066 141.37 17.8079C141.631 17.4906 141.986 17.1079 142.434 16.6599C142.9 16.1932 143.348 15.7732 143.778 15.3999C144.207 15.0079 144.515 14.7559 144.702 14.6439C145 14.5132 145.224 14.5879 145.374 14.8679C145.504 15.0546 145.458 15.3719 145.234 15.8199C145.066 16.2119 144.935 16.5479 144.842 16.8279C144.767 17.0892 144.739 17.2479 144.758 17.3039C144.776 17.3599 144.842 17.3879 144.954 17.3879C145.084 17.3692 145.234 17.3226 145.402 17.2479C145.588 17.1732 145.803 17.0612 146.046 16.9119C146.102 16.8746 146.167 16.8279 146.242 16.7719C146.988 16.1559 147.39 15.8572 147.446 15.8759C147.52 15.8946 147.567 15.9226 147.586 15.9599C147.679 16.1092 147.558 16.3239 147.222 16.6039C147.035 16.7906 146.652 17.1359 146.074 17.6399C145.495 18.1439 145.047 18.6852 144.73 19.2639C144.412 19.8426 144.235 20.2439 144.198 20.4679C144.16 20.5986 144.151 20.7012 144.17 20.7759V20.8879C144.244 21.5599 144.748 21.8959 145.682 21.8959C147.063 21.8959 149.294 20.9346 152.374 19.0119C152.952 18.6946 153.316 18.5079 153.466 18.4519C153.503 18.4519 153.531 18.4799 153.55 18.5359C153.55 18.6106 153.512 18.6946 153.438 18.7879C151.963 19.7212 150.647 20.5052 149.49 21.1399C147.884 22.0172 146.568 22.4559 145.542 22.4559C144.478 22.4559 143.796 21.9426 143.498 20.9159C143.423 20.4119 143.46 20.0199 143.61 19.7399C143.796 19.2172 144.17 18.6946 144.73 18.1719L145.346 17.6119ZM160.578 17.5839V17.6399C160.634 17.6586 160.671 17.6959 160.69 17.7519C160.708 17.8079 160.708 17.8639 160.69 17.9199C160.671 17.9572 160.634 17.9666 160.578 17.9479C159.794 17.9479 158.636 18.1346 157.106 18.5079L156.294 18.7039L156.154 18.9559C155.948 19.3852 155.65 19.8239 155.258 20.2719C154.866 20.7199 154.474 21.0932 154.082 21.3919C153.316 21.9706 152.831 21.9986 152.626 21.4759C152.588 21.4199 152.56 21.3639 152.542 21.3079C152.523 21.2519 152.514 21.1866 152.514 21.1119C152.514 21.0372 152.514 20.9346 152.514 20.8039V20.3279C152.514 20.3279 152.532 20.2906 152.57 20.2159C152.588 20.1226 152.616 20.0292 152.654 19.9359C152.691 19.8239 152.728 19.7212 152.766 19.6279C152.803 19.5346 152.831 19.4692 152.85 19.4319C152.887 19.3572 152.934 19.2826 152.99 19.2079C153.046 19.1332 153.092 19.0772 153.13 19.0399L153.298 18.8999L153.186 18.7879C152.812 18.3212 153.018 17.6959 153.802 16.9119C154.455 16.3332 155.071 16.0906 155.65 16.1839C156.154 16.2959 156.471 16.5572 156.602 16.9679C156.639 17.0986 156.648 17.2666 156.63 17.4719C156.63 17.6586 156.602 17.8452 156.546 18.0319C156.508 18.1252 156.48 18.1999 156.462 18.2559C156.462 18.3119 156.471 18.3399 156.49 18.3399C156.508 18.3399 156.592 18.3212 156.742 18.2839C156.891 18.2466 157.078 18.1999 157.302 18.1439C158.254 17.8639 158.944 17.7052 159.374 17.6679C159.766 17.6119 160.167 17.5839 160.578 17.5839ZM155.538 19.0119L155.622 18.8719L155.538 18.8999C155.463 18.9186 155.332 18.9372 155.146 18.9559C154.978 18.9932 154.819 19.0212 154.67 19.0399C154.52 19.0586 154.399 19.0772 154.306 19.0959L154.026 19.1239V19.2639C154.026 19.3012 154.007 19.3572 153.97 19.4319C153.951 19.4879 153.923 19.5439 153.886 19.5999C153.811 19.7306 153.727 19.9079 153.634 20.1319C153.54 20.3559 153.456 20.5799 153.382 20.8039C153.307 21.0092 153.27 21.1492 153.27 21.2239C153.27 21.2799 153.391 21.2239 153.634 21.0559C153.914 20.8692 154.25 20.5612 154.642 20.1319C155.034 19.7026 155.332 19.3292 155.538 19.0119ZM156.042 18.1439H156.014C156.424 17.3412 156.359 16.8839 155.818 16.7719C155.668 16.7346 155.491 16.7252 155.286 16.7439C155.08 16.7626 154.912 16.7999 154.782 16.8559C154.39 17.0239 154.054 17.2759 153.774 17.6119C153.494 17.9479 153.382 18.2279 153.438 18.4519C153.55 18.7319 154.1 18.7972 155.09 18.6479C155.127 18.6479 155.174 18.6386 155.23 18.6199C155.435 18.6012 155.584 18.5826 155.678 18.5639C155.771 18.5266 155.836 18.4799 155.874 18.4239C155.93 18.3679 155.986 18.2839 156.042 18.1719C156.042 18.1532 156.042 18.1439 156.042 18.1439ZM171.444 5.71191L171.388 5.68391C171.444 5.81457 171.472 6.00124 171.472 6.24391C171.49 6.48657 171.481 6.71991 171.444 6.94391C171.276 7.63457 170.986 8.41857 170.576 9.29591C169.53 11.4612 168.14 13.4119 166.404 15.1479C166.124 15.4279 165.881 15.6612 165.676 15.8479C165.489 16.0159 165.284 16.1932 165.06 16.3799C165.041 16.3986 165.022 16.4172 165.004 16.4359L164.724 16.6599L165.06 16.6879C165.19 16.6879 165.284 16.6972 165.34 16.7159C165.414 16.7159 165.489 16.7346 165.564 16.7719C165.937 16.9399 166.18 17.2479 166.292 17.6959C166.366 18.1812 166.264 18.7879 165.984 19.5159C165.666 20.3932 165.078 21.2519 164.22 22.0919C163.249 23.0626 162.334 23.7066 161.476 24.0239C161.308 24.0986 161.13 24.1452 160.944 24.1639C160.757 24.1639 160.598 24.1359 160.468 24.0799C160.094 23.9119 159.908 23.6599 159.908 23.3239C159.908 23.2306 159.926 23.1466 159.964 23.0719C159.982 22.9972 160.029 22.9226 160.104 22.8479C160.29 22.6239 160.477 22.5586 160.664 22.6519C160.701 22.6706 160.729 22.6892 160.748 22.7079C160.785 22.7079 160.822 22.6986 160.86 22.6799C160.916 22.6612 160.99 22.6426 161.084 22.6239C162.26 22.3626 163.296 21.7746 164.192 20.8599C164.696 20.3746 165.078 19.8426 165.34 19.2639C165.806 18.3306 165.872 17.6959 165.536 17.3599C165.088 16.9866 164.416 17.1266 163.52 17.7799C162.96 18.2279 162.4 18.8066 161.84 19.5159C161.28 20.2252 160.897 20.8599 160.692 21.4199L160.636 21.6159L160.692 21.7279C160.804 21.8772 160.794 22.0546 160.664 22.2599C160.589 22.4279 160.458 22.5212 160.272 22.5399C160.085 22.5586 159.898 22.4652 159.712 22.2599C159.525 22.0546 159.404 21.7839 159.348 21.4479C159.292 21.2052 159.273 20.8972 159.292 20.5239C159.31 20.1506 159.366 19.7866 159.46 19.4319C159.46 19.3946 159.469 19.3386 159.488 19.2639C159.506 19.1706 159.525 19.0772 159.544 18.9839C159.562 18.9279 159.581 18.8719 159.6 18.8159C159.637 18.7039 159.665 18.6106 159.684 18.5359C159.702 18.4426 159.712 18.3959 159.712 18.3959C159.712 18.3959 159.721 18.3772 159.74 18.3399C159.758 18.2839 159.786 18.2186 159.824 18.1439C159.842 18.0692 159.861 18.0132 159.88 17.9759C159.898 17.9199 159.908 17.8919 159.908 17.8919L160.076 17.4719C160.542 16.2586 161.205 14.9239 162.064 13.4679C162.941 11.9932 163.828 10.7146 164.724 9.63191C165.582 8.56791 166.488 7.64391 167.44 6.85991C168.392 6.07591 169.241 5.54391 169.988 5.26391C170.1 5.20791 170.184 5.17991 170.24 5.17991C170.314 5.16124 170.417 5.15191 170.548 5.15191C170.66 5.15191 170.734 5.15191 170.772 5.15191C170.828 5.15191 170.874 5.16124 170.912 5.17991C170.949 5.19857 170.986 5.21724 171.024 5.23591C171.21 5.32924 171.35 5.48791 171.444 5.71191ZM162.792 17.6399L162.932 17.5279L162.652 17.5839C162.372 17.6586 162.082 17.7146 161.784 17.7519C161.485 17.7706 161.28 17.7706 161.168 17.7519C161.149 17.7332 161.13 17.7239 161.112 17.7239C161.112 17.7239 161.112 17.7426 161.112 17.7799C161.112 17.7986 161.102 17.8172 161.084 17.8359C161.065 17.8732 161.046 17.9012 161.028 17.9199C160.99 17.9572 160.916 18.1439 160.804 18.4799C160.617 19.1706 160.496 19.8426 160.44 20.4959L160.412 20.7199L160.58 20.3839C160.654 20.2346 160.766 20.0572 160.916 19.8519C160.972 19.7399 161.028 19.6372 161.084 19.5439C161.588 18.8159 162.157 18.1812 162.792 17.6399ZM170.828 7.44791H170.8C171.024 6.55191 171.014 6.00124 170.772 5.79591C170.342 5.47857 169.409 5.88924 167.972 7.02791C167.748 7.21457 167.449 7.49457 167.076 7.86791C166.702 8.24124 166.394 8.56791 166.152 8.84791C164.49 10.7146 163.081 12.8986 161.924 15.3999C161.849 15.5866 161.756 15.8106 161.644 16.0719C161.55 16.3146 161.466 16.5386 161.392 16.7439C161.317 16.9306 161.28 17.0239 161.28 17.0239C161.28 17.0239 161.298 17.0332 161.336 17.0519C161.373 17.0519 161.42 17.0612 161.476 17.0799C161.569 17.1172 161.7 17.1359 161.868 17.1359C162.036 17.1172 162.204 17.0892 162.372 17.0519C163.772 16.7159 165.33 15.6052 167.048 13.7199C169.101 11.3866 170.361 9.29591 170.828 7.44791Z" fill="#FFF9E5"/>
</svg>
