<svg width="26" height="23" viewBox="0 0 26 23" fill="none" xmlns="http://www.w3.org/2000/svg">
<path d="M0.835377 21.4997C0.0558927 20.5674 -0.188838 19.3777 0.146522 18.1484C0.462243 16.9955 1.26892 15.8573 2.41851 14.9456L13.5926 6.08142C16.2181 3.99918 18.7726 3.80951 20.2605 5.58735L20.3013 5.63585C21.7682 7.3887 21.0763 9.54299 18.3526 11.7046L11.5004 17.1411C11.2632 17.3293 10.937 17.319 10.7708 17.1205C10.6046 16.922 10.6605 16.6088 10.8977 16.4206L17.7499 10.9841C19.9841 9.21214 20.5551 7.64017 19.4448 6.31524L19.404 6.2667C17.771 4.31681 15.2181 5.99174 14.1969 6.80199L3.02277 15.6662C1.0242 17.2514 0.477346 19.3704 1.69189 20.8203C2.98348 22.3643 5.55761 22.4114 7.42776 20.9276L23.3045 8.33277C25.1761 6.84903 25.5039 4.2139 24.0356 2.46105C22.5673 0.708212 19.8512 0.487625 17.9795 1.97284L6.71776 10.9062C6.48059 11.0944 6.1543 11.0841 5.98813 10.8856C5.82196 10.6871 5.87785 10.3738 6.11502 10.1856L17.3768 1.2523C19.7197 -0.606416 23.0915 -0.368215 24.8921 1.78166C26.6928 3.93301 26.2517 7.19459 23.9087 9.05331L8.03202 21.6482C5.68903 23.5069 2.46082 23.4407 0.836889 21.4997L0.835377 21.4997Z" fill="#FF9629"/>
</svg>
