<svg width="40" height="22" viewBox="0 0 40 22" fill="none" xmlns="http://www.w3.org/2000/svg">
<path d="M37.9285 10.8408C37.7355 11.077 36.02 11.5268 32.1341 12.7864C21.8424 16.1209 4.40003 21.283 4.21129 21.0482C3.95214 20.7249 9.2874 13.3234 9.2874 13.3234L31.9989 6.79636L39.9313 4.51617C40.3651 5.47351 38.6299 9.97905 37.9285 10.8408Z" fill="#E25939"/>
<path d="M4.79863 8.76308C4.79863 8.76308 0 14.1205 0 16.0268C0 16.6734 3.23523 21.1551 4.2113 21.0468C5.18736 20.9386 9.28036 13.9954 9.2874 13.322C9.29444 12.6487 5.19582 8.69982 4.80004 8.76308H4.79863Z" fill="#E25939"/>
<path d="M4.79859 8.76301C5.28028 9.91013 8.30707 13.2376 9.28595 13.322C10.2648 13.4063 32.1326 7.08732 32.1326 7.08732L26.7974 2.28375L4.79718 8.76301H4.79859Z" fill="#F4745B"/>
<path d="M37.9285 10.8408C37.7355 11.077 36.02 11.5268 32.134 12.7864V7.08876L31.9988 6.79636L39.9313 4.51617C40.3651 5.47351 38.6299 9.97905 37.9285 10.8408Z" fill="#3E6DB5"/>
<path d="M32.1341 7.08734C32.1341 7.08734 40.0637 4.94072 39.9313 4.51476C39.4229 2.88124 36.0848 -0.00905018 35.0045 0.0570216C33.9242 0.123093 26.6721 2.34704 26.6721 2.34704L32.1341 7.08734Z" fill="#639AD6"/>
<path d="M1.45209 12.9888C1.45209 12.9888 6.3141 18.633 6.43523 18.4503C6.55636 18.2661 7.28735 17.1162 7.28735 17.1162L2.27885 11.8417L1.45209 12.9888Z" fill="#F5E8D8"/>
<path d="M39.4201 7.58215L7.28742 17.1162L6.4353 18.4503L38.9581 8.86986L39.4201 7.58215Z" fill="#F5E8D8"/>
<path opacity="0.28" d="M4.79859 20.2568C4.79859 20.2568 8.36904 14.2948 8.42819 13.6102C8.48876 12.9256 5.26761 10.1126 5.26338 9.54048C5.25916 8.96833 8.55918 12.7471 9.28595 12.9425C10.0127 13.1379 38.7045 4.79736 39.1158 4.79736C39.5271 4.79736 39.2256 5.33718 38.1792 5.65911C37.6918 5.80953 10.0845 13.4682 9.58031 13.807C9.07608 14.1458 5.56198 20.6883 4.79718 20.2568H4.79859Z" fill="#F5E8D8"/>
</svg>
