<svg width="20" height="24" viewBox="0 0 20 24" fill="none" xmlns="http://www.w3.org/2000/svg">
<path d="M18.3542 23.4206C17.4398 24.0392 16.3256 24.1674 15.2169 23.7813C14.1788 23.4193 13.1896 22.623 12.4328 21.5422L5.08201 11.04C3.35504 8.57373 3.36727 6.30655 5.1119 5.12686L5.15945 5.0948C6.88098 3.92981 8.81447 4.69934 10.6067 7.2591L15.1136 13.6999C15.2685 13.9217 15.2372 14.2089 15.0416 14.3412C14.8459 14.4735 14.562 14.4 14.4057 14.1782L9.89875 7.73737C8.42859 5.63718 7.02365 5.01862 5.72333 5.89904L5.67578 5.93113C3.76131 7.22705 5.11733 9.6011 5.78991 10.5617L13.1407 21.0639C14.4546 22.941 16.3664 23.5796 17.7903 22.6164C19.3053 21.5903 19.5377 19.3258 18.3066 17.5676L7.86335 2.64591C6.63233 0.887743 4.23007 0.405441 2.50855 1.57043C0.78702 2.73542 0.38755 5.11348 1.61721 6.87298L9.02508 17.4567C9.17997 17.6785 9.14872 17.9657 8.95306 18.098C8.7574 18.2303 8.47343 18.1568 8.31717 17.935L0.909307 7.35128C-0.631507 5.14956 -0.166817 2.19434 1.94467 0.766157C4.05615 -0.663357 7.02908 -0.0341037 8.5699 2.16761L19.0132 17.0893C20.554 19.291 20.2578 22.1327 18.3528 23.422L18.3542 23.4206Z" fill="#FF4840"/>
</svg>
