<svg width="30" height="34" viewBox="0 0 30 34" fill="none" xmlns="http://www.w3.org/2000/svg">
<path d="M28.0228 32.5888C30.2671 30.6524 30.6612 27.4154 28.8941 25.3442L16.838 11.2196C15.0586 9.13458 11.9337 8.85729 9.87257 10.5991C8.88432 11.4356 8.34246 12.5845 8.3517 13.8346C8.35939 15.0065 8.84584 16.2153 9.71864 17.2386L18.2034 27.1794C20.1968 29.5141 22.6074 29.9737 24.4947 28.379L24.5455 28.3361C24.5578 28.3253 24.5701 28.3161 24.5809 28.3054C25.5491 27.4705 25.9785 26.418 25.8246 25.2599C25.6938 24.2794 25.155 23.2301 24.2237 22.1393L19.0208 16.0422C18.8407 15.8323 18.5236 15.8062 18.3127 15.9855C18.3127 15.9855 18.3096 15.987 18.3096 15.9885C18.1018 16.1678 18.0772 16.4803 18.2557 16.6902L23.4587 22.7873C24.2622 23.7295 24.724 24.6058 24.8287 25.3932C24.9395 26.225 24.644 26.9313 23.9251 27.5502C23.9159 27.5594 23.9051 27.567 23.8943 27.5762L23.8435 27.6191C21.7731 29.3701 19.7443 27.4445 18.9684 26.5345L10.4837 16.5937C9.76328 15.7495 9.3615 14.7676 9.35534 13.83C9.34918 12.8679 9.75404 12.0116 10.5222 11.3636C12.1616 9.97715 14.6507 10.2054 16.0715 11.8691L28.1274 25.9937C29.539 27.6467 29.1927 30.2571 27.3639 31.835C27.3516 31.8458 27.3393 31.8565 27.327 31.8672C25.4644 33.442 22.7937 33.3685 21.3729 31.7033L12.8219 21.6843C12.6418 21.4744 12.3247 21.4484 12.1138 21.6276C12.1138 21.6276 12.1108 21.6292 12.1108 21.6307C11.903 21.8099 11.8783 22.1225 12.0569 22.3323L20.6078 32.3513C22.3873 34.4363 25.6938 34.5604 27.9781 32.6286C27.9935 32.6163 28.0089 32.6026 28.0228 32.5903V32.5888Z" fill="#302F34"/>
<path d="M14.2951 14.5071C16.0237 12.8143 13.7101 -0.420207 8.75812 0.0102715C5.46088 0.298278 6.66618 2.91792 6.14589 5.4104C5.87958 6.68499 1.05685 3.46482 0.0870733 6.84277C-1.1721 11.2257 11.6059 17.1421 14.2966 14.5056L14.2951 14.5071Z" fill="#FF4840"/>
<path opacity="0.26" d="M9.55242 1.88847C10.9655 1.39825 13.1929 6.95004 13.1037 8.14649C13.0144 9.34295 12.4602 8.8129 12.1077 7.65168C11.7552 6.49046 10.6607 3.80954 9.87107 3.22893C9.08293 2.64832 8.68424 2.19027 9.55088 1.88847H9.55242Z" fill="#F8EBDB"/>
</svg>
