<svg width="24" height="20" viewBox="0 0 24 20" fill="none" xmlns="http://www.w3.org/2000/svg">
<path d="M1.10998 2.12745C1.75572 1.27791 2.73254 0.81314 3.86027 0.819386C4.91671 0.825329 6.05955 1.24034 7.0787 1.98881L16.9697 9.26213C19.2934 10.9704 19.9712 13.0381 18.7395 14.6598L18.7061 14.7042C17.4912 16.3027 15.495 16.2072 13.0838 14.434L7.01839 9.97384C6.80838 9.81972 6.75121 9.54775 6.88853 9.36632C7.02585 9.18488 7.30802 9.16261 7.51739 9.31562L13.5828 13.7758C15.5606 15.2307 17.0285 15.3544 17.9479 14.1456L17.9812 14.1011C19.3329 12.3229 17.3739 10.5833 16.4694 9.91814L6.57842 2.64481C4.80956 1.34465 2.87273 1.35992 1.86807 2.68317C0.798821 4.09108 1.27577 6.22744 2.93173 7.44472L16.9845 17.7782C18.6404 18.9955 20.9769 18.6844 22.1917 17.0858C23.4071 15.4855 23.0484 13.195 21.3929 11.9759L11.4255 4.64611C11.2154 4.492 11.1583 4.22002 11.2956 4.03859C11.4329 3.85715 11.7151 3.83489 11.9245 3.98789L21.8919 11.3177C23.9661 12.8428 24.4404 15.6795 22.9498 17.6416C21.4592 19.6037 18.5584 19.9593 16.4842 18.4342L2.43145 8.10072C0.357234 6.57565 -0.235831 3.8949 1.10983 2.12457L1.10998 2.12745Z" fill="#3E6DB5"/>
</svg>
