<svg width="40" height="46" viewBox="0 0 40 46" fill="none" xmlns="http://www.w3.org/2000/svg">
<path d="M20.2043 18.2925C20.2043 18.2925 38.5064 0.429019 39.0992 0.578941C39.692 0.728864 40.2105 1.47586 39.9141 2.29782C39.6177 3.11978 26.7993 18.2925 26.7993 18.2925C26.7993 18.2925 23.984 19.1894 23.3912 19.1894C22.7984 19.1894 20.2052 20.3103 20.2052 20.3103V18.2925H20.2043Z" fill="#999896"/>
<path d="M22.7241 22.1791C22.9462 21.2822 23.3912 20.0863 23.3912 19.6382C23.3912 19.1902 23.0205 16.4995 23.3912 15.9756C23.7619 15.4517 37.3217 0.0559082 37.8402 0.0559082C38.3586 0.0559082 39.1796 0.275564 39.3965 0.578024C39.6133 0.880484 24.5033 22.628 24.5033 22.628L22.725 22.18L22.7241 22.1791Z" fill="#E3E7E6"/>
<path d="M26.7812 16.2562C27.2212 16.2562 27.5779 15.8964 27.5779 15.4526C27.5779 15.0087 27.2212 14.6489 26.7812 14.6489C26.3411 14.6489 25.9844 15.0087 25.9844 15.4526C25.9844 15.8964 26.3411 16.2562 26.7812 16.2562Z" fill="#999896"/>
<path d="M20.7694 17.7424C20.1309 17.5454 18.2782 20.0113 13.5359 22.4283C9.21098 24.6319 4.22415 24.5708 1.68018 27.7105C-0.42741 30.3115 -0.245947 33.092 0.568918 34.9608C1.38378 36.8296 4.49634 37.8006 6.12607 37.2777C7.7558 36.7547 8.94137 35.7828 8.94137 35.7828L9.68193 35.9327L10.9263 34.5128V33.6908C10.9263 33.6908 13.4858 28.9325 17.3138 25.0956C19.5441 22.8607 20.9112 21.5759 21.5921 20.8838C22.0069 20.4619 21.4072 17.9411 20.7686 17.7441L20.7694 17.7424ZM8.44797 33.8887C6.52184 36.2805 3.63395 35.7575 2.56936 34.6113C1.11245 33.0415 1.44514 31.1483 3.19844 28.7565C4.95174 26.3647 7.85518 26.5643 9.06495 27.7602C10.2756 28.9561 10.3741 31.4969 8.4471 33.8887H8.44797Z" fill="#C72D35"/>
<path d="M25.4055 21.8409C25.2508 21.5323 24.4982 21.3379 23.7568 21.2883C23.0551 21.2412 22.3638 21.3222 22.1979 21.5585C21.638 22.3534 20.6166 23.9319 18.814 26.5303C15.7196 30.9905 11.5087 34.3463 11.5087 34.3463L10.706 34.4867L9.53076 35.9667L9.80383 36.6771C9.80383 36.6771 9.05723 38.0212 8.82478 39.7305C8.78935 39.9928 8.79367 40.284 8.83428 40.5899C9.05809 42.2809 10.3741 44.4426 12.0367 44.8575C14.0009 45.3491 16.7488 45.0536 18.9289 42.5154C21.561 39.4507 20.6494 34.505 22.064 29.8304C23.6151 24.7042 25.708 22.4423 25.4064 21.8417L25.4055 21.8409ZM17.6474 41.1844C15.6107 43.3356 13.8177 43.9902 12.0358 42.8091C10.7345 41.9471 9.73038 39.1665 11.7377 36.8436C13.7451 34.5198 16.2441 34.1842 17.6189 35.1831C18.9937 36.1812 19.6842 39.0332 17.6474 41.1835V41.1844Z" fill="#C72D35"/>
<path d="M23.7568 21.2882C22.738 22.0466 21.2301 24.0749 20.2044 25.792C19.043 27.7349 13.2638 33.9532 11.5848 35.578C10.0078 37.1025 9.05204 39.4794 8.83428 40.5899C8.79367 40.284 8.78935 39.9928 8.82478 39.7305C9.05723 38.0212 9.80383 36.6771 9.80383 36.6771L9.53076 35.9667L10.706 34.4867L11.5087 34.3463C11.5087 34.3463 15.7196 30.9905 18.814 26.5303C20.6166 23.9319 21.6379 22.3534 22.1979 21.5585C22.3638 21.3231 23.0551 21.2412 23.7568 21.2882Z" fill="#B41323"/>
<path opacity="0.41" d="M20.6701 30.3133C20.022 32.726 19.3808 37.5854 20.1412 37.1095C20.7271 36.7425 20.5241 33.6621 21.4409 30.8955C22.3577 28.1289 21.319 27.8997 20.6701 30.3124V30.3133Z" fill="white"/>
<path d="M27.8388 12.8525C28.2691 12.8525 30.4787 10.2637 32.5093 7.79175C34.2436 5.68063 35.8829 3.65406 35.7714 3.39867C35.5286 2.84517 27.1311 12.8525 27.8388 12.8525Z" fill="#FCFCFC"/>
<path d="M26.7725 14.8503C26.8909 14.8634 26.7751 15.3559 26.8191 15.4099C26.8632 15.4639 27.3549 15.4273 27.3609 15.5189C27.367 15.6113 26.8027 15.4936 26.7984 15.5441C26.7941 15.5938 26.7457 16.0628 26.6861 16.0549C26.6256 16.0471 26.6722 15.5093 26.6722 15.5093C26.6722 15.5093 26.1754 15.4901 26.203 15.409C26.2229 15.3515 26.5979 15.47 26.6446 15.3707C26.6912 15.2713 26.6645 14.8372 26.7733 14.8494L26.7725 14.8503Z" fill="#BBB7B6"/>
<path opacity="0.41" d="M2.08627 28.6502C1.45373 28.3242 0.161871 30.7613 0.542084 32.896C0.827243 34.4989 0.859217 32.5795 1.07265 31.3627C1.28609 30.1459 2.47685 28.8515 2.08627 28.6502Z" fill="white"/>
<path opacity="0.41" d="M4.7996 26.2689C4.84713 26.1311 7.26148 25.4722 8.65703 25.691C9.32672 25.7956 9.72076 26.2174 9.12279 26.2009C8.52482 26.1843 6.13035 26.3482 4.74862 26.6358C3.36689 26.9235 4.7996 26.268 4.7996 26.268V26.2689Z" fill="white"/>
<path opacity="0.41" d="M10.6938 43.3914C9.87895 42.6191 9.6223 41.5784 9.60588 40.3337C9.59811 39.7366 9.85993 39.3191 9.92474 39.8377C9.98955 40.3563 10.3914 42.1537 11.049 43.1604C11.7325 44.2072 10.8131 43.5038 10.6947 43.3914H10.6938Z" fill="white"/>
</svg>
