<svg width="125" height="129" viewBox="0 0 125 129" fill="none" xmlns="http://www.w3.org/2000/svg">
<g clip-path="url(#clip0_2296_543)">
<path d="M76.8376 122.322C76.8376 122.322 76.634 122.404 77.2249 122.591C77.8158 122.779 80.3336 122.21 80.3716 122.046C80.4096 121.882 81.0945 119.545 81.0945 119.545L76.8366 122.322H76.8376Z" fill="#640025"/>
<path d="M45.9199 119.878C45.9199 119.878 43.3282 120.177 40.7439 119.303C38.6229 118.022 41.4541 115.716 41.8446 115.703C42.2339 115.691 42.6064 115.114 43.8084 116.119C45.0103 117.125 45.921 119.878 45.921 119.878H45.9199Z" fill="#640025"/>
<path d="M111.029 67.1489L104.183 102.682C103.881 104.249 102.955 105.624 101.619 106.488L68.6774 127.805C67.0027 128.889 64.8933 129.041 63.0825 128.207L8.8714 103.249C6.57941 102.193 5.22342 99.7813 5.50939 97.2687L10.469 53.7201C10.8384 50.474 13.7878 48.1603 17.0189 48.5837L106.057 60.2397C109.39 60.6758 111.667 63.8404 111.029 67.15V67.1489Z" fill="#FFBE00"/>
<path style="mix-blend-mode:multiply" d="M111.029 67.1489L104.183 102.682C103.881 104.249 102.955 105.624 101.619 106.488L68.6774 127.805C67.0027 128.889 64.8933 129.041 63.0825 128.207L8.8714 103.249C6.57941 102.193 5.22342 99.7813 5.50939 97.2687L10.469 53.7201C10.8384 50.474 13.7878 48.1603 17.0189 48.5837L106.057 60.2397C109.39 60.6758 111.667 63.8404 111.029 67.15V67.1489Z" fill="url(#paint0_radial_2296_543)"/>
<path style="mix-blend-mode:multiply" opacity="0.15" d="M111.029 67.1489L104.183 102.682C103.881 104.249 102.955 105.624 101.619 106.488L68.6774 127.805C67.0027 128.889 64.8933 129.041 63.0825 128.207L8.8714 103.249C6.57941 102.193 5.22342 99.7813 5.50939 97.2687L10.469 53.7201C10.8384 50.474 13.7878 48.1603 17.0189 48.5837L106.057 60.2397C109.39 60.6758 111.667 63.8404 111.029 67.15V67.1489Z" fill="url(#paint1_linear_2296_543)"/>
<path style="mix-blend-mode:multiply" opacity="0.15" d="M111.029 67.1489L104.183 102.682C103.881 104.249 102.955 105.624 101.619 106.488L68.6774 127.805C67.0027 128.889 64.8933 129.041 63.0825 128.207L8.8714 103.249C6.57941 102.193 5.22342 99.7813 5.50939 97.2687L10.469 53.7201C10.8384 50.474 13.7878 48.1603 17.0189 48.5837L106.057 60.2397C109.39 60.6758 111.667 63.8404 111.029 67.15V67.1489Z" fill="url(#paint2_linear_2296_543)"/>
<g style="mix-blend-mode:multiply">
<path opacity="0.06" d="M74.7735 89.325L9.42542 63.5119L10.4691 53.7186C10.8384 50.4725 13.7878 48.1589 17.019 48.5822L106.057 60.2383C109.39 60.6743 111.685 63.7797 111.048 67.0893L109.677 74.0133C93.9167 80.7192 74.7735 89.324 74.7735 89.324V89.325Z" fill="#FCF9FA"/>
<path opacity="0.12" d="M74.8454 89.0287L9.46033 63.2452L10.4691 53.7186C10.8385 50.4725 13.7879 48.1589 17.019 48.5822L106.057 60.2383C109.39 60.6743 111.704 63.7204 111.067 67.03L109.762 73.5973C95.0533 79.8566 74.8464 89.0287 74.8464 89.0287H74.8454Z" fill="#F8F4F5"/>
<path opacity="0.19" d="M74.9181 88.7334L9.49512 62.9774L10.4691 53.7186C10.8384 50.4725 13.7878 48.1589 17.019 48.5822L106.057 60.2383C109.39 60.6743 111.723 63.6611 111.085 66.9707L109.846 73.1814C96.1866 78.993 74.9171 88.7323 74.9171 88.7323L74.9181 88.7334Z" fill="#F5EEF1"/>
<path opacity="0.25" d="M74.9899 88.437L9.52991 62.7096L10.4691 53.7186C10.8384 50.4725 13.7878 48.1589 17.019 48.5822L106.057 60.2383C109.39 60.6743 111.741 63.6019 111.103 66.9114L109.93 72.7665C97.322 78.1315 74.9888 88.437 74.9888 88.437H74.9899Z" fill="#F1E9EC"/>
<path opacity="0.31" d="M75.0616 88.1417L9.5658 62.4429L10.4691 53.7186C10.8384 50.4725 13.7878 48.1589 17.019 48.5822L106.057 60.2383C109.39 60.6743 111.76 63.5426 111.122 66.8522L110.016 72.3505C98.4585 77.2678 75.0627 88.1417 75.0627 88.1417H75.0616Z" fill="#EEE3E7"/>
<path opacity="0.38" d="M75.1334 87.8464L9.60059 62.1751L10.4691 53.7186C10.8384 50.4725 13.7878 48.1589 17.019 48.5822L106.057 60.2383C109.39 60.6743 111.779 63.4833 111.14 66.7929L110.099 71.9346C99.5918 76.4052 75.1334 87.8454 75.1334 87.8454V87.8464Z" fill="#EBDEE2"/>
<path opacity="0.44" d="M75.2052 87.55L9.6355 61.9083L10.4691 53.7196C10.8385 50.4735 13.7879 48.1598 17.019 48.5832L106.057 60.2393C109.39 60.6753 111.797 63.425 111.159 66.7346L110.183 71.5196C100.727 75.5436 75.2052 87.55 75.2052 87.55Z" fill="#E7D8DE"/>
<path opacity="0.5" d="M75.278 87.2548L9.67029 61.6407L10.4691 53.7186C10.8384 50.4725 13.7879 48.1589 17.019 48.5822L106.057 60.2383C109.39 60.6743 111.816 63.3648 111.178 66.6744L110.269 71.1027C101.864 74.679 75.278 87.2537 75.278 87.2537V87.2548Z" fill="#E4D2D9"/>
<path opacity="0.56" d="M75.3497 86.9584L9.70508 61.3729L10.4691 53.7186C10.8384 50.4725 13.7878 48.1589 17.019 48.5822L106.057 60.2383C109.39 60.6743 111.835 63.3055 111.196 66.6151L110.352 70.6878C102.997 73.8175 75.3486 86.9584 75.3486 86.9584H75.3497Z" fill="#E0CDD4"/>
<path opacity="0.62" d="M75.4214 86.6631L9.73987 61.1061L10.469 53.7196C10.8384 50.4735 13.7878 48.1598 17.0189 48.5832L106.057 60.2393C109.39 60.6753 111.853 63.2472 111.215 66.5568L110.437 70.2728C104.133 72.9548 75.4214 86.6631 75.4214 86.6631Z" fill="#DDC7CF"/>
<path opacity="0.69" d="M75.4933 86.3679L9.77478 60.8384L10.4691 53.7186C10.8385 50.4725 13.7879 48.1589 17.019 48.5822L106.057 60.2383C109.39 60.6743 111.872 63.187 111.234 66.4966L110.522 69.8559C105.269 72.0912 75.4943 86.3668 75.4943 86.3668L75.4933 86.3679Z" fill="#DAC2CB"/>
<path opacity="0.75" d="M75.565 86.0715L9.80957 60.5706L10.4691 53.7186C10.8384 50.4725 13.7878 48.1589 17.019 48.5822L106.057 60.2383C109.39 60.6743 111.891 63.1277 111.252 66.4383L110.605 69.441C106.402 71.2297 75.565 86.0715 75.565 86.0715Z" fill="#D6BCC6"/>
<path opacity="0.81" d="M75.6367 85.7762L9.84436 60.3039L10.4691 53.7186C10.8384 50.4725 13.7878 48.1589 17.019 48.5822L106.057 60.2383C109.39 60.6743 111.909 63.0684 111.271 66.3791L110.69 69.0261C107.538 70.3671 75.6367 85.7762 75.6367 85.7762Z" fill="#D3B6C1"/>
<path opacity="0.88" d="M75.7095 85.4799L9.87915 60.0361L10.469 53.7186C10.8384 50.4725 13.7878 48.1589 17.0189 48.5822L106.057 60.2383C109.39 60.6743 111.928 63.0092 111.29 66.3198L110.775 68.6102C108.674 69.5045 75.7095 85.4809 75.7095 85.4809V85.4799Z" fill="#D0B1BC"/>
<path opacity="0.94" d="M75.7813 85.1845L9.91406 59.7693L10.4691 53.7196C10.8385 50.4735 13.7879 48.1598 17.019 48.5832L106.057 60.2393C109.39 60.6753 111.947 62.9509 111.308 66.2615L110.859 68.1952C109.808 68.6418 75.7803 85.1856 75.7803 85.1856L75.7813 85.1845Z" fill="#CCABB7"/>
<path d="M75.8531 84.8893L9.94995 59.5016L10.4691 53.7186C10.8385 50.4725 13.7879 48.1589 17.019 48.5822L106.057 60.2383C109.39 60.6743 111.965 62.8906 111.327 66.2013L110.943 67.7783L75.8531 84.8882V84.8893Z" fill="#C9A6B3"/>
</g>
<path style="mix-blend-mode:multiply" d="M83.7926 118.156L76.9357 122.462L83.5679 77.9929L92.3359 75.6284L83.7926 118.156Z" fill="url(#paint3_linear_2296_543)"/>
<path style="mix-blend-mode:multiply" d="M42.8164 72.2417L55.1871 76.9357L45.4134 120.08L36.0006 115.808L42.8164 72.2417Z" fill="url(#paint4_linear_2296_543)"/>
<path d="M113.796 66.3928L78.0489 83.7811C76.5938 84.4891 74.9106 84.559 73.4016 83.9737L9.67017 59.2719C7.19563 58.313 5.67818 55.7993 5.97787 53.1554L8.07148 34.659C8.34268 32.2607 10.0553 30.2751 12.3832 29.6613L54.0696 18.6646C55.1491 18.3799 56.2866 18.4116 57.3493 18.7566L116.08 37.8193C118.935 38.919 120.523 41.5068 120.033 44.3729L117.001 62.1179C116.684 63.9775 115.49 65.5693 113.797 66.3928H113.796Z" fill="#FFBE00"/>
<path style="mix-blend-mode:multiply" d="M113.796 66.3928L78.0489 83.7811C76.5938 84.4891 74.9106 84.559 73.4016 83.9737L9.67017 59.2719C7.19563 58.313 5.67818 55.7993 5.97787 53.1554L8.07148 34.659C8.34268 32.2607 10.0553 30.2751 12.3832 29.6613L54.0696 18.6646C55.1491 18.3799 56.2866 18.4116 57.3493 18.7566L116.08 37.8193C118.935 38.919 120.523 41.5068 120.033 44.3729L117.001 62.1179C116.684 63.9775 115.49 65.5693 113.797 66.3928H113.796Z" fill="url(#paint5_linear_2296_543)"/>
<path style="mix-blend-mode:multiply" d="M91.2279 77.6191L85.2046 80.4185C85.2046 80.4185 90.0228 55.8765 90.1115 54.5694C90.2001 53.2623 90.8438 48.9377 90.141 47.2644C89.4382 45.5911 97.819 51.5858 97.7261 52.7628C97.6333 53.9397 91.2269 77.618 91.2269 77.618L91.2279 77.6191Z" fill="url(#paint6_linear_2296_543)"/>
<path style="mix-blend-mode:multiply" d="M49.6101 44.3763C49.6101 44.3763 58.434 43.7286 56.925 45.3955C55.416 47.0614 51.3702 75.492 51.3702 75.492L46.2428 73.698L49.6101 44.3763Z" fill="url(#paint7_linear_2296_543)"/>
<path style="mix-blend-mode:multiply" opacity="0.15" d="M113.796 66.3928L78.0489 83.7811C76.5938 84.4891 74.9106 84.559 73.4016 83.9737L9.67017 59.2719C7.19563 58.313 5.67818 55.7993 5.97787 53.1554L8.07148 34.659C8.34268 32.2607 10.0553 30.2751 12.3832 29.6613L54.0696 18.6646C55.1491 18.3799 56.2866 18.4116 57.3493 18.7566L116.08 37.8193C118.935 38.919 120.523 41.5068 120.033 44.3729L117.001 62.1179C116.684 63.9775 115.49 65.5693 113.797 66.3928H113.796Z" fill="url(#paint8_linear_2296_543)"/>
<path style="mix-blend-mode:multiply" opacity="0.15" d="M113.796 66.3928L78.0489 83.7811C76.5938 84.4891 74.9106 84.559 73.4016 83.9737L9.67017 59.2719C7.19563 58.313 5.67818 55.7993 5.97787 53.1554L8.07148 34.659C8.34268 32.2607 10.0553 30.2751 12.3832 29.6613L54.0696 18.6646C55.1491 18.3799 56.2866 18.4116 57.3493 18.7566L116.08 37.8193C118.935 38.919 120.523 41.5068 120.033 44.3729L117.001 62.1179C116.684 63.9775 115.49 65.5693 113.797 66.3928H113.796Z" fill="url(#paint9_linear_2296_543)"/>
<g style="mix-blend-mode:screen">
<path opacity="0.06" d="M80.6396 55.2433L9.724 31.8645C10.3835 30.8918 11.4124 30.0906 12.6818 29.752C13.2728 29.5625 54.1266 18.7669 54.1266 18.7669C55.1997 18.4833 56.332 18.515 57.3873 18.8579C57.3873 18.8579 99.6392 32.6149 115.661 37.7619C119.939 39.1304 117.436 41.8176 115.167 42.6506L80.6396 55.2444V55.2433Z" fill="url(#paint10_linear_2296_543)"/>
<path opacity="0.12" d="M80.5498 55.142L10.2189 31.9558C10.7655 31.0255 11.7268 30.1809 12.9804 29.8432C14.1634 29.4643 54.1846 18.8698 54.1846 18.8698C55.2514 18.5883 56.3774 18.62 57.4273 18.9608C57.4273 18.9608 99.8555 32.6787 115.691 37.8045C119.781 39.1169 117.444 41.7639 115.229 42.5757L80.5498 55.142Z" fill="url(#paint11_linear_2296_543)"/>
<path opacity="0.19" d="M80.4591 55.0392L10.7148 32.0466C11.1496 31.1587 12.0423 30.2707 13.2791 29.933C15.053 29.3647 54.2416 18.9702 54.2416 18.9702C55.3031 18.6897 56.4217 18.7215 57.4664 19.0602C57.4664 19.0602 100.071 32.7388 115.72 37.8445C119.622 39.1019 117.453 41.7066 115.292 42.4993L80.4591 55.0381V55.0392Z" fill="url(#paint12_linear_2296_543)"/>
<path opacity="0.25" d="M80.3683 54.9376L11.2108 32.1388C11.5337 31.2931 12.3579 30.3617 13.5788 30.0252C15.9436 29.2673 54.2996 19.074 54.2996 19.074C55.3548 18.7956 56.4681 18.8263 57.5054 19.1639C57.5054 19.1639 100.272 32.8415 115.749 37.889C119.46 39.0998 117.459 41.6548 115.353 42.4263L80.3673 54.9376H80.3683Z" fill="url(#paint13_linear_2296_543)"/>
<path opacity="0.31" d="M80.2776 54.8359L11.7057 32.2297C11.9167 31.4264 12.6723 30.4516 13.8774 30.115C16.8342 29.1677 54.3576 19.1755 54.3576 19.1755C55.4065 18.8982 56.5135 18.9299 57.5455 19.2644C57.5455 19.2644 100.487 32.9102 115.779 37.9302C119.302 39.087 117.469 41.5996 115.415 42.3511L80.2776 54.8348V54.8359Z" fill="url(#paint14_linear_2296_543)"/>
<path opacity="0.38" d="M80.1868 54.7334L12.2017 32.3209C12.2998 31.5599 12.9878 30.5417 14.176 30.2062C17.7238 29.0695 54.4146 19.2773 54.4146 19.2773C55.4582 19.0021 56.5578 19.0328 57.5845 19.3662C57.5845 19.3662 100.699 32.9792 115.808 37.9727C119.142 39.0745 117.476 41.5448 115.476 42.2772L80.1858 54.7345L80.1868 54.7334Z" fill="url(#paint15_linear_2296_543)"/>
<path opacity="0.44" d="M80.0961 54.632L12.6976 32.4121C12.6839 31.6934 13.3033 30.6319 14.4757 30.2974C18.6144 28.9713 54.4737 19.3801 54.4737 19.3801C55.511 19.106 56.6042 19.1367 57.6257 19.4679C57.6257 19.4679 100.914 33.0482 115.839 38.0152C118.986 39.062 117.487 41.491 115.541 42.2022L80.0971 54.632H80.0961Z" fill="url(#paint16_linear_2296_543)"/>
<path opacity="0.5" d="M80.0054 54.5301L13.1926 32.5039C13.067 31.8276 13.6179 30.7227 14.7744 30.3882C19.5051 28.8726 54.5307 19.4825 54.5307 19.4825C55.5617 19.2105 56.6497 19.2412 57.6637 19.5704C57.6637 19.5704 101.126 33.1157 115.867 38.0584C118.826 39.0501 117.493 41.4378 115.601 42.1289L80.0054 54.5312V54.5301Z" fill="url(#paint17_linear_2296_543)"/>
<path opacity="0.56" d="M79.9146 54.4277L13.6885 32.5952C13.4511 31.9612 13.9334 30.8129 15.073 30.4795C20.3946 28.7744 54.5888 19.5844 54.5888 19.5844C55.6145 19.3134 56.695 19.3441 57.7038 19.6712C57.7038 19.6712 101.34 33.1805 115.897 38.0988C118.667 39.0355 117.501 41.3809 115.664 42.0519L79.9157 54.4266L79.9146 54.4277Z" fill="url(#paint18_linear_2296_543)"/>
<path opacity="0.62" d="M79.8249 54.3258L14.1845 32.6859C13.8341 32.0943 14.2499 30.9025 15.3727 30.5691C21.2852 28.6746 54.6467 19.6857 54.6467 19.6857C55.6661 19.4169 56.7404 19.4465 57.7439 19.7725C57.7439 19.7725 101.556 33.2437 115.927 38.1409C118.509 39.0215 117.51 41.3266 115.725 41.9776L79.8238 54.3248L79.8249 54.3258Z" fill="url(#paint19_linear_2296_543)"/>
<path opacity="0.69" d="M79.7342 54.2245L14.6795 32.7773C14.2173 32.2279 14.5644 30.9928 15.6714 30.6605C22.1759 28.5765 54.7049 19.7887 54.7049 19.7887C55.7179 19.5209 56.7869 19.5516 57.783 19.8744C57.783 19.8744 101.771 33.3043 115.957 38.1835C118.352 39.0069 117.518 41.273 115.788 41.9027L79.7342 54.2235V54.2245Z" fill="url(#paint20_linear_2296_543)"/>
<path opacity="0.75" d="M79.6434 54.1219L15.1754 32.8694C14.6013 32.3624 14.8799 31.0839 15.97 30.7526C23.0654 28.4792 54.7618 19.8924 54.7618 19.8924C55.7696 19.6268 56.8311 19.6564 57.822 19.9782C57.822 19.9782 101.987 33.3658 115.986 38.228C118.194 38.9943 117.527 41.2201 115.85 41.8308L79.6434 54.124V54.1219Z" fill="url(#paint21_linear_2296_543)"/>
<path opacity="0.81" d="M79.5527 54.0201L15.6714 32.9602C14.9855 32.4956 15.1955 31.1737 16.2697 30.8424C23.9561 28.3795 54.8199 19.9928 54.8199 19.9928C55.8213 19.7282 56.8766 19.7578 57.8622 20.0775C57.8622 20.0775 102.206 33.4175 116.016 38.2681C118.035 38.9772 117.535 41.1638 115.912 41.7544L79.5527 54.0201Z" fill="url(#paint22_linear_2296_543)"/>
<path opacity="0.88" d="M79.4619 53.9172L16.1662 33.051C15.3674 32.6287 15.5099 31.2634 16.5672 30.9332C24.8456 28.2808 54.8768 20.0952 54.8768 20.0952C55.8719 19.8328 56.9219 19.8624 57.9001 20.1799C57.9001 20.1799 102.423 33.4691 116.044 38.3112C117.877 38.9632 117.541 41.1096 115.973 41.6801L79.4608 53.9183L79.4619 53.9172Z" fill="url(#paint23_linear_2296_543)"/>
<path opacity="0.94" d="M79.3712 53.8159L16.6623 33.1423C15.7516 32.7623 15.8254 31.3525 16.867 31.0234C25.7363 28.1816 54.9349 20.1971 54.9349 20.1971C55.9237 19.9357 56.9673 19.9653 57.9402 20.2807C57.9402 20.2807 102.655 33.4852 116.074 38.3517C117.721 38.9412 117.55 41.0538 116.036 41.6041L79.3712 53.8148V53.8159Z" fill="url(#paint24_linear_2296_543)"/>
<path d="M79.2804 53.7144L17.1582 33.2345C16.1356 32.8969 16.1409 31.4437 17.1666 31.1156C26.6269 28.0844 54.9939 20.2999 54.9939 20.2999C55.9774 20.0406 57.0137 20.0692 57.9813 20.3835C57.9813 20.3835 102.871 33.5488 116.105 38.3952C117.565 38.9297 117.56 41.001 116.099 41.5302L79.2814 53.7133L79.2804 53.7144Z" fill="url(#paint25_linear_2296_543)"/>
</g>
<g style="mix-blend-mode:screen">
<path opacity="0.06" d="M79.4704 59.3853L75.8519 82.1068" stroke="#040404" stroke-width="68.2" stroke-linecap="round" stroke-linejoin="round"/>
<path opacity="0.12" d="M79.4704 59.3853L75.8519 82.1068" stroke="#080808" stroke-width="63.71" stroke-linecap="round" stroke-linejoin="round"/>
<path opacity="0.19" d="M79.4704 59.3853L75.8519 82.1068" stroke="#0B0B0B" stroke-width="59.21" stroke-linecap="round" stroke-linejoin="round"/>
<path opacity="0.25" d="M79.4704 59.3853L75.8519 82.1068" stroke="#0F0F0F" stroke-width="54.71" stroke-linecap="round" stroke-linejoin="round"/>
<path opacity="0.31" d="M79.4704 59.3853L75.8519 82.1068" stroke="#131313" stroke-width="50.21" stroke-linecap="round" stroke-linejoin="round"/>
<path opacity="0.38" d="M79.4704 59.3853L75.8519 82.1068" stroke="#171716" stroke-width="45.71" stroke-linecap="round" stroke-linejoin="round"/>
<path opacity="0.44" d="M79.4704 59.3853L75.8519 82.1068" stroke="#1B1B1A" stroke-width="41.21" stroke-linecap="round" stroke-linejoin="round"/>
<path opacity="0.5" d="M79.4704 59.3853L75.8519 82.1068" stroke="#1F1F1E" stroke-width="36.71" stroke-linecap="round" stroke-linejoin="round"/>
<path opacity="0.56" d="M79.4704 59.3853L75.8519 82.1068" stroke="#222222" stroke-width="32.22" stroke-linecap="round" stroke-linejoin="round"/>
<path opacity="0.62" d="M79.4704 59.3853L75.8519 82.1068" stroke="#262626" stroke-width="27.72" stroke-linecap="round" stroke-linejoin="round"/>
<path opacity="0.69" d="M79.4704 59.3853L75.8519 82.1068" stroke="#2A2A29" stroke-width="23.22" stroke-linecap="round" stroke-linejoin="round"/>
<path opacity="0.75" d="M79.4704 59.3853L75.8519 82.1068" stroke="#2E2E2D" stroke-width="18.72" stroke-linecap="round" stroke-linejoin="round"/>
<path opacity="0.81" d="M79.4704 59.3853L75.8519 82.1068" stroke="#323231" stroke-width="14.22" stroke-linecap="round" stroke-linejoin="round"/>
<path opacity="0.88" d="M79.4704 59.3853L75.8519 82.1068" stroke="#353535" stroke-width="9.72" stroke-linecap="round" stroke-linejoin="round"/>
<path opacity="0.94" d="M79.4704 59.3853L75.8519 82.1068" stroke="#393938" stroke-width="5.23" stroke-linecap="round" stroke-linejoin="round"/>
<path d="M79.4704 59.3853L75.8519 82.1068" stroke="#3D3D3C" stroke-width="0.73" stroke-linecap="round" stroke-linejoin="round"/>
</g>
<path style="mix-blend-mode:multiply" d="M92.3265 54.6871C92.3265 54.6871 90.312 52.6645 86.3696 51.3542C82.4272 50.045 23.3135 29.6879 23.3135 29.6879C23.3135 29.6879 23.2734 25.648 25.6108 25.5739C27.9482 25.4998 93.3385 49.6989 93.3385 49.6989L92.3254 54.6871H92.3265Z" fill="url(#paint26_linear_2296_543)"/>
<path d="M23.2217 26.7657C23.2217 26.7657 25.4029 25.9825 29.2165 27.3404C33.0302 28.6972 88.1392 48.3728 89.2768 48.7284C90.4154 49.084 93.0514 50.2175 92.2695 55.6767C91.4875 61.1359 80.8422 119.609 80.7019 120.657C80.5689 121.647 78.8985 122.997 76.9368 122.463C76.9315 122.465 76.9209 122.47 76.9167 122.474C77.7018 122.799 78.2801 123.179 79.8081 122.54C80.5721 122.22 91.3409 115.245 92.1323 114.73C94.0011 113.511 94.2375 112.751 94.9962 109.335C95.756 105.92 106.403 55.7508 107.062 51.9036C107.721 48.0574 109.68 44.2122 102.578 41.6551C95.4764 39.0981 49.1058 22.8729 46.1321 22.0103C43.1574 21.1477 42.9917 20.6916 40.0022 21.4219C37.5508 22.0209 30.5503 23.7387 25.8165 25.1749C24.2664 25.6459 23.2048 26.1899 23.2227 26.7646L23.2217 26.7657Z" fill="url(#paint27_linear_2296_543)"/>
<path style="mix-blend-mode:multiply" opacity="0.15" d="M23.2217 26.7657C23.2217 26.7657 25.4029 25.9825 29.2165 27.3404C33.0302 28.6972 88.1392 48.3728 89.2768 48.7284C90.4154 49.084 93.0514 50.2175 92.2695 55.6767C91.4875 61.1359 80.8422 119.609 80.7019 120.657C80.5689 121.648 78.8964 122.999 76.9325 122.462C76.9283 122.464 76.9188 122.473 76.9188 122.476C77.7029 122.801 78.2811 123.179 79.807 122.54C80.571 122.22 91.3398 115.245 92.1312 114.73C94.0001 113.511 94.2364 112.751 94.9952 109.335C95.7549 105.92 106.402 55.7508 107.061 51.9036C107.72 48.0574 109.679 44.2122 102.577 41.6551C95.4753 39.0981 49.1058 22.8729 46.1321 22.0103C43.1574 21.1477 42.9917 20.6916 40.0022 21.4219C37.5508 22.0209 30.5503 23.7387 25.8165 25.1749C24.2664 25.6459 23.2048 26.1899 23.2227 26.7646L23.2217 26.7657Z" fill="url(#paint28_linear_2296_543)"/>
<path style="mix-blend-mode:multiply" opacity="0.15" d="M23.2217 26.7657C23.2217 26.7657 25.4029 25.9825 29.2165 27.3404C33.0302 28.6972 88.1392 48.3728 89.2768 48.7284C90.4154 49.084 93.0514 50.2175 92.2695 55.6767C91.4875 61.1359 80.8422 119.609 80.7019 120.657C80.5689 121.647 78.8974 122.999 76.9347 122.463C76.9273 122.468 76.922 122.472 76.9178 122.476C77.7018 122.801 78.2801 123.18 79.807 122.541C80.571 122.221 91.3398 115.246 92.1312 114.731C94.0001 113.513 94.2364 112.752 94.9952 109.336C95.7549 105.921 106.402 55.7519 107.061 51.9046C107.72 48.0584 109.679 44.2133 102.577 41.6562C95.4753 39.0991 49.1058 22.8729 46.1321 22.0103C43.1574 21.1477 42.9917 20.6916 40.0022 21.4219C37.5508 22.0209 30.5503 23.7387 25.8165 25.1749C24.2664 25.6459 23.2048 26.1899 23.2227 26.7646L23.2217 26.7657Z" fill="url(#paint29_linear_2296_543)"/>
<g style="mix-blend-mode:screen" opacity="0.5">
<path d="M24.2759 25.7505C24.029 25.9484 23.8939 26.1516 23.9002 26.3591C23.9002 26.3591 26.0814 25.5759 29.8951 26.9338C33.7087 28.2906 88.8178 47.9661 89.9554 48.3218C91.094 48.6774 93.73 49.8109 92.948 55.2701C92.1661 60.7293 81.5208 119.202 81.3804 120.25C81.3045 120.817 80.723 121.503 79.8714 121.884C80.3442 121.515 80.6492 121.057 80.703 120.657C80.8433 119.609 91.4897 61.1357 92.2706 55.6765C93.0525 50.2173 90.4154 49.0838 89.2779 48.7282C88.1393 48.3726 33.0313 28.6971 29.2176 27.3402C25.404 25.9833 23.2228 26.7655 23.2228 26.7655C23.2112 26.412 23.609 26.0701 24.277 25.7505H24.2759Z" fill="white"/>
</g>
<path style="mix-blend-mode:multiply" d="M99.9412 32.2173C99.9412 32.2173 92.1155 32.8566 86.3401 35.257C80.5637 37.6574 66.7622 43.9633 66.7622 43.9633C66.7622 43.9633 54.1298 47.4941 52.5881 50.8471C51.9793 52.1701 50.6138 47.3449 52.6187 44.9339C54.6237 42.5229 47.6696 44.6989 58.8204 39.5202C69.9701 34.3415 86.2188 30.0444 86.2188 30.0444L99.9412 32.2184V32.2173Z" fill="url(#paint30_linear_2296_543)"/>
<path d="M100.008 32.4598C100.008 32.4598 98.2475 31.52 94.2133 31.8322C90.1791 32.1444 58.03 44.9446 56.9262 45.3955C55.4425 46.0009 52.7939 46.7608 52.128 52.2359C51.4622 57.7099 41.6241 116.147 41.4869 117.195C41.3498 118.243 42.7701 120.13 45.0115 119.906C43.9868 119.971 41.8236 119.809 40.0529 119.195C39.1327 118.875 25.2235 112.507 24.5946 111.802C23.1078 110.137 23.0772 109.34 23.2323 105.844C23.3874 102.349 31.4315 48.8607 32.0963 44.2789C32.6567 40.4168 33.4935 38.6101 39.0261 36.7389C46.1764 34.3205 70.044 23.7778 73.14 23.7238C76.2361 23.6699 76.3723 23.8424 79.404 24.6891C82.3513 25.5115 91.9603 28.801 97.2176 30.5907C98.7519 31.1125 100.174 31.9084 100.008 32.4588V32.4598Z" fill="url(#paint31_linear_2296_543)"/>
<path style="mix-blend-mode:multiply" opacity="0.15" d="M100.008 32.4598C100.008 32.4598 98.2475 31.52 94.2133 31.8322C90.1791 32.1444 58.03 44.9446 56.9262 45.3955C55.4425 46.0009 52.7939 46.7608 52.128 52.2359C51.4622 57.7099 41.6241 116.147 41.4869 117.195C41.3498 118.243 42.7701 120.13 45.0115 119.906C43.9868 119.971 41.8236 119.809 40.0529 119.195C39.1327 118.875 25.2235 112.507 24.5946 111.802C23.1078 110.137 23.0772 109.34 23.2323 105.844C23.3874 102.349 31.4315 48.8607 32.0963 44.2789C32.6567 40.4168 33.4935 38.6101 39.0261 36.7389C46.1764 34.3205 70.044 23.7778 73.14 23.7238C76.2361 23.6699 76.3723 23.8424 79.404 24.6891C82.3513 25.5115 91.9603 28.801 97.2176 30.5907C98.7519 31.1125 100.174 31.9084 100.008 32.4588V32.4598Z" fill="url(#paint32_linear_2296_543)"/>
<path style="mix-blend-mode:multiply" opacity="0.15" d="M100.008 32.4598C100.008 32.4598 98.2475 31.52 94.2133 31.8322C90.1791 32.1444 58.03 44.9446 56.9262 45.3955C55.4425 46.0009 52.7939 46.7608 52.128 52.2359C51.4622 57.7099 41.6241 116.147 41.4869 117.195C41.3498 118.243 42.7701 120.13 45.0115 119.906C43.9868 119.971 41.8236 119.809 40.0529 119.195C39.1327 118.875 25.2235 112.507 24.5946 111.802C23.1078 110.137 23.0772 109.34 23.2323 105.844C23.3874 102.349 31.4315 48.8607 32.0963 44.2789C32.6567 40.4168 33.4935 38.6101 39.0261 36.7389C46.1764 34.3205 70.044 23.7778 73.14 23.7238C76.2361 23.6699 76.3723 23.8424 79.404 24.6891C82.3513 25.5115 91.9603 28.801 97.2176 30.5907C98.7519 31.1125 100.174 31.9084 100.008 32.4588V32.4598Z" fill="url(#paint33_linear_2296_543)"/>
<g style="mix-blend-mode:screen" opacity="0.5">
<path d="M41.9797 118.611C41.0954 118.015 40.6132 117.081 40.6955 116.45C40.8326 115.403 50.6707 56.9656 51.3365 51.4916C52.0024 46.0176 54.6511 45.2567 56.1347 44.6513C57.2385 44.2004 89.3876 31.4002 93.4218 31.088C97.457 30.7757 99.2161 31.7156 99.2161 31.7156C99.2383 31.6426 99.232 31.5663 99.2024 31.4859C99.7575 31.8288 100.094 32.177 100.008 32.4596C100.008 32.4596 98.2474 31.5198 94.2132 31.832C90.178 32.1442 58.03 44.9444 56.9262 45.3953C55.4425 46.0007 52.7938 46.7606 52.128 52.2357C51.4621 57.7097 41.6241 116.147 41.4869 117.195C41.4341 117.598 41.6125 118.126 41.9797 118.61V118.611Z" fill="white"/>
</g>
<path style="mix-blend-mode:multiply" d="M62.7501 49.5398C87.1262 48.7672 106.721 42.8879 106.517 36.4081C106.313 29.9282 86.3869 25.3016 62.0108 26.0742C37.6347 26.8468 18.0395 32.7261 18.2437 39.2059C18.4478 45.6857 38.3741 50.3124 62.7501 49.5398Z" fill="url(#paint34_radial_2296_543)"/>
<g style="mix-blend-mode:multiply">
<path opacity="0.06" d="M92.356 42.1824C80.2671 41.3526 57.5751 41.1409 36.1083 42.5295C17.1825 43.8144 13.9366 27.3014 42.445 28.182C60.1605 28.7747 69.4477 30.4162 84.7318 31.7435C93.4808 32.5034 110.868 43.5138 92.3549 42.1824H92.356Z" fill="#EFEFEF"/>
<path opacity="0.12" d="M91.4326 41.8556C79.4714 41.0967 58.1576 40.7676 36.8449 42.1213C18.8994 43.2611 15.4646 27.3218 42.8946 28.3103C60.4781 28.9443 69.5848 30.6906 84.6738 31.8411C93.082 32.4825 109.352 42.9913 91.4337 41.8556H91.4326Z" fill="#DFDFDF"/>
<path opacity="0.19" d="M90.5082 41.5284C78.6726 40.8627 58.7412 40.4287 37.5804 41.7136C20.6163 42.7434 16.9894 27.384 43.342 28.4403C60.7947 29.1399 69.7199 30.9699 84.6126 31.9394C92.6789 32.4643 107.829 42.5032 90.5082 41.5284Z" fill="#CFCFCF"/>
<path opacity="0.25" d="M89.5838 41.2013C77.8727 40.6298 59.3258 40.0911 38.3159 41.305C22.3342 42.228 18.5142 27.4496 43.7894 28.5694C61.1102 29.3367 69.8529 31.2524 84.5524 32.0378C92.2758 32.4505 106.307 42.0184 89.5838 41.2013Z" fill="#BFBFBF"/>
<path opacity="0.31" d="M88.6595 40.8741C77.074 40.3978 59.9105 39.7554 39.0514 40.8963C24.0522 41.7166 20.0402 27.5204 44.2369 28.6973C61.4258 29.5334 69.9849 31.538 84.4924 32.135C91.8727 32.4387 104.785 41.5356 88.6595 40.8741Z" fill="#AFAFAF"/>
<path opacity="0.38" d="M87.7351 40.5474C76.2741 40.1695 60.495 39.4223 39.7869 40.4892C25.7701 41.211 21.565 27.5969 44.6843 28.8278C61.7423 29.7359 70.1157 31.8304 84.4311 32.2348C91.4675 32.4337 103.261 41.0596 87.7351 40.5484V40.5474Z" fill="#9F9F9F"/>
<path opacity="0.44" d="M86.8107 40.22C75.4731 39.9427 61.0796 39.0918 40.5224 40.0803C27.4891 40.7069 23.0898 27.677 45.1327 28.9555C62.0589 29.9377 70.2644 31.5698 84.372 32.3318C91.0549 32.6927 101.739 40.5852 86.8117 40.22H86.8107Z" fill="#8F8F8F"/>
<path opacity="0.5" d="M85.8863 39.893C74.6733 39.7184 61.6653 38.7637 41.2568 39.6718C29.207 40.2084 24.6135 27.7628 45.5791 29.0847C62.3744 30.1431 70.3858 31.8334 84.3108 32.4292C90.6528 32.7012 100.214 40.1153 85.8863 39.892V39.893Z" fill="#807F80"/>
<path opacity="0.56" d="M84.9619 39.5661C73.8723 39.4973 62.2509 38.4411 41.9923 39.2645C30.926 39.7143 26.1384 27.855 46.0265 29.214C62.6899 30.3528 70.5061 32.1204 84.2496 32.5278C90.2508 32.7056 98.6896 39.6508 84.9608 39.5661H84.9619Z" fill="#707070"/>
<path opacity="0.62" d="M84.0375 39.2389C73.0725 39.2802 62.8376 38.1223 42.7279 38.8557C32.645 39.223 27.6632 27.9501 46.474 29.3429C63.0054 30.5664 70.6296 33.061 84.1895 32.626C89.8477 32.4451 97.1658 39.1902 84.0375 39.2389Z" fill="#606060"/>
<path opacity="0.69" d="M83.1131 38.9121C72.2716 39.0666 63.4244 37.8113 43.4634 38.4474C34.3651 38.7374 29.187 28.0519 46.9214 29.4712C63.321 30.7847 70.7573 33.3904 84.1293 32.7236C89.4425 32.458 95.6421 38.7332 83.1131 38.911V38.9121Z" fill="#505050"/>
<path opacity="0.75" d="M82.1887 38.585C71.4717 38.857 64.0111 37.5107 44.1989 38.0399C36.0851 38.2569 30.7097 28.1599 47.3688 29.6014C63.6354 31.009 70.886 33.7365 84.0681 32.8231C89.0362 32.4792 94.1183 38.2823 82.1877 38.5861L82.1887 38.585Z" fill="#404040"/>
<path opacity="0.81" d="M81.2654 38.2578C70.6728 38.6526 64.5988 37.2227 44.9354 37.6312C37.8051 37.7794 32.2335 28.2719 47.8184 29.7303C63.952 31.2406 71.02 34.0962 84.0101 32.9203C88.6352 32.5023 92.5966 37.8355 81.2654 38.2578Z" fill="#303030"/>
<path opacity="0.88" d="M80.341 37.9311C69.873 38.455 65.1867 36.9553 45.671 37.2231C39.5252 37.3077 33.7562 28.3897 48.2658 29.8588C64.2644 31.4792 71.1541 34.4755 83.95 33.0181C88.2321 32.5302 91.0739 37.3935 80.341 37.9301V37.9311Z" fill="#202020"/>
<path opacity="0.94" d="M79.4166 37.6026C69.0752 38.2631 65.7734 36.7189 46.4065 36.8141C41.2453 36.8395 35.2768 28.5132 48.7132 29.9875C64.5757 31.7275 71.2944 34.8783 83.8887 33.1161C87.8301 32.5647 89.5522 36.956 79.4166 37.6037V37.6026Z" fill="#101010"/>
<path d="M78.4922 37.2758C68.2774 38.0802 66.359 36.5381 47.1419 36.4058C42.9642 36.3772 36.7963 28.6425 49.1606 30.1158C64.8858 31.9891 71.4431 35.3104 83.8285 33.2137C87.4322 32.6041 88.0316 36.5243 78.4922 37.2758Z" fill="black"/>
</g>
<path d="M53.3141 21.5849C53.3141 21.5849 52.7105 20.3223 53.8311 20.2471C54.9518 20.172 57.2828 20.6895 57.3831 20.9002C57.4833 21.1108 59.4925 23.9515 59.3944 24.4363C59.2962 24.921 54.383 26.9013 54.3155 26.8621C54.2479 26.8229 53.3141 21.586 53.3141 21.586V21.5849Z" fill="black"/>
<path d="M65.6288 25.485C50.1136 26.9308 25.2436 18.4171 30.4544 11.1502C31.5645 9.60174 18.6388 18.8055 18.6388 18.8055C18.6388 18.8055 20.1372 25.4416 24.3033 28.9079C41.7476 40.0178 60.9572 35.5704 60.9572 35.5704C60.9572 35.5704 69.6324 25.1125 65.6278 25.4861L65.6288 25.485Z" fill="url(#paint35_linear_2296_543)"/>
<path style="mix-blend-mode:multiply" d="M65.6288 25.485C50.1136 26.9308 25.2436 18.4171 30.4544 11.1502C31.5645 9.60174 18.6388 18.8055 18.6388 18.8055C18.6388 18.8055 20.1372 25.4416 24.3033 28.9079C41.7476 40.0178 60.9572 35.5704 60.9572 35.5704C60.9572 35.5704 69.6324 25.1125 65.6278 25.4861L65.6288 25.485Z" fill="url(#paint36_linear_2296_543)"/>
<path style="mix-blend-mode:multiply" d="M65.6288 25.485C50.1136 26.9308 25.2436 18.4171 30.4544 11.1502C31.5645 9.60174 18.6388 18.8055 18.6388 18.8055C18.6388 18.8055 20.1372 25.4416 24.3033 28.9079C41.7476 40.0178 60.9572 35.5704 60.9572 35.5704C60.9572 35.5704 69.6324 25.1125 65.6278 25.4861L65.6288 25.485Z" fill="url(#paint37_linear_2296_543)"/>
<path d="M32.4635 0.661545C40.343 2.65132 52.0056 24.0118 64.1494 26.7657L57.6026 36.8681L60.0096 26.5689C47.5388 21.0959 43.3452 12.706 36.9314 11.981C30.5177 11.2561 23.8675 14.7604 22.0736 21.46C20.6459 26.7911 25.5401 29.6657 25.5401 29.6657C18.8794 26.3741 16.5906 15.606 18.4056 8.37511C20.2206 1.14629 24.5851 -1.32717 32.4635 0.661545Z" fill="url(#paint38_linear_2296_543)"/>
<path style="mix-blend-mode:multiply" d="M32.4635 0.661533C40.343 2.65131 52.0056 24.0118 64.1494 26.7657L60.0096 26.5699C47.5388 21.097 43.3452 12.7071 36.9314 11.9821C30.5177 11.2571 23.8675 14.7614 22.0736 21.4611C20.6459 26.7922 25.5401 29.6668 25.5401 29.6668C18.8794 26.3752 16.5906 15.6071 18.4056 8.37615C20.2206 1.14628 24.5851 -1.32719 32.4635 0.661533Z" fill="url(#paint39_linear_2296_543)"/>
<path style="mix-blend-mode:multiply" d="M32.4635 0.661533C40.343 2.65131 52.0056 24.0118 64.1494 26.7657L60.0096 26.5699C47.5388 21.097 43.3452 12.7071 36.9314 11.9821C30.5177 11.2571 23.8675 14.7614 22.0736 21.4611C20.6459 26.7922 25.5401 29.6668 25.5401 29.6668C18.8794 26.3752 16.5906 15.6071 18.4056 8.37615C20.2206 1.14628 24.5851 -1.32719 32.4635 0.661533Z" fill="url(#paint40_linear_2296_543)"/>
<path d="M37.4559 35.0117C44.5862 36.812 51.7618 36.921 55.0278 36.376L54.9529 35.9219C50.4069 36.6797 38.1977 36.1558 29.2376 31.4862C24.927 29.2392 22.5579 26.8779 21.9966 24.2669C21.5259 22.0771 22.3427 19.6798 24.4943 16.9386C26.5753 14.2863 30.2454 12.4521 34.0717 12.1515C37.3029 11.8975 40.247 12.7664 42.1485 14.535C44.4996 16.7216 47.6369 19.2586 50.5398 21.3214C53.8544 23.6763 56.5094 25.1591 58.012 25.4978L58.1123 25.048C54.8537 24.3156 46.8022 18.2341 42.4609 14.1963C40.4654 12.3409 37.3947 11.4275 34.0358 11.6911C30.0259 12.0065 26.3241 13.8608 24.1334 16.6528C21.8921 19.5084 21.0468 22.0305 21.5481 24.3632C22.1401 27.1171 24.5861 29.58 29.0266 31.8937C31.6489 33.2601 34.5497 34.2761 37.4559 35.0096V35.0117Z" fill="url(#paint41_linear_2296_543)"/>
<g style="mix-blend-mode:screen" opacity="0.25">
<path opacity="0.09" d="M25.9769 13.663C27.2516 12.7072 29.8264 11.4837 31.7902 11.1345C36.3025 10.3502 31.6678 1.01201 28.1264 0.610882C26.3093 0.400262 23.6902 1.36975 22.7067 2.045C17.8251 5.39905 21.949 16.6635 25.9758 13.663H25.9769Z" fill="url(#paint42_linear_2296_543)"/>
<path opacity="0.18" d="M25.9442 13.5191C27.1809 12.575 29.5331 11.4647 31.3893 11.0879C35.6166 10.2306 31.2236 1.13164 27.9217 0.738973C26.1711 0.530469 23.6395 1.52112 22.6888 2.19426C18.0911 5.44988 22.1147 16.4445 25.9431 13.5191H25.9442Z" fill="url(#paint43_linear_2296_543)"/>
<path opacity="0.27" d="M25.9115 13.3761C27.1081 12.4405 29.2408 11.4509 30.9893 11.0424C34.9327 10.1205 30.7793 1.24697 27.718 0.868065C26.0328 0.659561 23.5889 1.6735 22.6719 2.34452C18.3559 5.49959 22.2761 16.22 25.9115 13.3772V13.3761Z" fill="url(#paint44_linear_2296_543)"/>
<path opacity="0.36" d="M25.8788 13.2322C27.0343 12.3061 28.9475 11.4361 30.5884 10.9947C34.2469 10.0104 30.3351 1.3602 27.5123 0.993994C25.8936 0.784432 23.5372 1.82272 22.6529 2.49056C18.6177 5.5419 22.4355 15.9904 25.8788 13.2311V13.2322Z" fill="url(#paint45_linear_2296_543)"/>
<path opacity="0.45" d="M25.8461 13.0893C26.9615 12.1717 28.6552 11.4234 30.1874 10.9492C33.562 9.90461 29.8919 1.47452 27.3076 1.12313C25.7553 0.912512 23.4855 1.97408 22.635 2.64087C18.8794 5.58637 22.5949 15.7639 25.8461 13.0883V13.0893Z" fill="url(#paint46_linear_2296_543)"/>
<path opacity="0.55" d="M25.8124 12.9452C26.8866 12.0361 28.3618 11.4106 29.7854 10.9025C32.8751 9.79968 29.4466 1.58656 27.1019 1.25104C25.6161 1.03831 23.4328 2.12422 22.616 2.78995C19.138 5.62644 22.7522 15.5351 25.8124 12.9452Z" fill="url(#paint47_linear_2296_543)"/>
<path opacity="0.64" d="M25.7796 12.8015C26.8127 11.8997 28.0695 11.3991 29.3843 10.8562C32.1912 9.69721 29.0023 1.69683 26.8971 1.37825C25.4767 1.1634 23.381 2.27259 22.598 2.93832C19.3943 5.66368 22.9093 15.3046 25.7796 12.8015Z" fill="url(#paint48_linear_2296_543)"/>
<path opacity="0.73" d="M25.7469 12.6585C26.7388 11.7641 27.7772 11.3894 28.9834 10.8094C31.5075 9.59653 28.5581 1.80676 26.6914 1.50618C25.3375 1.28815 23.3272 2.42169 22.5791 3.08742C19.6487 5.69847 23.0655 15.0737 25.7459 12.6585H25.7469Z" fill="url(#paint49_linear_2296_543)"/>
<path opacity="0.82" d="M25.7142 12.5146C26.6639 11.6277 27.487 11.3801 28.5824 10.763C30.8258 9.50035 28.1149 1.91485 26.4867 1.63438C25.2003 1.41212 23.2734 2.56894 22.5611 3.23678C19.9009 5.73036 23.2207 14.841 25.7132 12.5146H25.7142Z" fill="url(#paint50_linear_2296_543)"/>
<path opacity="0.91" d="M25.6815 12.3716C26.589 11.491 27.1968 11.3735 28.1824 10.7173C30.1473 9.407 27.6727 2.0226 26.283 1.76329C25.0631 1.53574 23.2196 2.7169 22.5442 3.38687C20.1499 5.75978 23.3758 14.609 25.6815 12.3726V12.3716Z" fill="url(#paint51_linear_2296_543)"/>
<path d="M25.6477 12.2276C26.512 11.3534 26.9087 11.3672 27.7804 10.6697C29.4719 9.31493 27.2295 2.12633 26.0772 1.88925C24.9249 1.65323 23.1626 2.86086 22.5252 3.534C20.3936 5.78414 23.5277 14.3719 25.6477 12.2276Z" fill="url(#paint52_linear_2296_543)"/>
</g>
<path d="M63.3937 25.2573C78.6948 28.2102 104.273 22.1625 99.7912 14.4225C98.8362 12.7735 110.808 23.1945 110.808 23.1945C110.808 23.1945 108.673 29.6528 104.191 32.6957C85.7512 42.0508 67.0639 35.7502 67.0639 35.7502C67.0639 35.7502 59.444 24.4952 63.3937 25.2573Z" fill="url(#paint53_linear_2296_543)"/>
<path style="mix-blend-mode:multiply" d="M63.3937 25.2573C78.6948 28.2102 104.273 22.1625 99.7912 14.4225C98.8362 12.7735 110.808 23.1945 110.808 23.1945C110.808 23.1945 108.673 29.6528 104.191 32.6957C85.7512 42.0508 67.0639 35.7502 67.0639 35.7502C67.0639 35.7502 59.444 24.4952 63.3937 25.2573Z" fill="url(#paint54_linear_2296_543)"/>
<path style="mix-blend-mode:multiply" d="M63.3937 25.2573C78.6948 28.2102 104.273 22.1625 99.7912 14.4225C98.8362 12.7735 110.808 23.1945 110.808 23.1945C110.808 23.1945 108.673 29.6528 104.191 32.6957C85.7512 42.0508 67.0639 35.7502 67.0639 35.7502C67.0639 35.7502 59.444 24.4952 63.3937 25.2573Z" fill="url(#paint55_linear_2296_543)"/>
<path d="M98.8098 3.78783C90.7752 4.99863 77.0961 25.1208 64.7423 26.6756L70.2781 37.3696C70.2781 37.3696 71.5571 37.0901 73.4871 36.6795L68.882 26.8841C81.8246 22.6537 86.8117 14.7126 93.2656 14.6173C99.7194 14.521 105.998 18.6582 107.134 25.5018C108.037 30.9472 102.887 33.3307 102.887 33.3307C109.836 30.7049 113.158 20.2109 112.053 12.8381C110.948 5.46538 106.844 2.57703 98.8098 3.78889V3.78783Z" fill="url(#paint56_linear_2296_543)"/>
<path style="mix-blend-mode:multiply" d="M98.8098 3.78783C90.7752 4.99863 77.0961 25.1208 64.7423 26.6756L68.882 26.8841C81.8246 22.6537 86.8117 14.7126 93.2656 14.6173C99.7194 14.521 105.998 18.6582 107.134 25.5018C108.037 30.9472 102.887 33.3307 102.887 33.3307C109.836 30.7049 113.158 20.2109 112.053 12.8381C110.948 5.46538 106.844 2.57703 98.8098 3.78889V3.78783Z" fill="url(#paint57_linear_2296_543)"/>
<path style="mix-blend-mode:multiply" d="M98.8098 3.78783C90.7752 4.99863 77.0961 25.1208 64.7423 26.6756L68.882 26.8841C81.8246 22.6537 86.8117 14.7126 93.2656 14.6173C99.7194 14.521 105.998 18.6582 107.134 25.5018C108.037 30.9472 102.887 33.3307 102.887 33.3307C109.836 30.7049 113.158 20.2109 112.053 12.8381C110.948 5.46538 106.844 2.57703 98.8098 3.78889V3.78783Z" fill="url(#paint58_linear_2296_543)"/>
<path d="M90.5104 37.487C83.2397 38.5835 76.0873 37.9908 72.8888 37.1304L73.0081 36.6858C77.4591 37.8829 89.6609 38.5528 99.0315 34.7807C103.539 32.9656 106.126 30.8467 106.938 28.3023C107.619 26.1686 107.039 23.7036 105.163 20.7644C103.35 17.9216 99.8746 15.7381 96.0958 15.065C92.9047 14.4966 89.8909 15.0745 87.8258 16.6494C85.2732 18.5958 81.9059 20.8152 78.8162 22.5849C75.2895 24.6053 72.5037 25.8225 70.9746 26.013L70.9187 25.5558C74.2332 25.1451 82.8356 19.8775 87.5483 16.2832C89.7147 14.6311 92.8583 14.0225 96.176 14.612C100.136 15.3169 103.641 17.5236 105.551 20.5168C107.504 23.5776 108.101 26.1707 107.376 28.4431C106.521 31.1261 103.847 33.3392 99.2035 35.2083C96.4609 36.3122 93.4756 37.0404 90.5114 37.487H90.5104Z" fill="url(#paint59_linear_2296_543)"/>
<g style="mix-blend-mode:screen" opacity="0.25">
<path opacity="0.09" d="M103.767 17.0808C102.57 16.0922 100.067 14.62 98.184 14.0739C93.7213 12.7805 99.12 4.15992 102.907 4.08372C104.744 4.05091 107.174 5.16539 108.085 5.92108C112.648 9.69108 107.552 20.2051 103.767 17.0797V17.0808Z" fill="url(#paint60_linear_2296_543)"/>
<path opacity="0.18" d="M103.577 16.6637C102.397 15.7736 100.04 14.4401 98.3085 13.8664C94.0812 12.4662 99.1031 4.2541 102.876 4.15673C104.655 4.11122 106.911 5.14104 107.79 5.87874C112.108 9.47939 107.245 19.4304 103.576 16.6637H103.577Z" fill="url(#paint61_linear_2296_543)"/>
<path opacity="0.27" d="M103.387 16.247C102.222 15.4553 100.014 14.2572 98.4331 13.6592C94.439 12.1478 99.0874 4.3549 102.844 4.23001C104.565 4.17286 106.647 5.11906 107.494 5.83665C111.561 9.27642 106.934 18.658 103.386 16.247H103.387Z" fill="url(#paint62_linear_2296_543)"/>
<path opacity="0.36" d="M103.197 15.829C102.046 15.1369 99.9864 14.0689 98.5576 13.4508C94.7946 11.8209 99.0704 4.45345 102.813 4.3021C104.476 4.23436 106.385 5.09484 107.2 5.79232C111.021 9.06487 106.618 17.8866 103.197 15.829Z" fill="url(#paint63_linear_2296_543)"/>
<path opacity="0.45" d="M103.008 15.412C101.869 14.8203 99.96 13.8784 98.6821 13.2423C95.1502 11.4853 99.0546 4.55394 102.782 4.37401C104.388 4.29675 106.123 5.06938 106.905 5.74886C110.481 8.85313 106.295 17.1202 103.006 15.412H103.008Z" fill="url(#paint64_linear_2296_543)"/>
<path opacity="0.55" d="M102.818 14.9949C101.69 14.5048 99.9347 13.6814 98.8067 13.0347C95.5058 11.1402 99.0377 4.65648 102.75 4.44692C104.298 4.36013 105.86 5.04491 106.609 5.70641C109.941 8.64133 105.966 16.3623 102.817 14.9949H102.818Z" fill="url(#paint65_linear_2296_543)"/>
<path opacity="0.64" d="M102.628 14.5769C101.508 14.1927 99.9104 13.4794 98.9321 12.8264C95.8667 10.7815 99.0229 4.75823 102.72 4.51904C104.21 4.42272 105.599 5.02072 106.316 5.6621C109.403 8.42768 105.635 15.6099 102.629 14.5769H102.628Z" fill="url(#paint66_linear_2296_543)"/>
<path opacity="0.73" d="M102.438 14.16C101.325 13.8837 99.8903 13.273 99.0567 12.6189C96.2371 10.4069 99.0071 4.86305 102.689 4.5921C104.121 4.48626 105.336 4.99641 106.02 5.6198C108.865 8.21392 105.297 14.8691 102.438 14.16Z" fill="url(#paint67_linear_2296_543)"/>
<path opacity="0.82" d="M102.248 13.7427C101.143 13.5808 99.8755 13.0621 99.1812 12.4102C96.6254 10.0129 98.9902 4.9665 102.657 4.6638C104.032 4.5495 105.074 4.96968 105.725 5.57614C108.327 7.9988 104.96 14.1396 102.248 13.7427Z" fill="url(#paint68_linear_2296_543)"/>
<path opacity="0.91" d="M102.057 13.3248C100.959 13.2824 99.865 12.8464 99.3047 12.2018C97.0412 9.60133 98.9744 5.07883 102.625 4.73591C103.941 4.61631 104.812 4.94335 105.428 5.53288C107.794 7.77878 104.624 13.4232 102.057 13.3258V13.3248Z" fill="url(#paint69_linear_2296_543)"/>
<path d="M101.867 12.9079C100.781 12.9925 99.865 12.6316 99.4292 11.9945C97.5012 9.17492 98.9585 5.18161 102.594 4.80906C103.854 4.67993 104.55 4.91913 105.134 5.4896C107.255 7.56617 104.299 12.7184 101.867 12.9079Z" fill="url(#paint70_linear_2296_543)"/>
</g>
<path d="M63.9225 39.9669C60.2998 40.2093 57.3356 40.9946 57.3008 37.8692C57.266 34.7437 57.7936 24.4562 56.4587 22.6336C55.1238 20.811 53.3647 20.4078 53.3647 20.4078C56.1928 18.654 69.6018 19.6669 71.6827 19.7019C73.7637 19.7357 75.9955 22.0197 76.7205 25.0986C77.4454 28.1775 76.9178 35.8593 76.9632 36.5515C77.0096 37.2436 76.4514 39.2027 72.6166 39.6917C68.6753 40.1934 63.9214 39.9669 63.9214 39.9669H63.9225Z" fill="url(#paint71_linear_2296_543)"/>
<path style="mix-blend-mode:multiply" d="M63.9225 39.9669C60.2998 40.2093 57.3356 40.9946 57.3008 37.8692C57.266 34.7437 57.7936 24.4562 56.4587 22.6336C55.1238 20.811 53.3647 20.4078 53.3647 20.4078C56.1928 18.654 69.6018 19.6669 71.6827 19.7019C73.7637 19.7357 75.9955 22.0197 76.7205 25.0986C77.4454 28.1775 76.9178 35.8593 76.9632 36.5515C77.0096 37.2436 76.4514 39.2027 72.6166 39.6917C68.6753 40.1934 63.9214 39.9669 63.9214 39.9669H63.9225Z" fill="url(#paint72_linear_2296_543)"/>
<g style="mix-blend-mode:multiply" opacity="0.3">
<path d="M58.0025 40.0697C57.9466 40.0697 57.8854 40.057 57.8231 40.0232C57.2628 39.7268 57.0148 37.8513 57.0866 34.4507C57.1784 30.0849 57.1963 24.1198 56.3015 22.7354C55.5966 21.6442 54.1519 20.6366 53.6296 20.7086L53.5779 20.335C54.4411 20.2164 55.9923 21.5637 56.617 22.5301C57.3504 23.6657 57.611 27.3447 57.4622 34.4581C57.3567 39.4802 57.9983 39.6898 58.0046 39.6919C57.9941 39.6898 57.9772 39.7014 57.9719 39.7046L58.1904 40.0115C58.146 40.0433 58.0795 40.0687 58.0025 40.0687V40.0697Z" fill="url(#paint73_linear_2296_543)"/>
</g>
</g>
<defs>
<radialGradient id="paint0_radial_2296_543" cx="0" cy="0" r="1" gradientUnits="userSpaceOnUse" gradientTransform="translate(152.183 77.358) rotate(178.185) scale(119.682 120.038)">
<stop stop-color="#E0CCD3"/>
<stop offset="1" stop-color="white"/>
</radialGradient>
<linearGradient id="paint1_linear_2296_543" x1="101.499" y1="97.5432" x2="12.5218" y2="80.6352" gradientUnits="userSpaceOnUse">
<stop offset="0.27" stop-color="#640025"/>
<stop offset="0.37" stop-color="white"/>
</linearGradient>
<linearGradient id="paint2_linear_2296_543" x1="-12.7364" y1="99.3214" x2="52.6657" y2="86.3678" gradientUnits="userSpaceOnUse">
<stop stop-color="#640025"/>
<stop offset="1" stop-color="white"/>
</linearGradient>
<linearGradient id="paint3_linear_2296_543" x1="79.4326" y1="98.256" x2="86.0617" y2="99.2579" gradientUnits="userSpaceOnUse">
<stop stop-color="white"/>
<stop offset="0.24" stop-color="#FDFCFC"/>
<stop offset="0.37" stop-color="#F8F4F5"/>
<stop offset="0.48" stop-color="#EFE6E9"/>
<stop offset="0.58" stop-color="#E3D2D8"/>
<stop offset="0.67" stop-color="#D4B8C2"/>
<stop offset="0.75" stop-color="#C098A7"/>
<stop offset="0.83" stop-color="#A97287"/>
<stop offset="0.9" stop-color="#8F4661"/>
<stop offset="0.97" stop-color="#711638"/>
<stop offset="1" stop-color="#640025"/>
</linearGradient>
<linearGradient id="paint4_linear_2296_543" x1="54.8733" y1="97.9217" x2="42.8465" y2="95.9666" gradientUnits="userSpaceOnUse">
<stop offset="0.29" stop-color="white"/>
<stop offset="0.43" stop-color="#FDFCFC"/>
<stop offset="0.51" stop-color="#F8F4F5"/>
<stop offset="0.58" stop-color="#EFE6E9"/>
<stop offset="0.64" stop-color="#E3D2D8"/>
<stop offset="0.69" stop-color="#D4B8C2"/>
<stop offset="0.74" stop-color="#C098A7"/>
<stop offset="0.78" stop-color="#A97287"/>
<stop offset="0.83" stop-color="#8F4661"/>
<stop offset="0.87" stop-color="#711638"/>
<stop offset="0.89" stop-color="#640025"/>
</linearGradient>
<linearGradient id="paint5_linear_2296_543" x1="120.321" y1="49.6844" x2="5.91937" y2="53.2889" gradientUnits="userSpaceOnUse">
<stop stop-color="#E8D9DE"/>
<stop offset="0.23" stop-color="#EFE5E8"/>
<stop offset="0.68" stop-color="#FAF8F9"/>
<stop offset="1" stop-color="white"/>
</linearGradient>
<linearGradient id="paint6_linear_2296_543" x1="86.9887" y1="63.5358" x2="92.9282" y2="64.7817" gradientUnits="userSpaceOnUse">
<stop stop-color="white"/>
<stop offset="0.19" stop-color="#FDFCFC"/>
<stop offset="0.3" stop-color="#F8F4F5"/>
<stop offset="0.39" stop-color="#EFE6E9"/>
<stop offset="0.47" stop-color="#E3D2D8"/>
<stop offset="0.54" stop-color="#D4B8C2"/>
<stop offset="0.61" stop-color="#C098A7"/>
<stop offset="0.67" stop-color="#A97287"/>
<stop offset="0.73" stop-color="#8F4661"/>
<stop offset="0.78" stop-color="#711638"/>
<stop offset="0.81" stop-color="#640025"/>
</linearGradient>
<linearGradient id="paint7_linear_2296_543" x1="53.7995" y1="59.9891" x2="48.0417" y2="58.8734" gradientUnits="userSpaceOnUse">
<stop stop-color="white"/>
<stop offset="0.15" stop-color="#FDFCFC"/>
<stop offset="0.24" stop-color="#F8F4F5"/>
<stop offset="0.31" stop-color="#EFE6E9"/>
<stop offset="0.37" stop-color="#E3D2D8"/>
<stop offset="0.43" stop-color="#D4B8C2"/>
<stop offset="0.48" stop-color="#C098A7"/>
<stop offset="0.53" stop-color="#A97287"/>
<stop offset="0.57" stop-color="#8F4661"/>
<stop offset="0.62" stop-color="#711638"/>
<stop offset="0.64" stop-color="#640025"/>
</linearGradient>
<linearGradient id="paint8_linear_2296_543" x1="113.148" y1="60.5243" x2="14.6482" y2="41.8085" gradientUnits="userSpaceOnUse">
<stop offset="0.27" stop-color="#640025"/>
<stop offset="0.37" stop-color="white"/>
</linearGradient>
<linearGradient id="paint9_linear_2296_543" x1="-10.7063" y1="66.6111" x2="57.1828" y2="53.1644" gradientUnits="userSpaceOnUse">
<stop stop-color="#640025"/>
<stop offset="1" stop-color="white"/>
</linearGradient>
<linearGradient id="paint10_linear_2296_543" x1="9.63199" y1="36.7747" x2="118.5" y2="37.021" gradientUnits="userSpaceOnUse">
<stop stop-color="#040404"/>
<stop offset="1"/>
</linearGradient>
<linearGradient id="paint11_linear_2296_543" x1="9.87078" y1="36.6126" x2="117.541" y2="37.1747" gradientUnits="userSpaceOnUse">
<stop stop-color="#080808"/>
<stop offset="1"/>
</linearGradient>
<linearGradient id="paint12_linear_2296_543" x1="10.2173" y1="36.3711" x2="118.175" y2="37.3856" gradientUnits="userSpaceOnUse">
<stop stop-color="#0B0B0B"/>
<stop offset="1"/>
</linearGradient>
<linearGradient id="paint13_linear_2296_543" x1="10.2271" y1="36.0108" x2="116.755" y2="37.6978" gradientUnits="userSpaceOnUse">
<stop stop-color="#0F0F0F"/>
<stop offset="1"/>
</linearGradient>
<linearGradient id="paint14_linear_2296_543" x1="10.3772" y1="35.419" x2="117.708" y2="38.2399" gradientUnits="userSpaceOnUse">
<stop stop-color="#131313"/>
<stop offset="1"/>
</linearGradient>
<linearGradient id="paint15_linear_2296_543" x1="9.62631" y1="34.2291" x2="114.905" y2="39.1791" gradientUnits="userSpaceOnUse">
<stop stop-color="#171716"/>
<stop offset="1"/>
</linearGradient>
<linearGradient id="paint16_linear_2296_543" x1="8.39163" y1="30.2147" x2="116.785" y2="42.1268" gradientUnits="userSpaceOnUse">
<stop stop-color="#1B1B1A"/>
<stop offset="1"/>
</linearGradient>
<linearGradient id="paint17_linear_2296_543" x1="-9.21322" y1="-13.2814" x2="-9.18661" y2="-11.1868" gradientUnits="userSpaceOnUse">
<stop stop-color="#1F1F1E"/>
<stop offset="1"/>
</linearGradient>
<linearGradient id="paint18_linear_2296_543" x1="129.117" y1="27.9994" x2="22.2667" y2="43.1992" gradientUnits="userSpaceOnUse">
<stop stop-color="#222222"/>
<stop offset="1"/>
</linearGradient>
<linearGradient id="paint19_linear_2296_543" x1="120.65" y1="32.8489" x2="17.722" y2="40.9435" gradientUnits="userSpaceOnUse">
<stop stop-color="#262626"/>
<stop offset="1"/>
</linearGradient>
<linearGradient id="paint20_linear_2296_543" x1="121.082" y1="33.8773" x2="17.1351" y2="39.8712" gradientUnits="userSpaceOnUse">
<stop stop-color="#2A2A29"/>
<stop offset="1"/>
</linearGradient>
<linearGradient id="paint21_linear_2296_543" x1="118.67" y1="34.5137" x2="16.4932" y2="39.3536" gradientUnits="userSpaceOnUse">
<stop stop-color="#2E2E2D"/>
<stop offset="1"/>
</linearGradient>
<linearGradient id="paint22_linear_2296_543" x1="119.19" y1="34.801" x2="16.6376" y2="39.0149" gradientUnits="userSpaceOnUse">
<stop stop-color="#323231"/>
<stop offset="1"/>
</linearGradient>
<linearGradient id="paint23_linear_2296_543" x1="117.725" y1="35.0752" x2="16.4212" y2="38.7964" gradientUnits="userSpaceOnUse">
<stop stop-color="#353535"/>
<stop offset="1"/>
</linearGradient>
<linearGradient id="paint24_linear_2296_543" x1="118.137" y1="35.2106" x2="16.6769" y2="38.637" gradientUnits="userSpaceOnUse">
<stop stop-color="#393938"/>
<stop offset="1"/>
</linearGradient>
<linearGradient id="paint25_linear_2296_543" x1="117.051" y1="35.3593" x2="16.5925" y2="38.5245" gradientUnits="userSpaceOnUse">
<stop stop-color="#3D3D3C"/>
<stop offset="1"/>
</linearGradient>
<linearGradient id="paint26_linear_2296_543" x1="59.3576" y1="37.2462" x2="58.0667" y2="40.8202" gradientUnits="userSpaceOnUse">
<stop offset="0.18" stop-color="#640025"/>
<stop offset="0.21" stop-color="#751C3D"/>
<stop offset="0.28" stop-color="#95516A"/>
<stop offset="0.35" stop-color="#B17F92"/>
<stop offset="0.42" stop-color="#C9A6B3"/>
<stop offset="0.5" stop-color="#DCC6CF"/>
<stop offset="0.57" stop-color="#EBDFE4"/>
<stop offset="0.65" stop-color="#F6F1F3"/>
<stop offset="0.74" stop-color="#FCFBFC"/>
<stop offset="0.84" stop-color="white"/>
</linearGradient>
<linearGradient id="paint27_linear_2296_543" x1="63.173" y1="57.6853" x2="55.6874" y2="122.634" gradientUnits="userSpaceOnUse">
<stop stop-color="#FF1E32"/>
<stop offset="0.41" stop-color="#FD1D31"/>
<stop offset="0.56" stop-color="#F61C31"/>
<stop offset="0.67" stop-color="#EA1A30"/>
<stop offset="0.75" stop-color="#D9162E"/>
<stop offset="0.82" stop-color="#C3122D"/>
<stop offset="0.89" stop-color="#A80D2A"/>
<stop offset="0.95" stop-color="#880728"/>
<stop offset="1" stop-color="#640025"/>
</linearGradient>
<linearGradient id="paint28_linear_2296_543" x1="83.1881" y1="77.9498" x2="58.3502" y2="20.0091" gradientUnits="userSpaceOnUse">
<stop offset="0.27"/>
<stop offset="0.37" stop-color="white"/>
</linearGradient>
<linearGradient id="paint29_linear_2296_543" x1="51.0048" y1="3.48684" x2="67.6143" y2="41.0095" gradientUnits="userSpaceOnUse">
<stop offset="0.27"/>
<stop offset="0.37" stop-color="white"/>
</linearGradient>
<linearGradient id="paint30_linear_2296_543" x1="73.4126" y1="34.5176" x2="75.3761" y2="39.8439" gradientUnits="userSpaceOnUse">
<stop offset="0.25" stop-color="#640025"/>
<stop offset="0.31" stop-color="#68072B"/>
<stop offset="0.41" stop-color="#741B3C"/>
<stop offset="0.53" stop-color="#893D59"/>
<stop offset="0.66" stop-color="#A56C81"/>
<stop offset="0.81" stop-color="#CAA8B4"/>
<stop offset="0.97" stop-color="#F5EFF2"/>
<stop offset="1" stop-color="white"/>
</linearGradient>
<linearGradient id="paint31_linear_2296_543" x1="62.0185" y1="56.9653" x2="47.643" y2="123.393" gradientUnits="userSpaceOnUse">
<stop stop-color="#FF1E32"/>
<stop offset="0.41" stop-color="#FD1D31"/>
<stop offset="0.56" stop-color="#F61C31"/>
<stop offset="0.67" stop-color="#EA1A30"/>
<stop offset="0.75" stop-color="#D9162E"/>
<stop offset="0.82" stop-color="#C3122D"/>
<stop offset="0.89" stop-color="#A80D2A"/>
<stop offset="0.95" stop-color="#880728"/>
<stop offset="1" stop-color="#640025"/>
</linearGradient>
<linearGradient id="paint32_linear_2296_543" x1="42.1985" y1="128.068" x2="58.0933" y2="68.4661" gradientUnits="userSpaceOnUse">
<stop stop-color="#868685"/>
<stop offset="1" stop-color="white"/>
</linearGradient>
<linearGradient id="paint33_linear_2296_543" x1="80.8695" y1="0.370524" x2="51.8613" y2="73.1319" gradientUnits="userSpaceOnUse">
<stop offset="0.31"/>
<stop offset="0.37" stop-color="white"/>
</linearGradient>
<radialGradient id="paint34_radial_2296_543" cx="0" cy="0" r="1" gradientUnits="userSpaceOnUse" gradientTransform="translate(62.1774 39.6421) rotate(178.185) scale(44.0255 11.8005)">
<stop/>
<stop offset="0.1" stop-color="#2D2D2D"/>
<stop offset="0.23" stop-color="#646464"/>
<stop offset="0.37" stop-color="#939393"/>
<stop offset="0.5" stop-color="#BABABA"/>
<stop offset="0.63" stop-color="#D8D8D8"/>
<stop offset="0.76" stop-color="#EDEDED"/>
<stop offset="0.88" stop-color="#FAFAFA"/>
<stop offset="1" stop-color="white"/>
</radialGradient>
<linearGradient id="paint35_linear_2296_543" x1="20.9722" y1="11.9274" x2="67.6869" y2="41.1329" gradientUnits="userSpaceOnUse">
<stop stop-color="#640025"/>
<stop offset="1" stop-color="#FF1E32"/>
</linearGradient>
<linearGradient id="paint36_linear_2296_543" x1="27.3783" y1="8.11864" x2="44.0892" y2="25.8642" gradientUnits="userSpaceOnUse">
<stop/>
<stop offset="0.04" stop-color="#171717"/>
<stop offset="0.15" stop-color="#4C4C4C"/>
<stop offset="0.26" stop-color="#7C7C7C"/>
<stop offset="0.37" stop-color="#A4A4A4"/>
<stop offset="0.49" stop-color="#C5C5C5"/>
<stop offset="0.6" stop-color="#DEDEDE"/>
<stop offset="0.73" stop-color="#F0F0F0"/>
<stop offset="0.85" stop-color="#FBFBFB"/>
<stop offset="1" stop-color="white"/>
</linearGradient>
<linearGradient id="paint37_linear_2296_543" x1="59.6467" y1="23.1202" x2="46.1658" y2="23.5577" gradientUnits="userSpaceOnUse">
<stop offset="0.27"/>
<stop offset="0.3" stop-color="#171717"/>
<stop offset="0.38" stop-color="#4C4C4C"/>
<stop offset="0.46" stop-color="#7C7C7C"/>
<stop offset="0.54" stop-color="#A4A4A4"/>
<stop offset="0.63" stop-color="#C5C5C5"/>
<stop offset="0.71" stop-color="#DEDEDE"/>
<stop offset="0.8" stop-color="#F0F0F0"/>
<stop offset="0.89" stop-color="#FBFBFB"/>
<stop offset="1" stop-color="white"/>
</linearGradient>
<linearGradient id="paint38_linear_2296_543" x1="53.6378" y1="15.6323" x2="0.158848" y2="28.3896" gradientUnits="userSpaceOnUse">
<stop offset="0.25" stop-color="#FF1E32"/>
<stop offset="0.32" stop-color="#F51C31"/>
<stop offset="0.45" stop-color="#DA162E"/>
<stop offset="0.6" stop-color="#AE0E2B"/>
<stop offset="0.79" stop-color="#720226"/>
<stop offset="0.83" stop-color="#640025"/>
</linearGradient>
<linearGradient id="paint39_linear_2296_543" x1="10.7095" y1="31.8305" x2="35.6711" y2="18.3395" gradientUnits="userSpaceOnUse">
<stop offset="0.21"/>
<stop offset="0.3" stop-color="#434343"/>
<stop offset="0.4" stop-color="#858585"/>
<stop offset="0.5" stop-color="#B9B9B9"/>
<stop offset="0.58" stop-color="#DFDFDF"/>
<stop offset="0.64" stop-color="#F6F6F6"/>
<stop offset="0.68" stop-color="white"/>
</linearGradient>
<linearGradient id="paint40_linear_2296_543" x1="55.5294" y1="28.7983" x2="44.8067" y2="23.2816" gradientUnits="userSpaceOnUse">
<stop/>
<stop offset="0.14" stop-color="#434343"/>
<stop offset="0.28" stop-color="#858585"/>
<stop offset="0.42" stop-color="#B9B9B9"/>
<stop offset="0.53" stop-color="#DFDFDF"/>
<stop offset="0.62" stop-color="#F6F6F6"/>
<stop offset="0.68" stop-color="white"/>
</linearGradient>
<linearGradient id="paint41_linear_2296_543" x1="34.8009" y1="22.5725" x2="58.6866" y2="30.1687" gradientUnits="userSpaceOnUse">
<stop stop-color="#FF616F"/>
<stop offset="0.32" stop-color="#FD5F6E"/>
<stop offset="0.43" stop-color="#F65B6A"/>
<stop offset="0.52" stop-color="#EA5465"/>
<stop offset="0.58" stop-color="#D9495D"/>
<stop offset="0.64" stop-color="#C33B52"/>
<stop offset="0.69" stop-color="#A82A45"/>
<stop offset="0.73" stop-color="#881736"/>
<stop offset="0.77" stop-color="#640025"/>
</linearGradient>
<linearGradient id="paint42_linear_2296_543" x1="30.9161" y1="2.31491" x2="21.921" y2="13.6079" gradientUnits="userSpaceOnUse">
<stop stop-color="#171717"/>
<stop offset="1" stop-color="#030303"/>
</linearGradient>
<linearGradient id="paint43_linear_2296_543" x1="30.6803" y1="2.50514" x2="21.8609" y2="13.2981" gradientUnits="userSpaceOnUse">
<stop stop-color="#2E2E2E"/>
<stop offset="1" stop-color="#060605"/>
</linearGradient>
<linearGradient id="paint44_linear_2296_543" x1="30.4315" y1="2.70092" x2="21.8047" y2="12.9913" gradientUnits="userSpaceOnUse">
<stop stop-color="#464646"/>
<stop offset="1" stop-color="#090908"/>
</linearGradient>
<linearGradient id="paint45_linear_2296_543" x1="30.18" y1="2.89291" x2="21.7642" y2="12.684" gradientUnits="userSpaceOnUse">
<stop stop-color="#5D5D5D"/>
<stop offset="1" stop-color="#0C0C0B"/>
</linearGradient>
<linearGradient id="paint46_linear_2296_543" x1="29.9147" y1="3.08438" x2="21.7244" y2="12.3768" gradientUnits="userSpaceOnUse">
<stop stop-color="#747474"/>
<stop offset="1" stop-color="#0F0F0E"/>
</linearGradient>
<linearGradient id="paint47_linear_2296_543" x1="29.65" y1="3.27132" x2="21.7008" y2="12.0685" gradientUnits="userSpaceOnUse">
<stop stop-color="#8B8B8B"/>
<stop offset="1" stop-color="#111110"/>
</linearGradient>
<linearGradient id="paint48_linear_2296_543" x1="29.3778" y1="3.44802" x2="21.6843" y2="11.7524" gradientUnits="userSpaceOnUse">
<stop stop-color="#A2A2A2"/>
<stop offset="1" stop-color="#141413"/>
</linearGradient>
<linearGradient id="paint49_linear_2296_543" x1="29.0968" y1="3.62256" x2="21.6717" y2="11.4399" gradientUnits="userSpaceOnUse">
<stop stop-color="#B9B9B9"/>
<stop offset="1" stop-color="#171716"/>
</linearGradient>
<linearGradient id="paint50_linear_2296_543" x1="28.8174" y1="3.77896" x2="21.6745" y2="11.1146" gradientUnits="userSpaceOnUse">
<stop stop-color="#D1D1D1"/>
<stop offset="1" stop-color="#1A1A19"/>
</linearGradient>
<linearGradient id="paint51_linear_2296_543" x1="28.5405" y1="3.92609" x2="21.6896" y2="10.7882" gradientUnits="userSpaceOnUse">
<stop stop-color="#E8E8E8"/>
<stop offset="1" stop-color="#1D1D1B"/>
</linearGradient>
<linearGradient id="paint52_linear_2296_543" x1="28.2573" y1="4.05185" x2="21.7097" y2="10.4501" gradientUnits="userSpaceOnUse">
<stop stop-color="white"/>
<stop offset="1" stop-color="#20201E"/>
</linearGradient>
<linearGradient id="paint53_linear_2296_543" x1="109.157" y1="16.1356" x2="59.8334" y2="40.6527" gradientUnits="userSpaceOnUse">
<stop stop-color="#640025"/>
<stop offset="1" stop-color="#FF1E32"/>
</linearGradient>
<linearGradient id="paint54_linear_2296_543" x1="103.157" y1="11.7191" x2="84.8059" y2="27.75" gradientUnits="userSpaceOnUse">
<stop/>
<stop offset="0.04" stop-color="#171717"/>
<stop offset="0.15" stop-color="#4C4C4C"/>
<stop offset="0.26" stop-color="#7C7C7C"/>
<stop offset="0.37" stop-color="#A4A4A4"/>
<stop offset="0.49" stop-color="#C5C5C5"/>
<stop offset="0.6" stop-color="#DEDEDE"/>
<stop offset="0.73" stop-color="#F0F0F0"/>
<stop offset="0.85" stop-color="#FBFBFB"/>
<stop offset="1" stop-color="white"/>
</linearGradient>
<linearGradient id="paint55_linear_2296_543" x1="69.5891" y1="23.5023" x2="82.9636" y2="25.245" gradientUnits="userSpaceOnUse">
<stop offset="0.27"/>
<stop offset="0.3" stop-color="#171717"/>
<stop offset="0.38" stop-color="#4C4C4C"/>
<stop offset="0.46" stop-color="#7C7C7C"/>
<stop offset="0.54" stop-color="#A4A4A4"/>
<stop offset="0.63" stop-color="#C5C5C5"/>
<stop offset="0.71" stop-color="#DEDEDE"/>
<stop offset="0.8" stop-color="#F0F0F0"/>
<stop offset="0.89" stop-color="#FBFBFB"/>
<stop offset="1" stop-color="white"/>
</linearGradient>
<linearGradient id="paint56_linear_2296_543" x1="76.2872" y1="16.6315" x2="128.279" y2="34.526" gradientUnits="userSpaceOnUse">
<stop offset="0.13" stop-color="#FF1E32"/>
<stop offset="1" stop-color="#640025"/>
</linearGradient>
<linearGradient id="paint57_linear_2296_543" x1="117.446" y1="36.9423" x2="93.9082" y2="21.0891" gradientUnits="userSpaceOnUse">
<stop offset="0.21"/>
<stop offset="0.3" stop-color="#434343"/>
<stop offset="0.4" stop-color="#858585"/>
<stop offset="0.5" stop-color="#B9B9B9"/>
<stop offset="0.58" stop-color="#DFDFDF"/>
<stop offset="0.64" stop-color="#F6F6F6"/>
<stop offset="0.68" stop-color="white"/>
</linearGradient>
<linearGradient id="paint58_linear_2296_543" x1="73.1364" y1="29.555" x2="84.3403" y2="25.1061" gradientUnits="userSpaceOnUse">
<stop/>
<stop offset="0.14" stop-color="#434343"/>
<stop offset="0.28" stop-color="#858585"/>
<stop offset="0.42" stop-color="#B9B9B9"/>
<stop offset="0.53" stop-color="#DFDFDF"/>
<stop offset="0.62" stop-color="#F6F6F6"/>
<stop offset="0.68" stop-color="white"/>
</linearGradient>
<linearGradient id="paint59_linear_2296_543" x1="94.3692" y1="25.3804" x2="69.8637" y2="30.6223" gradientUnits="userSpaceOnUse">
<stop stop-color="#FF616F"/>
<stop offset="0.29" stop-color="#FD5F6E"/>
<stop offset="0.4" stop-color="#F65B6A"/>
<stop offset="0.48" stop-color="#EA5465"/>
<stop offset="0.54" stop-color="#D9495D"/>
<stop offset="0.59" stop-color="#C33B52"/>
<stop offset="0.64" stop-color="#A82A45"/>
<stop offset="0.68" stop-color="#881736"/>
<stop offset="0.71" stop-color="#640025"/>
</linearGradient>
<linearGradient id="paint60_linear_2296_543" x1="96.5823" y1="10.7841" x2="109.96" y2="10.9494" gradientUnits="userSpaceOnUse">
<stop stop-color="#171717"/>
<stop offset="1" stop-color="#030303"/>
</linearGradient>
<linearGradient id="paint61_linear_2296_543" x1="96.8612" y1="10.4914" x2="109.62" y2="10.8068" gradientUnits="userSpaceOnUse">
<stop stop-color="#2E2E2E"/>
<stop offset="1" stop-color="#060605"/>
</linearGradient>
<linearGradient id="paint62_linear_2296_543" x1="97.1108" y1="10.2261" x2="109.245" y2="10.6781" gradientUnits="userSpaceOnUse">
<stop stop-color="#464646"/>
<stop offset="1" stop-color="#090908"/>
</linearGradient>
<linearGradient id="paint63_linear_2296_543" x1="97.3598" y1="9.95583" x2="108.866" y2="10.5269" gradientUnits="userSpaceOnUse">
<stop stop-color="#5D5D5D"/>
<stop offset="1" stop-color="#0C0C0B"/>
</linearGradient>
<linearGradient id="paint64_linear_2296_543" x1="97.5794" y1="9.70271" x2="108.453" y2="10.3772" gradientUnits="userSpaceOnUse">
<stop stop-color="#747474"/>
<stop offset="1" stop-color="#0F0F0E"/>
</linearGradient>
<linearGradient id="paint65_linear_2296_543" x1="97.7981" y1="9.45044" x2="108.036" y2="10.2126" gradientUnits="userSpaceOnUse">
<stop stop-color="#8B8B8B"/>
<stop offset="1" stop-color="#111110"/>
</linearGradient>
<linearGradient id="paint66_linear_2296_543" x1="97.9913" y1="9.20187" x2="107.59" y2="10.0358" gradientUnits="userSpaceOnUse">
<stop stop-color="#A2A2A2"/>
<stop offset="1" stop-color="#141413"/>
</linearGradient>
<linearGradient id="paint67_linear_2296_543" x1="98.1718" y1="8.97915" x2="107.128" y2="9.87044" gradientUnits="userSpaceOnUse">
<stop stop-color="#B9B9B9"/>
<stop offset="1" stop-color="#171716"/>
</linearGradient>
<linearGradient id="paint68_linear_2296_543" x1="98.3389" y1="8.74372" x2="106.647" y2="9.67431" gradientUnits="userSpaceOnUse">
<stop stop-color="#D1D1D1"/>
<stop offset="1" stop-color="#1A1A19"/>
</linearGradient>
<linearGradient id="paint69_linear_2296_543" x1="98.508" y1="8.52527" x2="106.161" y2="9.47837" gradientUnits="userSpaceOnUse">
<stop stop-color="#E8E8E8"/>
<stop offset="1" stop-color="#1D1D1B"/>
</linearGradient>
<linearGradient id="paint70_linear_2296_543" x1="98.6601" y1="8.32301" x2="105.643" y2="9.28043" gradientUnits="userSpaceOnUse">
<stop stop-color="white"/>
<stop offset="1" stop-color="#20201E"/>
</linearGradient>
<linearGradient id="paint71_linear_2296_543" x1="79.0085" y1="9.10146" x2="56.4189" y2="41.0832" gradientUnits="userSpaceOnUse">
<stop offset="0.45" stop-color="#FF1E32"/>
<stop offset="1" stop-color="#640025"/>
</linearGradient>
<linearGradient id="paint72_linear_2296_543" x1="65.7504" y1="22.6073" x2="63.8907" y2="41.4013" gradientUnits="userSpaceOnUse">
<stop offset="0.44" stop-color="white"/>
<stop offset="0.54" stop-color="#FBFBFB"/>
<stop offset="0.62" stop-color="#F2F2F1"/>
<stop offset="0.69" stop-color="#E1E1E1"/>
<stop offset="0.75" stop-color="#CACAC9"/>
<stop offset="0.82" stop-color="#ABABAB"/>
<stop offset="0.88" stop-color="#868685"/>
<stop offset="0.93" stop-color="#5A5A59"/>
<stop offset="0.99" stop-color="#292927"/>
<stop offset="1" stop-color="#20201E"/>
</linearGradient>
<linearGradient id="paint73_linear_2296_543" x1="56.8219" y1="20.636" x2="54.9283" y2="39.7689" gradientUnits="userSpaceOnUse">
<stop offset="0.44"/>
<stop offset="0.66" stop-color="#030302"/>
<stop offset="0.83" stop-color="#0D0D0C"/>
<stop offset="0.98" stop-color="#1D1D1B"/>
<stop offset="1" stop-color="#20201E"/>
</linearGradient>
<clipPath id="clip0_2296_543">
<rect width="125" height="129" fill="white"/>
</clipPath>
</defs>
</svg>
