<svg width="52" height="49" viewBox="0 0 52 49" fill="none" xmlns="http://www.w3.org/2000/svg">
<path d="M7.32687 48.0496L2.01048e-05 27.1196L1.14144 23.7713L7.32687 48.0496Z" fill="#AA1B1B"/>
<path d="M21.209 44.5104L22.3585 41.972L24.4986 43.6723L35.0428 40.9852L36.3752 38.2177L38.0973 40.2074L51.9834 36.6661L45.798 12.3898L1.1415 23.7713L7.32694 48.0496L21.209 44.5104Z" fill="#FF4840"/>
<g opacity="0.25">
<path d="M35.1996 38.8186C35.089 38.4026 23.2366 41.5439 23.1 41.7811C22.5011 42.8242 35.4146 39.6346 35.1996 38.8186Z" fill="white"/>
</g>
<g opacity="0.25">
<path d="M45.0343 13.8108C44.9459 13.5193 3.52083 24.1632 2.90992 24.4627C0.227162 25.7751 45.2092 14.3815 45.0343 13.8108Z" fill="white"/>
</g>
<path d="M20.9798 43.6723C21.86 43.4472 22.9171 42.169 22.4951 39.8778C22.1615 38.0609 18.1886 17.3862 17.7826 15.7864C17.5817 14.9945 16.8583 13.9957 15.5962 12.2954C14.4106 10.6976 12.7849 8.50691 12.5899 7.32917C12.2604 5.3435 16.9326 3.02419 19.4244 2.38909L19.8505 2.28056C23.3712 1.38419 27.4908 1.33797 28.2203 3.35782C28.6262 4.47928 28.2404 7.1905 27.9571 9.17215C27.6596 11.2543 27.5029 12.4722 27.7039 13.2601C28.1078 14.8478 34.5183 34.9116 35.095 36.6682C35.8205 38.8789 37.0202 39.5844 38.4188 39.2286L37.7898 37.6509C37.7115 37.6509 36.8896 37.6228 36.4173 36.1858C35.7923 34.2825 29.4421 14.3916 29.0663 12.9124C28.9558 12.4742 29.1809 10.8805 29.3638 9.59823C29.7255 7.05182 30.1012 4.41898 29.5225 2.81919C28.0615 -1.22854 21.426 0.120035 19.4265 0.628511L19.0004 0.737043C18.914 0.759149 10.4598 3.11865 11.1873 7.50403C11.4626 9.16814 13.0361 11.2905 14.5593 13.3405C15.337 14.3876 16.3056 15.6919 16.4181 16.1341C16.7759 17.5349 20.6141 37.4339 21.1025 40.0888C21.3878 41.6464 20.6061 42.0283 20.598 42.0303L20.9778 43.6703L20.9798 43.6723Z" fill="#BAAEAE"/>
<path d="M20.998 44.5727C21.1306 43.612 20.4473 40.1813 19.8987 40.2416C19.3501 40.3019 6.26585 43.7004 6.26585 43.7004C6.26585 43.7004 7.11188 47.4226 7.34297 47.9451C7.57407 48.4677 20.998 44.5707 20.998 44.5707L20.998 44.5727Z" fill="#AA1B1B"/>
<g opacity="0.25">
<path d="M19.8706 42.7277C19.76 42.3117 7.90764 45.453 7.77099 45.6901C7.17214 46.7332 20.0856 43.5437 19.8706 42.7277Z" fill="white"/>
</g>
<path d="M51.9834 36.6661C52.116 35.7055 51.4287 32.2747 50.8801 32.337C50.3315 32.3973 37.2493 35.812 37.2493 35.812C37.2493 35.812 38.0993 39.5341 38.3304 40.0567C38.5615 40.5792 51.9813 36.6682 51.9813 36.6682L51.9834 36.6661Z" fill="#AA1B1B"/>
<g opacity="0.25">
<path d="M50.9947 34.6925C50.8138 33.9971 38.9795 37.2148 38.877 37.5786C38.4208 39.1824 51.3524 36.0572 50.9947 34.6925Z" fill="white"/>
</g>
</svg>
