<svg width="73" height="49" viewBox="0 0 73 49" fill="none" xmlns="http://www.w3.org/2000/svg">
<path d="M3.08776 9.92943C3.08776 9.92943 0.396663 8.33467 0.602101 8.25019C0.807539 8.1657 3.37373 8.97752 3.37373 8.97752L4.98264 10.2554L3.08695 9.92897L3.08776 9.92943Z" fill="#98A83D"/>
<path d="M9.11094 14.501L3.08724 9.93C3.08724 9.93 3.79294 10.0944 3.99447 9.81641C4.196 9.53846 3.37449 8.97774 3.37449 8.97774L11.13 10.6315L9.11094 14.501Z" fill="#F8B976"/>
<path d="M70.9184 41.2462L70.3038 42.5896L9.45352 14.7388C9.0998 14.5767 8.94462 14.1587 9.10621 13.8058L9.13516 13.7426C9.29722 13.3889 9.71523 13.2338 10.0681 13.3954L70.9184 41.2462Z" fill="#BECC69"/>
<path d="M71.5331 39.9029L70.9185 41.2463L10.0681 13.3955C9.71443 13.2334 9.55925 12.8154 9.72084 12.4626L9.74979 12.3993C9.91184 12.0457 10.3298 11.8905 10.6828 12.0522L71.5331 39.9029Z" fill="#ACC253"/>
<path d="M72.1478 38.5594L71.5331 39.9028L10.6828 12.052C10.3291 11.8899 10.1739 11.4719 10.3355 11.1191L10.3645 11.0558C10.5265 10.7022 10.9445 10.547 11.2974 10.7087L72.1478 38.5594Z" fill="#98A83D"/>
</svg>
