<svg width="74" height="30" viewBox="0 0 74 30" fill="none" xmlns="http://www.w3.org/2000/svg">
<path d="M0.375667 27.385C-0.12494 26.0491 -0.0834305 24.6871 0.255063 24.56L4.435 22.9932L6.32072 28.0271L2.14078 29.5939C1.80099 29.721 0.969667 28.9726 0.374385 27.385H0.375667Z" fill="#FF4840"/>
<path d="M69.0536 0.956021C69.0536 0.956021 73.4683 -0.234688 73.3334 0.0415864C73.1998 0.319158 69.6917 2.09614 69.6917 2.09614L66.7321 2.51509L69.0536 0.954723V0.956021Z" fill="#323232"/>
<path d="M58.1829 2.71746L69.0536 0.956055C69.0536 0.956055 68.147 1.49823 68.2093 1.94571C68.2715 2.3932 69.6929 2.09746 69.6929 2.09746L59.8818 8.19107L58.1842 2.71876L58.1829 2.71746Z" fill="#F8B976"/>
<path d="M6.63068 24.0048L5.9498 22.1889L57.7471 2.77712C58.1907 2.6111 58.6861 2.83548 58.8521 3.28037L58.9299 3.48791C59.0959 3.93151 58.8715 4.42699 58.4267 4.59301L6.62938 24.0048H6.63068Z" fill="#FFDC5A"/>
<path d="M7.31024 25.8207L6.62936 24.0049L58.4267 4.59304C58.8702 4.42702 59.3656 4.65139 59.5316 5.09629L59.6095 5.30383C59.7755 5.74742 59.5511 6.2429 59.1063 6.40893L7.30894 25.8207H7.31024Z" fill="#F9CB3A"/>
<path d="M7.99112 27.6367L7.31024 25.8208L59.1076 6.40896C59.5511 6.24294 60.0465 6.46731 60.2125 6.9122L60.2904 7.11975C60.4564 7.56334 60.232 8.05882 59.7872 8.22485L7.98982 27.6367H7.99112Z" fill="#FF9629"/>
<path d="M3.68929 29.2489C3.68929 29.2489 3.03694 28.4577 2.48575 26.9895C1.85545 25.3072 1.64795 23.8013 1.64795 23.8013L6.74999 21.8894C6.74999 21.8894 7.00419 23.4381 7.53333 24.7015C8.28295 26.4914 8.79133 27.3358 8.79133 27.3358L3.68929 29.2476V29.2489Z" fill="#C1C1C1"/>
<path d="M5.97572 25.3563C5.42194 23.8802 5.31429 22.6805 5.30781 22.6052C5.30003 22.5157 5.3545 22.447 5.42973 22.4522C5.50495 22.4574 5.57109 22.5352 5.57887 22.6247C5.58147 22.6519 5.82399 25.3226 7.42697 27.5548C7.48014 27.6288 7.47885 27.7299 7.42567 27.7818C7.3725 27.8337 7.28559 27.8168 7.23372 27.7429C6.66567 26.9517 6.26234 26.1164 5.97702 25.355L5.97572 25.3563Z" fill="#424242"/>
<path d="M3.91752 26.1268C3.36374 24.6508 3.2561 23.451 3.24961 23.3758C3.24183 23.2863 3.29631 23.2175 3.37153 23.2227C3.44675 23.2279 3.51288 23.3057 3.52066 23.3952C3.52325 23.4224 3.76578 26.0931 5.36876 28.3253C5.42193 28.3993 5.42065 28.5004 5.36748 28.5523C5.3143 28.6042 5.2274 28.5873 5.17552 28.5134C4.60747 27.7222 4.20414 26.8869 3.91882 26.1255L3.91752 26.1268Z" fill="#424242"/>
</svg>
