<svg width="27" height="30" viewBox="0 0 27 30" fill="none" xmlns="http://www.w3.org/2000/svg">
<path d="M1.73604 28.7548C-0.234539 27.0462 -0.580561 24.19 0.971037 22.3625L11.5565 9.89962C13.1189 8.05993 15.8626 7.81526 17.6723 9.35217C18.5401 10.0902 19.0158 11.104 19.0077 12.207C19.001 13.2411 18.5738 14.3076 17.8075 15.2105L10.3577 23.9819C8.60741 26.0419 6.49084 26.4474 4.83382 25.0403L4.78921 25.0024C4.7784 24.993 4.76759 24.9848 4.75813 24.9754C3.90799 24.2387 3.53093 23.3101 3.66609 22.2882C3.78097 21.4231 4.254 20.4971 5.0717 19.5347L9.64 14.1548C9.79813 13.9697 10.0765 13.9467 10.2617 14.1048C10.2617 14.1048 10.2644 14.1062 10.2644 14.1075C10.4469 14.2657 10.4685 14.5414 10.3117 14.7266L5.74342 20.1065C5.03791 20.9378 4.63245 21.711 4.54054 22.4058C4.44323 23.1398 4.70272 23.7629 5.3339 24.309C5.34201 24.3171 5.35149 24.3239 5.36095 24.332L5.40553 24.3698C7.22339 25.9148 9.00478 24.2157 9.68597 23.4128L17.1358 14.6415C17.7683 13.8967 18.1211 13.0302 18.1265 12.2029C18.1319 11.3541 17.7764 10.5985 17.102 10.0267C15.6626 8.80337 13.4771 9.00478 12.2296 10.4728L1.64415 22.9356C0.404761 24.3941 0.708859 26.6975 2.31452 28.0898C2.32533 28.0992 2.33614 28.1087 2.34696 28.1181C3.98235 29.5077 6.32731 29.4428 7.5748 27.9735L15.0828 19.1332C15.2409 18.9481 15.5193 18.9251 15.7045 19.0832C15.7045 19.0832 15.7072 19.0846 15.7072 19.0859C15.8896 19.2441 15.9113 19.5198 15.7545 19.705L8.24653 28.5453C6.68412 30.385 3.78097 30.4945 1.77525 28.79C1.76173 28.7791 1.74821 28.767 1.73604 28.7562V28.7548Z" fill="#FF9629"/>
<path d="M13.7893 12.8004C12.2715 11.3068 14.3029 -0.370771 18.6509 0.00906309C21.546 0.263187 20.4877 2.57463 20.9445 4.77389C21.1783 5.89852 25.4128 3.0572 26.2643 6.03775C27.3699 9.90503 16.1505 15.1254 13.788 12.7991L13.7893 12.8004Z" fill="#FF4840"/>
<path opacity="0.26" d="M17.9535 1.66613C16.7128 1.23358 14.757 6.13222 14.8354 7.18792C14.9138 8.24361 15.4004 7.77592 15.7099 6.75131C16.0194 5.72671 16.9804 3.36119 17.6737 2.84889C18.3657 2.33658 18.7158 1.93242 17.9548 1.66613H17.9535Z" fill="#F8EBDB"/>
</svg>
