<svg width="34" height="34" viewBox="0 0 34 34" fill="none" xmlns="http://www.w3.org/2000/svg">
<path d="M14.6141 20.0301C14.6141 20.0301 0.585938 33.7085 0.0142508 33.1617C-0.499227 32.6689 13.0757 18.5498 13.0757 18.5498L14.6161 20.0301H14.6141Z" fill="#9991A0"/>
<path d="M16.1441 11.0338L24.6861 3.71743L25.4054 0C25.4054 0 26.8523 1.06452 29.4176 3.53241C31.4694 5.50756 33.1034 7.4037 33.1034 7.4037L29.4176 8.26859L22.3869 17.0403C23.4367 19.3585 23.0417 22.1798 21.1707 24.1259L20.0648 25.2756C20.0648 25.2756 16.8758 23.2631 13.5081 20.0259C8.87222 15.5683 8.00534 13.6784 8.00534 13.6784L9.11128 12.5287C10.9823 10.5826 13.7866 10.0774 16.142 11.0359L16.1441 11.0338Z" fill="#FF4840"/>
<path d="M18.6844 14.6785C20.4286 16.3563 22.1395 16.9634 22.1644 16.9738C22.2268 16.9946 22.2933 16.9634 22.3141 16.901C22.3349 16.8387 22.3016 16.7721 22.2414 16.7513C22.2039 16.7389 18.4516 15.3999 16.4497 11.1773C16.4226 11.119 16.3519 11.0941 16.2937 11.1211C16.2355 11.1482 16.2106 11.2189 16.2376 11.2771C16.9216 12.72 17.8072 13.8344 18.6844 14.6785Z" fill="#361C1D"/>
<path d="M26.7068 6.40988C27.952 7.60744 28.981 8.12307 28.9977 8.13138C29.0559 8.16049 29.1265 8.13554 29.1557 8.07732C29.1848 8.01911 29.1598 7.94842 29.1016 7.91931C29.0808 7.90891 26.9001 6.81114 25.0686 4.09168C25.0312 4.03762 24.9584 4.02306 24.9044 4.06049C24.8503 4.09583 24.8358 4.17069 24.8732 4.22475C25.4761 5.11876 26.1143 5.84229 26.7068 6.40988Z" fill="#361C1D"/>
<g opacity="0.4">
<path d="M27.5737 8.54304C27.8044 8.6761 22.3349 15.5454 22.0668 15.2876C21.7986 15.0298 26.8564 8.13138 27.5737 8.54304Z" fill="white"/>
</g>
</svg>
