<svg width="60" height="61" viewBox="0 0 60 61" fill="none" xmlns="http://www.w3.org/2000/svg">
<path d="M6.26745 46.0042C0.746691 36.2162 2.43002 23.5008 8.57847 14.4934C14.6984 5.53113 25.6401 -0.488787 36.0254 3.74467C46.4535 7.99314 51.4464 19.0272 51.746 30.2263C51.8887 35.6007 50.6475 41.3654 47.7088 45.809C44.87 50.0875 41.004 52.6246 36.5104 54.6062C26.2963 59.0949 13.2005 56.1074 6.66689 46.4395C6.15333 45.6739 3.20036 45.2236 3.94217 46.4395C10.3189 57.0082 22.6015 61.1065 33.9997 59.8305C45.5833 58.5244 57.7661 50.658 59.7204 37.6273C61.7033 24.5066 52.8444 10.8905 42.4449 4.37519C31.7457 -2.33529 18.5929 -1.31446 9.63412 8.05319C0.390048 17.7211 -3.46164 33.9644 3.75672 46.0192C4.21321 46.7848 6.92367 47.1601 6.26745 46.0192L6.26745 46.0042Z" fill="#3C5C37"/>
</svg>
