<svg width="67" height="368" viewBox="0 0 67 368" fill="none" xmlns="http://www.w3.org/2000/svg">
<path d="M8.1442 362.386C14.8881 366.924 22.1342 368.563 29.0483 365.464C35.9624 362.368 42.513 354.283 46.7208 341.919C54.696 318.48 52.3594 282.596 42.8482 262.065C35.3752 245.935 24.0547 237.204 19.7798 216.251C16.941 202.342 18.2018 184.908 22.8655 173.58C25.6401 166.839 29.3635 162.401 32.8694 157.547C40.4076 147.11 47.2177 134.256 53.2672 119.93C57.7523 109.31 61.8896 97.6317 64.2009 84.101C66.5123 70.5704 66.817 54.8874 63.8101 42.0238C60.8032 29.1601 54.0782 20.0969 47.555 22.5358C40.7522 25.0801 35.7502 38.5718 29.0441 42.1292C23.1859 45.2374 16.9232 40.0709 12.2679 31.7113C7.61259 23.3518 4.26848 12.1087 1 1.05592" stroke="#3C5C37" stroke-miterlimit="10" stroke-dasharray="6 6"/>
</svg>
