<svg width="10" height="10" viewBox="0 0 10 10" fill="none" xmlns="http://www.w3.org/2000/svg">
<g clip-path="url(#clip0_2180_13935)">
<path d="M1.04358 7.65635C0.123462 6.02554 0.404013 3.90698 1.42874 2.40623C2.44871 0.91298 4.2723 -0.0900213 6.00316 0.615331C7.74115 1.32319 8.57329 3.1616 8.62322 5.02754C8.647 5.92299 8.44015 6.88347 7.95037 7.62384C7.47724 8.33669 6.83292 8.7594 6.08399 9.08957C4.38166 9.83744 2.19907 9.33969 1.11015 7.72889C1.02455 7.60132 0.532401 7.52629 0.656034 7.72889C1.7188 9.48977 3.76588 10.1726 5.66554 9.96C7.59612 9.74239 9.62655 8.43174 9.95228 6.26065C10.2828 4.07456 8.8063 1.80593 7.07306 0.720384C5.28989 -0.397675 3.09778 -0.22759 1.60468 1.33319C0.0640219 2.944 -0.577917 5.65035 0.625126 7.65885C0.701208 7.78642 1.15294 7.84895 1.04358 7.65885L1.04358 7.65635Z" fill="white"/>
<path d="M0.940124 7.65805C0.11201 6.02671 0.36451 3.90748 1.28678 2.40626C2.20477 0.912537 3.84602 -0.0907822 5.40381 0.614794C6.96803 1.32287 7.71697 3.16187 7.76191 5.0284C7.7833 5.92413 7.59714 6.88492 7.15633 7.62552C6.73051 8.3386 6.15061 8.76145 5.47657 9.09172C3.94445 9.83983 1.98008 9.34192 1.00004 7.73061C0.923006 7.603 0.48006 7.52794 0.591331 7.73061C1.54784 9.49205 3.39023 10.1751 5.09996 9.96243C6.8375 9.74475 8.66491 8.43368 8.95807 6.26191C9.25551 4.07512 8.55994 2.08589 7 1C5.39513 -0.118414 2.78894 -0.228395 1.44512 1.33288C0.0585135 2.9442 -0.519242 5.65141 0.563513 7.66055C0.631988 7.78815 1.03856 7.8507 0.940124 7.66055L0.940124 7.65805Z" fill="white"/>
</g>
<defs>
<clipPath id="clip0_2180_13935">
<rect width="10" height="10" fill="white" transform="translate(10) rotate(90)"/>
</clipPath>
</defs>
</svg>
