<svg width="10" height="10" viewBox="0 0 10 10" fill="none" xmlns="http://www.w3.org/2000/svg">
<path d="M1.04358 7.6566C0.123462 6.02578 0.404013 3.90722 1.42874 2.40647C2.44871 0.913224 4.2723 -0.0897771 6.00316 0.615576C7.74115 1.32343 8.57329 3.16185 8.62322 5.02778C8.647 5.92323 8.44015 6.88371 7.95037 7.62408C7.47724 8.33694 6.83292 8.75965 6.08399 9.08981C4.38166 9.83769 2.19907 9.33994 1.11015 7.72913C1.02455 7.60157 0.532401 7.52653 0.656034 7.72913C1.7188 9.49001 3.76588 10.1729 5.66554 9.96025C7.59612 9.74264 9.62655 8.43198 9.95228 6.2609C10.2828 4.07481 8.8063 1.80617 7.07306 0.720628C5.28989 -0.397431 3.09778 -0.227346 1.60468 1.33343C0.0640219 2.94424 -0.577917 5.65059 0.625126 7.6591C0.701208 7.78666 1.15294 7.84919 1.04358 7.6591L1.04358 7.6566Z" fill="#3C5C37"/>
<path d="M0.940124 7.65839C0.11201 6.02706 0.36451 3.90783 1.28678 2.4066C2.20477 0.912881 3.84602 -0.0904389 5.40381 0.615137C6.96803 1.32322 7.71697 3.16222 7.76191 5.02874C7.7833 5.92447 7.59714 6.88526 7.15633 7.62586C6.73051 8.33895 6.15061 8.76179 5.47657 9.09206C3.94445 9.84017 1.98008 9.34227 1.00004 7.73095C0.923006 7.60335 0.48006 7.52828 0.591331 7.73095C1.54784 9.49239 3.39023 10.1754 5.09996 9.96277C6.8375 9.74509 8.66491 8.43402 8.95807 6.26225C9.25551 4.07546 8.55994 2.08623 7 1.00034C5.39513 -0.11807 2.78894 -0.228051 1.44512 1.33322C0.0585135 2.94454 -0.519242 5.65175 0.563513 7.66089C0.631988 7.7885 1.03856 7.85105 0.940124 7.66089L0.940124 7.65839Z" fill="#3C5C37"/>
</svg>
