<svg width="56" height="96" viewBox="0 0 56 96" fill="none" xmlns="http://www.w3.org/2000/svg">
<path d="M44.7664 37.5746L40.4742 34.9434L44.4906 28.3895C44.6315 28.1604 44.9627 28.1547 45.111 28.3788L47.7268 32.3386C47.8059 32.4573 47.8082 32.6108 47.7335 32.7332L44.7668 37.5732L44.7664 37.5746Z" fill="#D12C54"/>
<path d="M44.2229 38.4618L39.9307 35.8306L43.9471 29.2767C44.0879 29.0476 44.4192 29.0419 44.5675 29.266L47.1832 33.2259C47.2624 33.3445 47.2647 33.498 47.1899 33.6204L44.2247 38.4608L44.2229 38.4618Z" fill="#ED586E"/>
<path d="M44.899 49.4257C45.0943 49.1107 45.0947 48.7121 44.8948 48.4007C44.3685 47.5791 43.4367 45.6865 43.5175 42.6666C43.5677 40.8122 45.3926 37.5146 46.0386 36.4015C46.1616 36.1886 46.0931 35.9184 45.8831 35.7902L41.5352 33.1261C41.3253 32.9979 41.0524 33.0597 40.9193 33.2654C40.2219 34.3467 38.1127 37.4692 36.4826 38.3561C33.8225 39.8034 31.7186 39.8348 30.7572 39.7421C30.395 39.7065 30.0447 39.884 29.8509 40.1933L29.2896 41.0968L35.5056 46.4605L35.3825 46.6629L36.0609 46.9391L36.6147 47.4173L36.7393 47.2153L44.3403 50.3193L44.8962 49.4249L44.899 49.4257Z" fill="#321B21"/>
<path d="M44.3608 50.3323C44.3608 50.3323 35.4164 64.2633 32.3934 68.8828C28.8171 74.348 17.963 90.668 17.963 90.668C17.5106 91.3608 16.5891 91.5666 15.8835 91.1347L5.86579 84.9951C5.16014 84.5632 4.92689 83.6492 5.33831 82.9305C5.33831 82.9305 5.57039 82.5175 5.9752 81.7955C8.17883 77.8843 15.4769 64.9287 18.2254 60.1307C20.961 55.3532 29.2914 41.0957 29.2914 41.0957L44.3598 50.3305L44.3608 50.3323Z" fill="#ED586E"/>
<path d="M44.3608 50.3323C44.3608 50.3323 35.4164 64.2633 32.3934 68.8829C28.8171 74.348 17.963 90.6681 17.963 90.6681C17.5106 91.3608 16.5891 91.5666 15.8835 91.1347L5.86579 84.9951C5.16014 84.5632 4.92689 83.6493 5.33831 82.9305C5.33831 82.9305 5.5704 82.5175 5.9752 81.7955C8.37608 83.749 11.968 85.6933 15.6709 85.053C20.6954 84.1852 39.0834 54.7285 42.6937 49.3099L44.3584 50.3301L44.3608 50.3323Z" fill="#D12C54"/>
<path d="M30.3959 45.2637C29.2385 45.3598 12.2644 75.1669 12.3262 76.1669C12.3866 77.1664 13.3557 77.4711 14.2683 76.2975C15.1808 75.1239 29.8396 49.1576 30.6812 47.941C31.5228 46.7244 31.9184 45.1365 30.3959 45.2637Z" fill="#E8AFB4"/>
<path d="M34.2296 2.93088C33.6279 2.93307 21.8204 6.93026 21.3498 7.30484C20.8792 7.67943 25.6761 25.2759 25.6761 25.2759L26.371 27.2475C26.371 27.2475 29.4764 26.8009 34.9157 24.905C40.5221 22.9504 43.0281 21.3343 43.0281 21.3343L42.3347 19.3631C42.3347 19.3631 34.8344 2.92804 34.2324 2.93162L34.2296 2.93088Z" fill="#321B21"/>
<path d="M24.17 8.92991C23.2616 9.31611 26.975 21.9558 27.5347 22.3171C28.0948 22.677 27.0159 17.7589 26.2898 14.953C25.5637 12.1471 24.9648 8.59273 24.17 8.92991Z" fill="#908F96"/>
</svg>
