<svg width="61" height="25" viewBox="0 0 61 25" fill="none" xmlns="http://www.w3.org/2000/svg">
<path d="M59.7183 1.81932C60.1281 2.91282 60.0941 4.02755 59.817 4.13159L56.3958 5.41406L54.8523 1.29382L58.2736 0.0113422C58.5517 -0.0926989 59.2321 0.519873 59.7194 1.81932L59.7183 1.81932Z" fill="#FF4840"/>
<path d="M3.50552 23.4514C3.50552 23.4514 -0.107901 24.426 0.00249719 24.1998C0.111834 23.9727 2.98324 22.5182 2.98324 22.5182L5.40564 22.1753L3.50552 23.4524L3.50552 23.4514Z" fill="#323232"/>
<path d="M12.4031 22.0097L3.50548 23.4514C3.50548 23.4514 4.24748 23.0076 4.19653 22.6414C4.14558 22.2751 2.98214 22.5171 2.98214 22.5171L11.0125 17.5295L12.4021 22.0086L12.4031 22.0097Z" fill="#F8B976"/>
<path d="M54.5986 4.58598L55.1559 6.07228L12.7599 21.9608C12.3968 22.0967 11.9913 21.9131 11.8555 21.5489L11.7918 21.3791C11.6559 21.016 11.8395 20.6104 12.2036 20.4745L54.5997 4.58598L54.5986 4.58598Z" fill="#FFDC5A"/>
<path d="M54.0424 3.09965L54.5997 4.58595L12.2036 20.4745C11.8406 20.6104 11.4351 20.4267 11.2992 20.0626L11.2355 19.8927C11.0996 19.5296 11.2833 19.1241 11.6474 18.9882L54.0434 3.09965L54.0424 3.09965Z" fill="#F9CB3A"/>
<path d="M53.4851 1.61338L54.0424 3.09968L11.6463 18.9882C11.2832 19.1241 10.8778 18.9405 10.7419 18.5763L10.6782 18.4065C10.5423 18.0434 10.7259 17.6378 11.09 17.5019L53.4861 1.61338L53.4851 1.61338Z" fill="#FF9629"/>
<path d="M57.0062 0.293769C57.0062 0.293769 57.5401 0.941363 57.9913 2.14314C58.5072 3.5201 58.677 4.75267 58.677 4.75267L54.501 6.31754C54.501 6.31754 54.2929 5.04991 53.8598 4.01587C53.2463 2.5508 52.8302 1.85969 52.8302 1.85969L57.0062 0.294831L57.0062 0.293769Z" fill="#C1C1C1"/>
<path d="M55.1347 3.47976C55.588 4.68791 55.6761 5.66993 55.6814 5.7315C55.6878 5.80476 55.6432 5.86102 55.5816 5.85677C55.52 5.85252 55.4659 5.78882 55.4595 5.71556C55.4574 5.69327 55.2589 3.50734 53.9469 1.68025C53.9033 1.61974 53.9044 1.53693 53.9479 1.49446C53.9915 1.452 54.0626 1.46581 54.105 1.52632C54.57 2.17392 54.9001 2.85764 55.1337 3.48082L55.1347 3.47976Z" fill="#424242"/>
<path d="M56.8193 2.84912C57.2726 4.05727 57.3607 5.03929 57.366 5.10086C57.3724 5.17411 57.3278 5.2304 57.2662 5.22615C57.2047 5.22191 57.1505 5.1582 57.1442 5.08495C57.1421 5.06265 56.9436 2.87673 55.6315 1.04964C55.588 0.989123 55.589 0.906315 55.6326 0.863849C55.6761 0.821384 55.7472 0.83519 55.7897 0.895704C56.2546 1.54331 56.5847 2.227 56.8183 2.85018L56.8193 2.84912Z" fill="#424242"/>
</svg>
