<svg width="50" height="17" viewBox="0 0 50 17" fill="none" xmlns="http://www.w3.org/2000/svg">
<path d="M46.9384 14.2108C46.9384 14.2108 48.8194 14.9351 48.6975 15.0104C48.5756 15.0857 46.8587 14.8459 46.8587 14.8459L45.6993 14.207L46.9389 14.2109L46.9384 14.2108Z" fill="#FE4C3E"/>
<path d="M42.6202 11.9535L46.9378 14.2105C46.9378 14.2105 46.4718 14.1818 46.3737 14.3802C46.2758 14.5779 46.8579 14.8463 46.8579 14.8463L41.7532 14.6279L42.6204 11.9529L42.6202 11.9535Z" fill="#F8B976"/>
<path d="M42.6987 12.3945L42.6871 12.4376C42.6224 12.6792 42.3734 12.8235 42.1312 12.7585L0.484066 1.59923L0.730402 0.679888L42.3781 11.8394C42.6198 11.9041 42.764 12.1531 42.6991 12.3953L42.6987 12.3945Z" fill="#FE4C3E"/>
<path d="M42.4524 13.3138L42.4408 13.3569C42.3761 13.5986 42.1271 13.7428 41.8849 13.6779L0.237728 2.51854L0.484065 1.5992L42.1318 12.7587C42.3734 12.8234 42.5177 13.0724 42.4528 13.3146L42.4524 13.3138Z" fill="#E5241A"/>
<path d="M42.2058 14.2338L42.1943 14.2768C42.1295 14.5185 41.8806 14.6627 41.6383 14.5978L-0.00879342 3.43846L0.237544 2.51912L41.8853 13.6786C42.1269 13.7433 42.2712 13.9923 42.2063 14.2345L42.2058 14.2338Z" fill="#C40500"/>
</svg>
