<svg width="15" height="15" viewBox="0 0 15 15" fill="none" xmlns="http://www.w3.org/2000/svg">
<path d="M12.6848 6.1229L7.99731 10.8104C7.93199 10.876 7.85437 10.928 7.76891 10.9634C7.68344 10.9989 7.59181 11.0172 7.49927 11.0172C7.40673 11.0172 7.31509 10.9989 7.22963 10.9634C7.14416 10.928 7.06654 10.876 7.00122 10.8104L2.31372 6.1229C2.18163 5.99081 2.10742 5.81166 2.10742 5.62485C2.10742 5.43805 2.18163 5.2589 2.31372 5.12681C2.44581 4.99472 2.62496 4.92051 2.81177 4.92051C2.99857 4.92051 3.17772 4.99472 3.30981 5.12681L7.49985 9.31684L11.6899 5.12622C11.822 4.99413 12.0011 4.91992 12.1879 4.91992C12.3747 4.91992 12.5539 4.99413 12.686 5.12622C12.8181 5.25831 12.8923 5.43746 12.8923 5.62427C12.8923 5.81107 12.8181 5.99022 12.686 6.12231L12.6848 6.1229Z" fill="#3C5C37"/>
</svg>
