<svg width="35" height="90" viewBox="0 0 35 90" fill="none" xmlns="http://www.w3.org/2000/svg">
<path d="M3.96313 18.3163L10.2689 15.4849H17.2014L24.0421 18.3163C24.0421 18.3163 11.5876 20.2033 11.2487 19.8743C10.9098 19.5452 3.96313 18.3163 3.96313 18.3163Z" fill="#D8D7DD"/>
<path d="M26.0846 87.4994H1.92416L2.0901 82.253L2.83683 58.7738L2.941 55.0614L3.48297 35.6082L3.96491 18.3198C3.96491 18.3198 8.6501 19.0362 14.0044 19.0362C18.626 19.0362 22.3315 18.5683 23.5867 18.3883C23.885 18.3455 24.0457 18.3198 24.0457 18.3198L24.5276 35.6871L25.066 55.0374L25.1719 58.7823L26.0881 87.5011L26.0846 87.4994Z" fill="#F5E8D8"/>
<path d="M25.1684 58.7806C23.0093 58.856 18.7637 59.2708 14.1579 59.2708C10.2777 59.2708 5.28709 58.8475 2.83679 58.7721L2.94096 55.0597C5.38596 55.1539 10.1895 55.5961 14.1579 55.5413C18.7496 55.4762 22.8911 55.0905 25.0642 55.0374L25.1684 58.7823V58.7806Z" fill="#FF4840"/>
<path d="M24.524 35.6853C21.7542 35.9853 18.077 36.2715 14.1915 36.2715C10.7667 36.2715 6.6376 35.9321 3.48117 35.6065L3.96311 18.3163C3.96311 18.3163 8.6483 19.0344 14.0026 19.0344C19.7258 19.0344 24.0439 18.3163 24.0439 18.3163L24.5258 35.6836L24.524 35.6853Z" fill="#FF4840"/>
<path d="M17.5986 12.95H9.88757V15.4369H17.5986V12.95Z" fill="#321B21"/>
<path d="M0.386849 9.57976L7.20764 2.95307C7.42103 2.74576 7.76796 2.74576 7.98134 2.95307L9.97667 4.89162C10.1077 5.01891 10.1077 5.22741 9.97667 5.35471L2.85887 12.27C2.72784 12.3972 2.5132 12.3973 2.38218 12.27L0.386849 10.3314C0.173465 10.1241 0.173465 9.78707 0.386849 9.57976Z" fill="#545456"/>
<g opacity="0.1">
<path d="M26.0846 87.4993H1.92416V83.9172C6.25631 83.3705 16.1245 81.4629 19.1168 73.3628C21.7154 66.3305 23.2177 28.036 23.5849 18.3849C23.8832 18.342 24.0439 18.3163 24.0439 18.3163L24.5258 35.6836L25.0643 55.034L25.1702 58.7789L26.0864 87.4976L26.0846 87.4993Z" fill="#54412B"/>
</g>
<path d="M26.7166 89.4344C26.7166 89.6058 26.5771 89.748 26.4006 89.7549C25.0978 89.808 19.9342 90 14.2127 90C9.51511 90 3.197 89.8012 1.71764 89.7532C1.53934 89.748 1.3981 89.6058 1.3981 89.4327V86.3476C1.3981 86.1642 1.55344 86.0185 1.74233 86.0271C3.24288 86.0922 9.35447 86.3373 14.2127 86.2705C19.9854 86.1899 25.0484 86.058 26.3777 86.022C26.563 86.0168 26.7184 86.1625 26.7184 86.3425V89.4361L26.7166 89.4344Z" fill="#F5E8D8"/>
<path d="M2.4854 89.5304C2.38838 89.5304 2.30899 89.4533 2.30899 89.359V86.5773C2.30899 86.483 2.38838 86.4059 2.4854 86.4059C2.58243 86.4059 2.66182 86.483 2.66182 86.5773V89.359C2.66182 89.4533 2.58243 89.5304 2.4854 89.5304Z" fill="#585859"/>
<path d="M4.17129 89.5304C4.07426 89.5304 3.99487 89.4533 3.99487 89.359V86.5773C3.99487 86.483 4.07426 86.4059 4.17129 86.4059C4.26831 86.4059 4.3477 86.483 4.3477 86.5773V89.359C4.3477 89.4533 4.26831 89.5304 4.17129 89.5304Z" fill="#585859"/>
<path d="M6.01076 89.5304C5.91374 89.5304 5.83435 89.4533 5.83435 89.359V86.5773C5.83435 86.483 5.91374 86.4059 6.01076 86.4059C6.10779 86.4059 6.18718 86.483 6.18718 86.5773V89.359C6.18718 89.4533 6.10779 89.5304 6.01076 89.5304Z" fill="#585859"/>
<path d="M7.69671 89.5304C7.59968 89.5304 7.52029 89.4533 7.52029 89.359V86.5773C7.52029 86.483 7.59968 86.4059 7.69671 86.4059C7.79374 86.4059 7.87312 86.483 7.87312 86.5773V89.359C7.87312 89.4533 7.79374 89.5304 7.69671 89.5304Z" fill="#585859"/>
<path d="M9.64916 89.5681C9.55213 89.5681 9.47275 89.491 9.47275 89.3967V86.615C9.47275 86.5207 9.55213 86.4436 9.64916 86.4436C9.74619 86.4436 9.82558 86.5207 9.82558 86.615V89.3967C9.82558 89.491 9.74619 89.5681 9.64916 89.5681Z" fill="#585859"/>
<path d="M11.3333 89.5681C11.2362 89.5681 11.1569 89.491 11.1569 89.3967V86.615C11.1569 86.5207 11.2362 86.4436 11.3333 86.4436C11.4303 86.4436 11.5097 86.5207 11.5097 86.615V89.3967C11.5097 89.491 11.4303 89.5681 11.3333 89.5681Z" fill="#585859"/>
<path d="M13.1745 89.5681C13.0775 89.5681 12.9981 89.491 12.9981 89.3967V86.615C12.9981 86.5207 13.0775 86.4436 13.1745 86.4436C13.2715 86.4436 13.3509 86.5207 13.3509 86.615V89.3967C13.3509 89.491 13.2715 89.5681 13.1745 89.5681Z" fill="#585859"/>
<path d="M14.8587 89.5681C14.7617 89.5681 14.6823 89.491 14.6823 89.3967V86.615C14.6823 86.5207 14.7617 86.4436 14.8587 86.4436C14.9557 86.4436 15.0351 86.5207 15.0351 86.615V89.3967C15.0351 89.491 14.9557 89.5681 14.8587 89.5681Z" fill="#585859"/>
<path d="M16.7688 89.5681C16.6718 89.5681 16.5924 89.491 16.5924 89.3967V86.615C16.5924 86.5207 16.6718 86.4436 16.7688 86.4436C16.8658 86.4436 16.9452 86.5207 16.9452 86.615V89.3967C16.9452 89.491 16.8658 89.5681 16.7688 89.5681Z" fill="#585859"/>
<path d="M18.4547 89.5681C18.3577 89.5681 18.2783 89.491 18.2783 89.3967V86.615C18.2783 86.5207 18.3577 86.4436 18.4547 86.4436C18.5517 86.4436 18.6311 86.5207 18.6311 86.615V89.3967C18.6311 89.491 18.5517 89.5681 18.4547 89.5681Z" fill="#585859"/>
<path d="M20.2942 89.5681C20.1972 89.5681 20.1178 89.491 20.1178 89.3967V86.615C20.1178 86.5207 20.1972 86.4436 20.2942 86.4436C20.3912 86.4436 20.4706 86.5207 20.4706 86.615V89.3967C20.4706 89.491 20.3912 89.5681 20.2942 89.5681Z" fill="#585859"/>
<path d="M21.9801 89.5681C21.883 89.5681 21.8036 89.491 21.8036 89.3967V86.615C21.8036 86.5207 21.883 86.4436 21.9801 86.4436C22.0771 86.4436 22.1565 86.5207 22.1565 86.615V89.3967C22.1565 89.491 22.0771 89.5681 21.9801 89.5681Z" fill="#585859"/>
<path d="M23.666 89.5681C23.5689 89.5681 23.4896 89.491 23.4896 89.3967V86.615C23.4896 86.5207 23.5689 86.4436 23.666 86.4436C23.763 86.4436 23.8424 86.5207 23.8424 86.615V89.3967C23.8424 89.491 23.763 89.5681 23.666 89.5681Z" fill="#585859"/>
<path d="M25.3501 89.5681C25.2531 89.5681 25.1737 89.491 25.1737 89.3967V86.615C25.1737 86.5207 25.2531 86.4436 25.3501 86.4436C25.4471 86.4436 25.5265 86.5207 25.5265 86.615V89.3967C25.5265 89.491 25.4471 89.5681 25.3501 89.5681Z" fill="#585859"/>
<g opacity="0.26">
<path d="M7.27491 21.3791C6.59172 21.7425 5.38067 74.5883 6.01089 75.0819C7.6968 76.4016 8.07636 64.2824 8.37118 46.61C8.66599 28.9376 8.7931 20.5702 7.27491 21.3791Z" fill="white"/>
</g>
<path d="M11.3334 12.95C11.3334 12.95 10.2618 6.47814 12.9593 3.4599C15.3778 0.753593 18.4089 0.846168 22.6228 1.76827C24.9354 2.27559 28.1288 0.0440356 30.5438 0.00118716C34.8124 -0.0742261 35.7693 3.4599 34.4488 5.85941C33.4602 7.65733 31.1458 8.85883 26.7166 8.20411C22.2873 7.54938 19.7311 7.3214 18.4548 7.87672C16.1704 8.8708 15.7256 13.1265 16.2746 12.95H11.3334Z" fill="#FF4840"/>
<g opacity="0.26">
<path d="M12.6786 10.1683C12.6786 10.1683 12.9593 5.5869 14.421 4.05979C15.8809 2.53267 17.3426 2.09564 20.7691 2.58754C24.1957 3.07773 28.2965 1.74771 29.5888 1.43063C30.881 1.11527 32.1733 1.48206 31.3312 2.03394C30.4891 2.58754 27.4545 3.51477 23.6343 3.35023C19.8141 3.18741 17.9605 2.3133 15.9939 4.11464C14.0273 5.91428 13.5224 11.2601 12.6786 10.1683Z" fill="white"/>
</g>
</svg>
