<svg width="40" height="46" viewBox="0 0 40 46" fill="none" xmlns="http://www.w3.org/2000/svg">
<path d="M2.60925 1.50175C4.23064 0.152646 6.29959 -0.270927 8.43757 0.309503C10.4426 0.855944 12.422 2.25212 14.0076 4.2418L29.4236 23.5816C33.0449 28.1257 33.3748 32.5469 30.2829 35.1222L30.1985 35.1928C27.1501 37.7316 23.4035 36.5341 19.6441 31.8201L10.1894 19.9605C9.86207 19.55 9.87995 18.9853 10.2252 18.6977C10.5704 18.4101 11.1152 18.5068 11.4425 18.9173L20.8972 30.7769C23.9789 34.6438 26.7127 35.6321 29.017 33.7104L29.1014 33.6398C32.4925 30.8135 29.5796 26.3949 28.1705 24.6274L12.7544 5.28762C9.99756 1.82857 6.31239 0.882084 3.7908 2.98418C1.10553 5.21962 1.0237 9.67484 3.60411 12.9117L25.5082 40.3906C28.0886 43.63 32.6715 44.1973 35.7199 41.656C38.7683 39.1147 39.152 34.4137 36.569 31.1743L21.0328 11.6828C20.7054 11.2723 20.7233 10.7076 21.0685 10.42C21.4138 10.1324 21.9585 10.2291 22.2859 10.6396L37.8221 30.1311C41.0546 34.1862 40.6404 40.0219 36.9015 43.1385C33.16 46.255 27.4877 45.4916 24.2551 41.4364L2.35095 13.9575C-0.881606 9.9023 -0.76652 4.31501 2.60925 1.50437V1.50175Z" fill="#FF4840"/>
</svg>
